<mxfile host="app.diagrams.net" modified="2022-01-27T22:04:00.944Z" agent="5.0 (Macintosh; Intel Mac OS X 10_13_6) AppleWebKit/605.1.15 (KHTML, like Gecko) Version/13.1.2 Safari/605.1.15" etag="RDvU-A05JBz1ygu-84EP" version="16.4.11" type="github">
  <diagram id="EtfUxz79RpzA-MQDbwWu" name="Page-1">
    <mxGraphModel dx="876" dy="578" grid="1" gridSize="10" guides="1" tooltips="1" connect="1" arrows="1" fold="1" page="1" pageScale="1" pageWidth="850" pageHeight="1100" math="0" shadow="0">
      <root>
        <mxCell id="0" />
        <mxCell id="1" parent="0" />
        <mxCell id="46MEnAYg1BWNFpC2DYhj-1" value="" style="shape=image;verticalLabelPosition=bottom;labelBackgroundColor=default;verticalAlign=top;aspect=fixed;imageAspect=0;image=data:image/jpeg,/9j/4AAQSkZJRgABAQAASABIAAD/4QBeRXhpZgAATU0AKgAAAAgAAYdpAAQAAAABAAAAGgAAAAAAA5KGAAcAAAASAAAARKACAAQAAAABAAADd6ADAAQAAAABAAABbAAAAABBU0NJSQAAAFNjcmVlbnNob3T/7QA4UGhvdG9zaG9wIDMuMAA4QklNBAQAAAAAAAA4QklNBCUAAAAAABDUHYzZjwCyBOmACZjs+EJ+/+IbRElDQ19QUk9GSUxFAAEBAAAbNGFwcGwCEAAAbW50clJHQiBYWVogB+YAAQABAA4AJQAdYWNzcEFQUEwAAAAAQVBQTAAAAAAAAAAAAAAAAAAAAAAAAPbWAAEAAAAA0y1hcHBsAAAAAAAAAAAAAAAAAAAAAAAAAAAAAAAAAAAAAAAAAAAAAAAAAAAAAAAAAAAAAAARZGVzYwAAAVAAAABiZHNjbQAAAbQAAAQ2Y3BydAAABewAAAAjd3RwdAAABhAAAAAUclhZWgAABiQAAAAUZ1hZWgAABjgAAAAUYlhZWgAABkwAAAAUclRSQwAABmAAAAgMYWFyZwAADmwAAAAgdmNndAAADowAAAYSbmRpbgAAFKAAAAY+Y2hhZAAAGuAAAAAsbW1vZAAAGwwAAAAoYlRSQwAABmAAAAgMZ1RSQwAABmAAAAgMYWFiZwAADmwAAAAgYWFnZwAADmwAAAAgZGVzYwAAAAAAAAAIRGlzcGxheQAAAAAAAAAAAAAAAAAAAAAAAAAAAAAAAAAAAAAAAAAAAAAAAAAAAAAAAAAAAAAAAAAAAAAAAAAAAAAAAAAAAAAAAAAAAAAAAAAAAAAAAAAAAG1sdWMAAAAAAAAAIwAAAAxockhSAAAAFAAAAbRrb0tSAAAADAAAAchuYk5PAAAAEgAAAdRpZAAAAAAAEgAAAeZodUhVAAAAFAAAAfhjc0NaAAAAFgAAAgxkYURLAAAAHAAAAiJubE5MAAAAFgAAAj5maUZJAAAAEAAAAlRpdElUAAAAFAAAAmRyb1JPAAAAEgAAAnhlc0VTAAAAEgAAAnhhcgAAAAAAFAAAAop1a1VBAAAAHAAAAp5oZUlMAAAAFgAAArp6aFRXAAAADAAAAtB2aVZOAAAADgAAAtxza1NLAAAAFgAAAup6aENOAAAADAAAAtBydVJVAAAAJAAAAwBmckZSAAAAFgAAAyRtcwAAAAAAEgAAAzpoaUlOAAAAEgAAA0x0aFRIAAAADAAAA15jYUVTAAAAGAAAA2plc1hMAAAAEgAAAnhkZURFAAAAEAAAA4JlblVTAAAAEgAAA5JwdEJSAAAAGAAAA6RwbFBMAAAAEgAAA7xlbEdSAAAAIgAAA85zdlNFAAAAEAAAA/B0clRSAAAAFAAABABwdFBUAAAAFgAABBRqYUpQAAAADAAABCoATABDAEQAIAB1ACAAYgBvAGoAac7st+wAIABMAEMARABGAGEAcgBnAGUALQBMAEMARABMAEMARAAgAFcAYQByAG4AYQBTAHoA7QBuAGUAcwAgAEwAQwBEAEIAYQByAGUAdgBuAP0AIABMAEMARABMAEMARAAtAGYAYQByAHYAZQBzAGsA5gByAG0ASwBsAGUAdQByAGUAbgAtAEwAQwBEAFYA5AByAGkALQBMAEMARABMAEMARAAgAGMAbwBsAG8AcgBpAEwAQwBEACAAYwBvAGwAbwByIA8ATABDAEQAIAZFBkQGSAZGBikEGgQ+BDsETAQ+BEAEPgQyBDgEOQAgAEwAQwBEIA8ATABDAEQAIAXmBdEF4gXVBeAF2V9pgnIAIABMAEMARABMAEMARAAgAE0A4AB1AEYAYQByAGUAYgBuAP0AIABMAEMARAQmBDIENQRCBD0EPgQ5ACAEFgQaAC0ENAQ4BEEEPwQ7BDUEOQBMAEMARAAgAGMAbwB1AGwAZQB1AHIAVwBhAHIAbgBhACAATABDAEQJMAkCCRcJQAkoACAATABDAEQATABDAEQAIA4qDjUATABDAEQAIABlAG4AIABjAG8AbABvAHIARgBhAHIAYgAtAEwAQwBEAEMAbwBsAG8AcgAgAEwAQwBEAEwAQwBEACAAQwBvAGwAbwByAGkAZABvAEsAbwBsAG8AcgAgAEwAQwBEA4gDswPHA8EDyQO8A7cAIAO/A7gDzAO9A7cAIABMAEMARABGAOQAcgBnAC0ATABDAEQAUgBlAG4AawBsAGkAIABMAEMARABMAEMARAAgAGEAIABDAG8AcgBlAHMwqzDpMPwATABDAEQAAHRleHQAAAAAQ29weXJpZ2h0IEFwcGxlIEluYy4sIDIwMjIAAFhZWiAAAAAAAADzUgABAAAAARbPWFlaIAAAAAAAAGFsAAA4MgAACkJYWVogAAAAAAAAbxwAAK6VAAAWmVhZWiAAAAAAAAAmTgAAGTkAALJSY3VydgAAAAAAAAQAAAAABQAKAA8AFAAZAB4AIwAoAC0AMgA2ADsAQABFAEoATwBUAFkAXgBjAGgAbQByAHcAfACBAIYAiwCQAJUAmgCfAKMAqACtALIAtwC8AMEAxgDLANAA1QDbAOAA5QDrAPAA9gD7AQEBBwENARMBGQEfASUBKwEyATgBPgFFAUwBUgFZAWABZwFuAXUBfAGDAYsBkgGaAaEBqQGxAbkBwQHJAdEB2QHhAekB8gH6AgMCDAIUAh0CJgIvAjgCQQJLAlQCXQJnAnECegKEAo4CmAKiAqwCtgLBAssC1QLgAusC9QMAAwsDFgMhAy0DOANDA08DWgNmA3IDfgOKA5YDogOuA7oDxwPTA+AD7AP5BAYEEwQgBC0EOwRIBFUEYwRxBH4EjASaBKgEtgTEBNME4QTwBP4FDQUcBSsFOgVJBVgFZwV3BYYFlgWmBbUFxQXVBeUF9gYGBhYGJwY3BkgGWQZqBnsGjAadBq8GwAbRBuMG9QcHBxkHKwc9B08HYQd0B4YHmQesB78H0gflB/gICwgfCDIIRghaCG4IggiWCKoIvgjSCOcI+wkQCSUJOglPCWQJeQmPCaQJugnPCeUJ+woRCicKPQpUCmoKgQqYCq4KxQrcCvMLCwsiCzkLUQtpC4ALmAuwC8gL4Qv5DBIMKgxDDFwMdQyODKcMwAzZDPMNDQ0mDUANWg10DY4NqQ3DDd4N+A4TDi4OSQ5kDn8Omw62DtIO7g8JDyUPQQ9eD3oPlg+zD88P7BAJECYQQxBhEH4QmxC5ENcQ9RETETERTxFtEYwRqhHJEegSBxImEkUSZBKEEqMSwxLjEwMTIxNDE2MTgxOkE8UT5RQGFCcUSRRqFIsUrRTOFPAVEhU0FVYVeBWbFb0V4BYDFiYWSRZsFo8WshbWFvoXHRdBF2UXiReuF9IX9xgbGEAYZRiKGK8Y1Rj6GSAZRRlrGZEZtxndGgQaKhpRGncanhrFGuwbFBs7G2MbihuyG9ocAhwqHFIcexyjHMwc9R0eHUcdcB2ZHcMd7B4WHkAeah6UHr4e6R8THz4faR+UH78f6iAVIEEgbCCYIMQg8CEcIUghdSGhIc4h+yInIlUigiKvIt0jCiM4I2YjlCPCI/AkHyRNJHwkqyTaJQklOCVoJZclxyX3JicmVyaHJrcm6CcYJ0kneierJ9woDSg/KHEooijUKQYpOClrKZ0p0CoCKjUqaCqbKs8rAis2K2krnSvRLAUsOSxuLKIs1y0MLUEtdi2rLeEuFi5MLoIuty7uLyQvWi+RL8cv/jA1MGwwpDDbMRIxSjGCMbox8jIqMmMymzLUMw0zRjN/M7gz8TQrNGU0njTYNRM1TTWHNcI1/TY3NnI2rjbpNyQ3YDecN9c4FDhQOIw4yDkFOUI5fzm8Ofk6Njp0OrI67zstO2s7qjvoPCc8ZTykPOM9Ij1hPaE94D4gPmA+oD7gPyE/YT+iP+JAI0BkQKZA50EpQWpBrEHuQjBCckK1QvdDOkN9Q8BEA0RHRIpEzkUSRVVFmkXeRiJGZ0arRvBHNUd7R8BIBUhLSJFI10kdSWNJqUnwSjdKfUrESwxLU0uaS+JMKkxyTLpNAk1KTZNN3E4lTm5Ot08AT0lPk0/dUCdQcVC7UQZRUFGbUeZSMVJ8UsdTE1NfU6pT9lRCVI9U21UoVXVVwlYPVlxWqVb3V0RXklfgWC9YfVjLWRpZaVm4WgdaVlqmWvVbRVuVW+VcNVyGXNZdJ114XcleGl5sXr1fD19hX7NgBWBXYKpg/GFPYaJh9WJJYpxi8GNDY5dj62RAZJRk6WU9ZZJl52Y9ZpJm6Gc9Z5Nn6Wg/aJZo7GlDaZpp8WpIap9q92tPa6dr/2xXbK9tCG1gbbluEm5rbsRvHm94b9FwK3CGcOBxOnGVcfByS3KmcwFzXXO4dBR0cHTMdSh1hXXhdj52m3b4d1Z3s3gReG54zHkqeYl553pGeqV7BHtje8J8IXyBfOF9QX2hfgF+Yn7CfyN/hH/lgEeAqIEKgWuBzYIwgpKC9INXg7qEHYSAhOOFR4Wrhg6GcobXhzuHn4gEiGmIzokziZmJ/opkisqLMIuWi/yMY4zKjTGNmI3/jmaOzo82j56QBpBukNaRP5GokhGSepLjk02TtpQglIqU9JVflcmWNJaflwqXdZfgmEyYuJkkmZCZ/JpomtWbQpuvnByciZz3nWSd0p5Anq6fHZ+Ln/qgaaDYoUehtqImopajBqN2o+akVqTHpTilqaYapoum/adup+CoUqjEqTepqaocqo+rAqt1q+msXKzQrUStuK4trqGvFq+LsACwdbDqsWCx1rJLssKzOLOutCW0nLUTtYq2AbZ5tvC3aLfguFm40blKucK6O7q1uy67p7whvJu9Fb2Pvgq+hL7/v3q/9cBwwOzBZ8Hjwl/C28NYw9TEUcTOxUvFyMZGxsPHQce/yD3IvMk6ybnKOMq3yzbLtsw1zLXNNc21zjbOts83z7jQOdC60TzRvtI/0sHTRNPG1EnUy9VO1dHWVdbY11zX4Nhk2OjZbNnx2nba+9uA3AXcit0Q3ZbeHN6i3ynfr+A24L3hROHM4lPi2+Nj4+vkc+T85YTmDeaW5x/nqegy6LzpRunQ6lvq5etw6/vshu0R7ZzuKO6070DvzPBY8OXxcvH/8ozzGfOn9DT0wvVQ9d72bfb794r4Gfio+Tj5x/pX+uf7d/wH/Jj9Kf26/kv+3P9t//9wYXJhAAAAAAADAAAAAmZmAADypwAADVkAABPQAAAKW3ZjZ3QAAAAAAAAAAAADAQAAAgAAAFYBLgHrAsQDgwRTBUAGJwcaCBgJHwo9C04Maw2QDrkP7BEtEmUToxTjFioXeRi/Gg8bVxykHfMfPCCEIc0jESRSJY0myygAKTMqZiuXLMot9y8oMFExgDKrM9U1AjYxN104ijm2OuE8DT04PmA/iUCxQdxDCEQ2RWNGkEe4SN5KAUskTEdNak6PT7RQ2FH4UxZUM1VPVm1XjViuWcta4VvwXPdd+18AYAphGWItY0FkUmVfZmVnYWhTaTxqIGsBa+Bsv22gboNvaHBQcThyIHMIc+901nW+dqh3k3h+eWx6WXtJfD19N342fzmAQYFLgleDZYR0hYWGlIekiLOJwIrMi9aM343nju2P8pD1kfaS9ZP1lPqWBJcVmCyZR5pjm3+cmJ2unr+fy6DUodqi4KPppPSmA6cVqCqpQqpcq3eslK2yrtGv8bERsjOzU7RztZC2qbe6uMG5w7rAu7u8tb2vvqm/o8CdwZXCisN8xGrFU8Y2xxjH+cjgyc/KxsvDzMHNvM6vz5jQc9FD0g3S09Ob1GbVNdYF1tfXqNh22UDaBtrH24DcNdzn3ZHeO97j343gO+Dr4Z/iUuMD46/kVeT55ZTmLOa/51Ln5OiF6S/p5Oqo627sM+z17a/uY+8R77XwUPDm8XzyF/LG84/0bvVh9mb3ivjk+sX9Lv//AAAAVgEjAbACagMyA+gEsQWABlgHPQgtCScKJwsiDDANOg5RD2MQfhGfEr4T6RUQFjgXYRiIGbQa3hwLHTMeWx+AIKEhvyLbI/UlCyYfJzUoSSlgKnkrkyyxLcwu6DAEMSEyPDNaNHQ1izakN7k4zTniOvQ8Bj0bPjE/TUBsQY9CsEPQRO1GCEcdSDJJRUpVS2NMbk14Tn5Pg1CFUYZSiFOKVIxVilaEV3lYaFlUWkRbP1xGXVped1+VYLBhwmLKY8VktWWcZntnV2gwaQxp7GrQa7psqW2bbo9vgnBycVxyQHMfc/t01XWtdoZ3YnhFeTB6JHsdfBl9FX4QfwZ/9oDigcqCsYOVhHeFXYZKh0SITIlhioGLpYzGjd6O7o/1kPeR9ZLzk/CU7ZXslu6X+JkQmjmbbpymnc6e45/poOWh36LZo9GkyKW+prynyqjtqiGrXaycrdmvFLBOsYiywrP5tS62ZLebuNK6Bbs0vF+9hb6mv7zAvsGqwpDDfcR3xYDGj8edyKPJnsqOy3XMU80tzgTO2s+y0IvRatJR00XURdVR1mLXddiE2Yfafdtm3EPdGt3s3rnfh+BY4S3iCOLm48PkneVx5kDnDOfU6KPpf+pp62TsaO1t7nDvcPBw8XLydvN59Hf1afZH9w/3s/hF+Mv5Wvnt+tD8DP3a//8AAAArAMQBSwHYAmUDBgOPBCsEzwV6Bi8G6QelCGgJLwn5CsoLnwx3DVIOMg8OD/YQ2RHAEqkTkxR9FWcWUhc9GCkZFRn8Gugb0hy+Ha4eox+bIJYhlCKPI4YkdiVhJkUnICf4KMwpnypzK0gsIS0CLeku1y/IMLoxqjKYM4A0YDU5NgY2zzeVOFg5GTnZOp07ZDwyPQY93j62P49AaEFEQiZDEEQARPNF50bWR7tIlkllSiVK4EuYTE9NB03DToNPSVAYUOpRvlKTU2hUO1UNVd5WrVd8WEpZFVnfWqhbb1w1XPldvV6AX0NgCGDRYZxia2M8ZAxk2mWnZnFnOGf8aL9pgGpAawBrwGyBbUNuBG7Fb4VwQXD4catyWXMBc6l0T3T0dZh2PHbed4B4HXi9eWB6Fnrae6t8g31Yfih+9n/DgJOBZ4JEgyqEGIULhgCG9IfjiM2Jr4qMi2GMNI0HjdqOsI+KkGuRR5ISksaTW5PslHqVQZZCl4iZCJqKm+SdGZ4ynzmgOaE1oi+jKKQhpRmmEacKqAmpD6ohqz2sYK2Hrq2v07D8siizWrSStdG3FLhZuZy617wFvSm+R79iwH/BnsK+w9/E/8Yhx0PIZ8mMyrHL1sz9zinPW9CX0d7TMtSN1e7XU9i52iHbld0v3w7hd+SL6HntTvL2+VH//wAAbmRpbgAAAAAAAAY2AACTlQAAVo0AAFbpAACRtwAAJrsAABcKAABQDQAAVDkAAoeuAAJHrgABa4UAAwEAAAIAAAABAAQACAAPABYAHwApADQAQABMAFoAaQB4AIkAmgCsAL4A0gDmAPwBEgEpAUABWQFzAY0BqQHFAeMCAQIhAkICZAKHAqwC0gL6AyMDTQN6A6gD1wQIBDoEbQSjBNkFEgVLBYYFwwYBBkAGgAbCBwUHSgeQB9gIIQhsCLkJBwlXCagJ+gpNCqEK9wtOC6gMBAxiDMMNJQ2JDe4OVA68DyUPkRAAEHEQ5BFZEc8SRhK9EzgTthQ6FMMVUhXjFnUXBheWGCYYuBlOGegaiBsxG+Mcnx1iHise+B/GIJUhZCI0IwYj2ySzJY8mbCdLKCspDSnwKtUruyyeLX4uXC85MBQw8DHNMqoziTRoNUo2LjcVN/847TneOtI7yjzFPcQ+xz/OQNpB6EL2RABFBkYIRwhICEkJSgxLFEwhTTROTk9uUJRRvFLlVA1VNFZZV31YoFnEWudcC10wXlZffGCkYc5i+GQkZVNmhWe8aPpqQ2uZbPluY2/ScUZyvHQ0da93LXixejx70H1vfxyA1oKUhEyF9oeUiSyKxYxljhWP35HNk92V/5ggmjmcTJ5foHmioKTapy2poKwwruCxobRetwu5rrxdvyvCH8VGyKLMDM8o0fbUkdco2dHcnt+X4tLmYOn57RLvrPIA9DD2Off/+Yr6uPvU/Lv9o/5w/zf//wAAAAEABQAKABIAGwAmADIAPwBNAFwAbQB+AJEApAC5AM8A5QD9ARYBLwFKAWYBgwGiAcEB4gIEAicCTAJyApoCwwLvAxwDSwN8A68D5AQaBFIEiwTFBQEFPQV7BbsF/AY/BoMGyQcQB1kHpQfyCEEIkwjmCTsJkwnsCkYKoQr8C1gLtAwSDHIM1A05DaAOCw54DucPWQ/OEEYQwBE+Eb8SQxLKE1MT3RRqFPoVjxYqFssXcRgWGLYZURnmGnkbDRukHEAc5B2RHkofDh/dILMhjiJpI0IkGCTrJb0mkCdmKEIpJSoSKwgsBS0ILg4vEjARMQgx+TLoM9c0yjXBNsE3yjjbOfI7DjwwPVE+aT90QHJBaEJYQ0dEOUU0RjhHR0hfSX5KoUvHTPBOG09FUGtRhlKUU5dUlVWUVqBXv1jxWjVbgFzNXh5fdGDPYiNjZmSVZbVmzmfkaPtqFmszbFRtdm6ab8Bw6nIXc0Z0dnWndtp4EHlNeo972H0mfn1/44FngxCEyoZ0iAaJh4sEjIiOG4/DkYKTWJVDlzuZO5s7nTmfKaEEosakdqYbp72pYqsVrN2uxbDPsvW1Mbd8ucu8D75EwHLCpsTpx0LJsswxzpzQ3dL01PHW59jj2ujc9N8B4QrjFOUk50jpluw374rzpvds+c77hPzD/fT++f//AAAAAgAIABEAHgAtAD4AUQBmAH0AlgCwAMwA6gEJASsBTQFyAZgBwAHqAhYCRAJ0AqYC2gMRA0kDhAPAA/0EOwR6BLoE/AVBBYoF1wYpBoEG3Qc+B6IICAhvCNQJOQmdCgIKagrVC0QLuww5DMENUA3mDoIPIQ/AEFwQ9hGQEi0SzRNuFA0UqBVCFdwWeRceF84YjhliGkIbKhwUHPsd3R64H5IgbSFMIjAjGCQGJPkl8SbvJ/Mo/SoOKyQsQC1gLoAvnTC4MdMy8zQaNUk2gjfDOQw6XDuwPQc+YD++QSJCk0QWRa5HWkkRStFMmk5vUFVSMlPaVVpWzFhIWdNbZlz4XoNgAWFwYtVkN2WcZwlogWoKa6NtTW8AcLdyb3QedcN3dXlke+5+pIB5gdaC/IQChQiGEIcziHOJ1ItVjOmOiJAukdmTiJU7lvGYqZpenAqdp583oL2iP6PApUSmyqhQqdSrVKzQrkavubEospe0CLV9tvy4ibomu9C9gr82wOnCnMRPxgTHu8lzyyvM5M6e0FjSFNPS1Y/XStj/2qzcT93o33Xg/eKC5APlgucC6IPqBOt/7O7uRu958J3xjfJ180Tz9/Sq9U712/Zo9vb3dvfp+Fz4z/lD+av6Dfpw+tL7NfuY+/H8Sfyi/Pv9VP2t/gP+WP6s/wH/Vf+q//8AAHNmMzIAAAAAAAEMQgAABd7///MmAAAHkgAA/ZH///ui///9owAAA9wAAMBsbW1vZAAAAAAAAAYQAACc3wAAAADKKtsgAAAAAAAAAAAAAAAAAAAAAP/AABEIAWwDdwMBIgACEQEDEQH/xAAfAAABBQEBAQEBAQAAAAAAAAAAAQIDBAUGBwgJCgv/xAC1EAACAQMDAgQDBQUEBAAAAX0BAgMABBEFEiExQQYTUWEHInEUMoGRoQgjQrHBFVLR8CQzYnKCCQoWFxgZGiUmJygpKjQ1Njc4OTpDREVGR0hJSlNUVVZXWFlaY2RlZmdoaWpzdHV2d3h5eoOEhYaHiImKkpOUlZaXmJmaoqOkpaanqKmqsrO0tba3uLm6wsPExcbHyMnK0tPU1dbX2Nna4eLj5OXm5+jp6vHy8/T19vf4+fr/xAAfAQADAQEBAQEBAQEBAAAAAAAAAQIDBAUGBwgJCgv/xAC1EQACAQIEBAMEBwUEBAABAncAAQIDEQQFITEGEkFRB2FxEyIygQgUQpGhscEJIzNS8BVictEKFiQ04SXxFxgZGiYnKCkqNTY3ODk6Q0RFRkdISUpTVFVWV1hZWmNkZWZnaGlqc3R1dnd4eXqCg4SFhoeIiYqSk5SVlpeYmZqio6Slpqeoqaqys7S1tre4ubrCw8TFxsfIycrS09TV1tfY2dri4+Tl5ufo6ery8/T19vf4+fr/2wBDAAEBAQEBAQIBAQIDAgICAwQDAwMDBAUEBAQEBAUGBQUFBQUFBgYGBgYGBgYHBwcHBwcICAgICAkJCQkJCQkJCQn/2wBDAQEBAQICAgQCAgQJBgUGCQkJCQkJCQkJCQkJCQkJCQkJCQkJCQkJCQkJCQkJCQkJCQkJCQkJCQkJCQkJCQkJCQn/3QAEADj/2gAMAwEAAhEDEQA/AP7vLCBoIJWEu8yPuwxXI4A42gelZXn3czt9nWVCVy3y56HbwDxWs11bPLmA4xzyvGf0P61gXmqT2vlGIoIshJ2/e/KC+4nIOFwpzzmsZ4iKdmd6VjXuNPkuiHnypGSMHB5GBxVTUbe6GnGEMxClTzgdGB7kCvgPV/8AgqV/wT3s702F58Z/B0N1C2ySJtbtQyuJViO/LgoCSV55U8ngVxvij/gr3/wTX0nRbi8/4XX4MbyYZpW26wk+BApdzth3sQApzt3H+6rNhTn7WmWsNLfkZ+mEsN3coks8QZUkLANtP8YbsTVOdGhjIRVkB3/u8KRliT90sDxX5zt/wVo/4J6w6VJNc/GXwtEIPNLOupJhTG8yNw+CVXySxwckBscFGarcf8Fd/wDgm/F+5/4XP4aDuiBQl2z/AOsAbcWhbupyMcjIBrKpWppaFujVeigfphZo4sohIIgQi5wmO31NRNDbxeXgY5LFlbb9OfrX5c2X/BYz/gnFFp1jLP8AFzQvLuWigBMk2d8qQuoJMZ5KyZy2F/vOpyAX3/BX7/gnM8UG/wCMHh8B1jk/czGRSHDuoGMtlkjdxlBgI24KSm4pTpy3dhxwtT7SsfqVcNczHfI4jBGB8p5/Edant7mNYAhbcM4PB9B61+VOrf8ABZf/AIJsaMhub34xaKihl24e6IZGC44WHg5PYH6VoWf/AAWT/wCCb93K0Vt8YNDZwgLBmuMLuJC8mLJxg54B5HFTUr04u17mNShUTsj9SIUtop2li2gk9QcGq7alaT3gdnAO3tn/AAr8sbT/AILHf8E4BM003xh0oJuCgpFcyAnocYg6Z6VQm/4LRf8ABNy1kS4l+J8eyRPMTGm6q+EyFw2LT725l/AHihY2O1y/qLZ+ss8rfKFBkUkE8Dp+NVLrUNPe5DFdrM5ZmBO0FVAx7HA9K/Kpv+Cz3/BNfViotvirE6xZdsaVqYChOCTvtR3IHHPPpmmz/wDBZn/gmh9qE0vxNgJTcmBpeqMwIQOc5td3IYY2jH1Oar6zH/n4hfUGfremoaY0QlhZSpXcMH/GrQvUlttyt8ozkkDAH86/IqT/AILPf8E2LjyCnxSji86LIVtJ1QkjtjdaAg46579OKcf+Cy//AATctSllF8UEacSKpRdH1Mbw+NoXbaN83zoOvUNyOx9Zj/OjKeCktj9YbbULETPMky7m9j/hWnHdxXIMcUoB9cYr8dR/wW8/4Jm2z7Y/icX3Mq710bXGQl8sFBWwOSFALHoMj1rpNO/4LN/8E2PEl+ulaf8AEjzbmM/MDpGsEDKs2Pn08YyFJ79PpR9Zj/z8Rn9VkfrS96tnAZ5ZU+UhWLHuenQGoUuIJt37xdzsw4z1z2r8iNY/4Lpf8ErtAkh0/WvinHaebtZPP0XW44pBuQZDmwCjBdASCwBPIzxWVYf8HBn/AASBuLZHf4zWSMxycaZrJALe5sRkD6CqTv1KVFbM/ZS3mjtpgjOWbsPWpr/U0glETxqf3bPlm2/dKjHQ5zur8c3/AOC+/wDwR9VDct8ZrJtv8Q0vV+Pw+xE1Uuf+Dgn/AII87JruT4z2RSKMsT/ZWsghQQSP+PHknAxV8ltVK5NSCS0P2WWWBpTCjAt6jGPp9agur7ytkEoEZJ25BOcj6Cvx2j/4L3f8EiZZTcyfGi2kjRcZOlaqy5J3ZGbDPRqf/wARBn/BHljCj/Ge0OCcf8SrWewfsLLH8NV7RnMfskt6k2nJcSEAN3Panx3RCblZHXHQGvxqm/4L7/8ABIW+t/s1r8ZLLYccrpOsAcHPeyptt/wX7/4JDrbME+MFq2x9mBpOsZ6HrtsScU7t681gP2Kg1Br2VWhQAdKuXTyQ/vJU/LGK/GdP+C/3/BIeE7V+LMYA28x6Dr0nU/3l0/GfaopP+C//APwSBv8AzEf4sGUxHBz4e1/n6E6fUSXmB+0DTxqQoOSarWN757OI127Tzls5r8bY/wDg4D/4JFr8sfxXdmPT/inPEB5/8F9XY/8Agvr/AMEnol8xfiXcuD/zy8M+I2P5LphNJU4p35wP2Qlcsyq6569KptcyGREjCqAecnmvx7P/AAX/AP8Agk1E4a6+J93CD087wv4kiB9cF9NGfwqv/wAP+P8AgkjJcqU+KEr7j8rf8I54i2/99DTCKuThNWUwP2Vln8phvQ/Meoxjn8f6VFcyFoHVDgkcc4/Wvxyn/wCC93/BItj50nxSJkRsBf8AhH9fzuB/7B2evtn2p8f/AAX1/wCCUFwwij+JN3KT2j8M+I5P0Gl80owS2mb0oJrU/YfSpZFtNsh5Cqv3s8gY/WoEvI5JGDyguh2kHgg+lfkD/wAP9f8AglFFK9uvxE1DcuCwHhPxOBz0/wCYXUMX/BeH/glVM7C08e6m7sc7h4S8THJ75P8AZXWuzDUJSe9yvq7eqP2Pu0kaJXjYrkfwmmQBzbKLkMfqcmvx8f8A4Lw/8EuophC3jvVHGVHy+E/FDHkeg0sYq3/w/h/4JjSxOo8bazI0P3kPhHxR3OO2knPJ7CreErX+EmWGkldn65RXTuxjCEKOmcf41ZDE446nFfkDYf8ABcr/AIJrLOfN8X6qgbJBXwj4pHHvu0hf51NN/wAF4f8AglrDc+RcePtVV0+bB8JeKB/7iTSqYeaWhnTV2frvvG4KVByfUVDfebsLKBjHBz3r8gl/4Lp/8Er7uRJl8dao5kJwT4R8TdjjnOk5p1z/AMF7P+CUsMgguPiFqW7cFVf+ET8Tnkn20uuZxmmovqb+zj2P11gkmltdrfNzjAOTTrOYNGSVI5xz/k1+Rrf8F2P+CXQUND461Agn+Pwr4mQdPU6V+lUtK/4Lvf8ABLu682K18dajlMlvL8K+Jn+mcaUK6o4SotJDVJH63h7w6s4jY7OMKWAHQdsVoXjC2Q3M/RfmIHPTnjpX5CP/AMF2/wDgl7E7PL431gyAgH/ikPE46j30qrd3/wAF0f8AgmS0K48a6xKHDYUeEfE+enygD+yjz+Brb2NTYHTXY/XFLgXUDSIrBc4ycDtmktkkjK+a248496/JWL/guB/wTgFvuufFOshXO5QPCHikHp3xpFSQ/wDBcD/gm0gMk3i7WolyqqT4S8T8bv8Ae0pePXGazeGmuhmoc2ijY/XeN/ODJGcev1rOtJpPPkRuQGI/Wvyak/4Lt/8ABL6yd7aXxzqyt0OPCXifn3/5BZqpYf8ABdr/AIJeyTfuPHWr4LEEt4R8T9R7/wBlUlQm942JqUZR1Z+uUl8tvN5bo3Aznjvx6067N3KiLEpjOc5JA4xX5GH/AILj/wDBLq7ufLPjPVpMoSf+KR8TbflIx/zCs0x/+C5f/BMtkBsvGWrXEuB8qeEPFGQM8njSjwKFhphToylqj9gY2kWMGVt3rShnlkEkYAA7GvyKj/4Llf8ABNTDJceNdYi5+UP4R8Tg4wOf+QUOM1Yi/wCC43/BNsEC38YazIhGQw8JeKMHn20k0OjP+U29kktUfqpepdMyqsrKMpnaBg7TzV51aCAzBS5/WvybuP8AguR/wTgt0WWTxVrZDcA/8If4q49z/wASnpTx/wAFu/8AgnVf27La+JvEFw2OBF4L8VyDPqcaQxx74p/VpGMlp8Nj9YYVuZ4SzFo9w4BqeUMsSqxyQMZ/CvyXP/Bbf/gnlp8RW61/xPHswML4G8XHOe//ACCBSv8A8Fvf+CdMlv5reJfEuOuB4I8W7vxX+ycilLDS7XMj9WoJLho/KEbdevGP50ht5TemYggli3tyMV+T1t/wW0/4J6xlQ+teJy7BWG3wN4vPU4/6Av8AX8a0Ln/gth+wRBA96mqeMHVHMZx4B8XsMryTxpPTHSiFC3xRsB+qV/Fckq0Zzn0/CrItzNAFmALKc4PB6V+T15/wWj/YIuPu6r4t3AqQp8B+LySGHT/kD8Gnx/8ABZ/9hF1MsGoeMhtbZ8vgHxZg8e+kL/Ospxs7Fqo0rH6s2ds1lbfZ3+ZkXaCOwAxVOJL5JC/Iz6jivy3t/wDgs7+w1Nb/ALi88Zy7Agdv+EC8WDlx0/5BfX1xn8ahf/gst+xeJ0W3n8abXG8FvAfjEkKQSAR/Y55+Vs/UVJSqu5+p7WM1xLvdsjHKkYBq1BbS26GMtkZyB6D0HtX5Yz/8Fkv2MiIzbHx5J5m3BHgHxZ1bp10oH68U0f8ABZj9iiGJTdt45hZhu/feAPF6nAJXoNIbuDjmg0q7H6n30FzcW3lnp2xVtIJVjeXGWI5x/QV+T9x/wWg/YiS3a4E/jiVFQyKkXgDxfuKr1xnSMZ9Kng/4LPfsUyQ7jN42KAldy+APGJ3beWZT/Y/yqf4Cfv8AbFBhGTWx+pNjHOqnzlOQ2R2FEmmXEzyTNgbjn3U+o96/LR/+CxH7GNqWa6uvGfljkEeA/GOSRg450cjkMPxB5q3cf8FkP2MfOjsw3jpmfOCPAHi4DAGTz/ZJ7fTmgv2rP1De2ujAucfhTkEzoVYMBjBJHFflyv8AwWK/Yvla3sIZvGwkuQpjL+AvFwBMhfGf+JRxjYd34VWH/BZb9isWm1pvHDu64GzwD4wcKSO//EnHT2NAe2Z+pllYurtJG5z7ACkuLS8E8bqFxznrk1+XC/8ABZz9iUMY4P8AhOcR4yw8A+LjwSy4P/Eo4OV6Gm3H/BZb9ixf3sk/jVVXsfAPi/cc+gGjnNBUKjbsfqo8Lk5ZBmnPuji3ELgcdDX5Rw/8Fn/2JJW2mbxyxH3iPh/4wVVHuW0ippf+C0/7CRQwnUvGA7c+A/F+fx/4k9RNLtcuc2kfqvslaNXA24Gc9ap6dZlDJOzEljwMYr8qF/4LWfsFJH5Euq+MGfsF8B+Lz/PSKsW//Bav9g0TvG2oeMAPOeIE+AvF4A2BTyf7IP8AerejFNXtY55Sb3P1BZtSGobWRmjI+8o4HPTrnP4Vdnt3kcMr4A9q/KS6/wCC1H7Akd79obWPEwUfJ/yI3i/dkc9Ro/TmrT/8Fq/+CfyFQ+s+LGLtgFfAni8jH1OkZq5R1+E6IU421P1VdzGpMg21StZHa8Dbty+mMV+V8P8AwWy/YBkjZ7vVfFakBThvAni/Pze/9j4prf8ABa3/AIJ/x3Qjk1bxWFxuBTwL4vPPv/xJq5Uqr05TV66M/V66tJZZfMVsD6VZjnA/dctjvX5Pz/8ABa/9gFXfbrHi1tqb2A8CeL8KOfmP/En5HHbmqJ/4Lf8A/BN6F/Nl8SeJ0UgEg+BvF4I49Do/etadKpfa5Cpo/WqYXHnhyvFPlMqqDHjOa/JY/wDBcT/gnVcRB4PEXimQdivgXxdg+wH9kZpk/wDwW6/4J8QRLK2v+JYQzAZl8D+L17ZwAdIHP41nXozv8BaP1qae4ZNmdv0qKKKWMrIpJIOea/KEf8Fu/wDgnqImmGueKZFTGdngXxfzn0xpDVW/4fff8E+3l/5C/i1E7MfAnjAj/wBM9Z6rRwIcE3do/XCV59wEZA3Hn8akMLeWfNHTvX5JP/wW0/YA8n7UuteKyqnjHgPxhk49P+JPVqP/AILY/sFzoFj1TxhMzgkIvgLxhngZ/wCgP7UXW/KzB1Xsfq5GoKl16dxWZbxXMbNGzbstkew9K/LuH/gs9+wy8G5bjxoodeM+AfGGQff/AIk/SoLL/gtB+w40Yu2ufGTI43rt8A+MdwU8AHOj/eyDn2x+OjlzaOJdOo27H6seTc+v+fyqjPFeGYbjJszyMV+Xo/4LN/sSS3Cxxy+OBubGf+EA8X4+/t4/4lHpVc/8Fmf2ImYF5/HDc9F8A+Mv/lPSvy7Rubn6um2MyeUQ2CuDnikW1eAJEgyq1+VF7/wWj/Yls4maP/hO3aNWJC+APGHJVS/G7SQMYXHrnFWY/wDgst+xU8xs528dLOo5/wCKB8W7enXjSTxRZS1asK7P1EsoLiEPHMVZiSc89zx+QqxcbrpDEo2lhjP1r8qD/wAFm/2HbedILi/8YiVyRg+AfFwzt5OM6WCOMAZ757VXuP8Agth+wrE4RZPHDA+ngDxh/XRwPzNL2cewNn6weXKmPMI3gY4Pb6VNFFIxJnyB2APX61+U5/4LM/sKk5iufGZIHI/4QLxcW56fd0luPXj8ahX/AILR/sRxwzXHm+OJhGAcL4A8X55OO+jinypapGMopK6P1SlsWRJHjBOegTk/lUlpHd/ZfJYdsnd1z15r8qJP+C1n7CSXL2d1d+N7Vuo8zwD4vUEZ2gAjSQc5557Vai/4LM/sMQRMJNR8Ys6kqdngTxaQSODjOk5Ptk1SnfpYj2rP05l0ueW5EjT7QD9wDANak0dxtUq6gJ65r8pY/wDgtF+w6dSbS/O8ayzIGJZfAPiwg7HCMR/xK+nzZ+gNWU/4LP8A7D8u7ybjxttU7cjwB4xHI69NHNMPas/VYidkALA59P8A9VQRWaISzqCTX5dRf8Fk/wBiqcHyW8bSlVJ/5EXxYh4/66aSD+lWYv8AgsH+x60LXE1p48RBJsB/4QPxUc/c5GNM5HzVzyqSvoHtWfpy9rcrIZvNGKtN5crApwR1r8tZf+Cwn7F9tJG0h8dgSZwv/Cv/ABaT0/7BeKSX/gsh+xbEPLVfHckh6Z8BeK0XJOBy2ljuR3roD2rP1S8mSXlBwOKJYHEQBOD/APXr4y/Za/b7/Zz/AGw9f8Q+FPgfqOpS6p4TSzk1ay1PSNR0me3XUPMa1Jj1C3t2YSrE2GAK5HXggfaKmR4lEx+bv7H06np060B7aRmWdnH5eyT5jVv7Fb+lOjHl/dqTzG/z/wDqoE6jP//Q/vBzCXlWNTgNgc5AGBWJqMtrbKIvMZM5DhSNrAjsCeeAM1ruLqEo29EOcYyeR6nFclqtq5T7OLloZCcAkzGPPzHcdjAgYOMghvX5eK5KsVdnZTkrH+bf48v1fxhr0cPyP9rug2xun71iFIHGCR0rzy/vJxBGFkCAFSQ33dykMDjpkEAj3rvfH8u7x1rKErtN5cJuHf8AeMMHH8P0rz9pLwP9mEv7ofvdo3bdx4xk8V8rKbvufcwasiFH+z7ZWDPuGNoztbAxkjoeOOe3HSnReYsn9qx7sIyqOSCSDuAyOeO1NlmAAuI2MbnOSB1rPluEv5FiXK85LNxyKXMzRPsaUl95891qaApFMrqUycIjHcR16EgEis9/P3yXH3zIQWcnks5UsxPclVHXrgVPbyxz70U7JgxyT/e9fzp0ZTLeYcBjgn1buam5LalvqLFqc7MVa5aZY2ymQRtOAOD9AOlWIbqQnakm0HPY5Ynrk9T+NVXjurSXfbD5j/KpTucCTO/IySB0p3IcILVoe28SmR0YOcZ2jHTpTvMLMSQq7mDHaOcj0H41UhdGbKsDk46jOadJ8o8zqR95370uYV4eQ6eJPIDQxoY9/QgE7mIyfxqKKbyZWN5hZlON2Bu46DP0pJJZrmPzRwBxn1FVvsqSB2EY3FcAn1pWQqsFbRF2RLu/Ju71HZVGA2zgHspc+vX2pY1uobJmtgqtgkYPfk/1NRW8TwPvOAcDJTk9Kl+0wqgmkULGcfMTgcnAH1PYdTTUTOjTTvdGgdTuL6/nnvFTfIwIWNQgACqi4VAAMKoHAqcNBFuaKQRyEYds4Yg9BnrVOK8liBNq3DDaR7VPJtluAsS5IA5/nSSRt7KHY/e7/g3p+0Tftn6/b3Ibyl8EXpRBJlDu1PTgzeWFIBwBznt2zX9nsMcaQpGg+XAAGMcfTtX8YP8Awb23flftza/FKVz/AMIJe8ng/wDITsK/tAiJMaE+1fUZbG8Vc+QzZWr2RIIIgcgYpphhXgkjPuanoruVOK6HluTZGiIB8pJ/E1EbZd24dunP1/xNWaKqyENKA9c/n/8AXpohjViwHJ681JRScIvdAQvbxyfeH+RSLbW6rtCDHXpU9FNRQEflRHjaP8/hTTbW56oPyqaipdKPYCMRRjgDFN8iLuM/XNTUUlRgtkBEIYR/CKbIihDjj6VPRT9nHsO5meWh5IqNra3dg7opI6EjmteitIuyshqb7mMtlaI25I1B9QBU8dvAz4ZAc+1aVFV7SXcbqS7kSwQocooB9qabW2Y5ZFJ+lT0UuZkplU2VmeTEv5CnywxPGyuuQR0PNT0Umx8zMpIIY/8AVqF+nH8qfsUnJGcVpUU+d9w533MsxRHqoNOWKIsAVBya0qKOd9w533KzWlq33oxSNaQEYVQKtUUc77j9pLuU1sbUfejU/hUP2NUJEYAGc4ArSop+0l3E5N7mYI0ByAAcY/CpYoombDKDgVeopc77gpNbFVrWL+EACk+w2pO50BbpmrdFHO+4c77lZ7aDacoOlQR28DnY6gjHQ9K0KKOd9wc292QJbW8ediAZ64GM0n2W23FvLXJ6nHNWKKOd9ySv9ktSdxjXOMdO1KLaAfdXH04/lU9FDm+4DBGqkkDrzSGKNshhnPPPNSUVIEC2tui7EQKPQcDjp0p3kx5LY5PP+fyqWigCutpbK/mLGob1xzTnt4XOXUH681NRQO5ALa3ByEAPXp6Uq20CfdQDp0/2en5dqmooERrFGmdo69f8/jTRbwDgKBznipqKAI2hiYhmUZHQ4oEUarsUYHoOKkooAri1tlZmVFBY5OB1Pv8AnSi2tw28IM+tT0UAQm3gbO5Ac9c805Yo1UKowBwAKkoouNtkZhjPUfqf8ajFrCpJQFSxycHqasUU+ZiK32S3zuZQxPc80CztR/yzXrnpVmiqVSXcpSfcg+zQHOVBz/SlFvAOiipqKXO+4c77kfkxc/KOeDTBbQBSiqAD2qeilzMOZmckabgAOD2qc2NmxBaJCR0yBVqimpvuHO+5CbaA9VB+tJ9ltiMbFx9Knoo533FzMiFvAOAo4pxijI2kZB7U+ilzMRXNpbE52Dpj8KVbW2RtyoATz0qeihybC5B9mt8g7Bx0498/zp/lRjoKkooTaK5mQvbwyACRQwHrzQttbqcqgH4VNRSuLmZCbaA9VFCwQr91QKmooDmZEIIQMBab9mt+RsHPWp6KEwuyMQxjoO+fxpVRUGF4FPop3EQm3gI2soI6c8/zp6RxxjaigD0A4p9FIBu0VGbeAnJQHnPTvx/gPyqailZARGGInJUGmPFEicKBjn8qsVDcHbCzZxgHn04pgfjt+yBL9o/4K5/thQ7mKQ2fw7Crk4H/ABK7s4A6YyxOPU561+vgRUsgyDHAPHuM1+Qv7IDAf8FbP2vwpUj7D8OixC7SSdLu/wA+Mc1+u8MkbRp5Zz8o+vSs6srIBtvLBcgsiNxVjy4/7j0xZI3+4Q305/lTs+x/I/4Vz+0YH//R/u3gvYwBHLFkkHJynB9wzK35A1z9+sklzE0hBUnb8uQWBB+UIRhvxYV0S6lZi6lXEiPuK/6s4IAHJ796zdTvbVo4fNcKkkuwblKndtPA54JrlxElKNkaKk2rn+ad8TEtV8b6za2UYYi7uWPVQB5rDHPT8M1wcTuIvK2fMeiq27J9BkCuy8ftcXHjjWkkBJW9uUyz5I/et2xXHFZoojGMYxwe9fJS3PtKTtYVmmkjVSi7V6n37j6jvTBaeeoeBRu3YA2lifXp046ZxuPypub5apyXtvZqJ9RdY0SN5Xwy7tqYBwrEDksAXZgikgMRuFf0f/8ABPv/AIIf6p8T/D+ifG79rKW70Wzu5lntvCb2k1rcXNunlODfXEzLLbRXDF4ZbZ7RZDGFYOGfYO3CYSVRjx+OjRWu7P57Lbwb4i1bTW1/S7Oa5s0DbpbeFpFJT7+NuSdv8TAbV5BIINcrcWt3F5kM8RDW0xXAwTgHGTz0OOK/0nfjF4L8J+BP2RvG/hnwTp8Gj6XaeGNWW2tbWIQxxKbSViqJgbQTyRjOa/zdro28QdY/9bGwC+pAHcn65pY3DezaObKMQ6nM2RvJ5jCbawUcMSCdo7sQMk4HJC5YgfKCa6XwZ8N/iD4/vx4b+Hul3utaltDNZabBNdXZVyQmLeFHkO7GRtU46HBBFfeH/BM39kr4OftqfHef4R/FrxZe6Bt09r60tbCJYp75reeEyxRXUqyhHSIs4WOPznAbY6BXz/U78af28v2Cf+CaEejfs9abp7yX4t4bseHPCtvbS3NvAV8uO7uo5J7aOPzDEQXdt8jgsV5ydKOGi4KUiMfmc4ydGELn8a/iX9i/9rbwd4fbXNb+Ffi2wsoIzK9xPo19CqKPvvI72/yKueS+32r5ykhIMkE8ZLxMVkjYYIHTd82FYFvlGCTntjmv7yP2VP8AgrX+y3+2F8Rx8HvAFprujeJLqGa4ttO1yyihW5itvnmKSwzz2u5UJkMZljkZEc84r40/4Lbf8E9fhn4s+Eutftf+B5l0DxP4ZWKTVkt4kjt9XS6nSDzbzykDtPGHDCQHJUbW+QYrV4OLpupHYwwuZtT5K8LM/j2EKNJ5MS8EdMnA/DH9akjsRJC0gOzywMjB5ycDbx8xz1C5KjlsAg1pl/Jti8AXYVZlDNtJ+UsuBgsWI7FQOvPY/sf/AME3P+CUev8A7aFtc+P/AIhX03h7wBZTz2n2mGNRfajJCyrcW8JMm2OGPcySTuj4dGSNVZt68WCoe1lZHrYnFxpw5j8sPhN8BfjP8d9cXwx8FfCWr+K79CFlh0633rFuJCme4B8m3Q4OJJ3jjOOGI5P1V+2D/wAE6Pj/APsS+BfB/jH48DR5b7xU11AYdFmlvYrJ7cRNHBc3M0NurzNC8rApHt3wvsdsAn+or9r39sv9mD/gk/8ADfT/AIM/CrwTD/wkt7pxv9N0TTRDbWwKn7Kk+oTljNI0hjKK4inmmMDYA270/lx/bc/4KOftB/t0XWnWXxQW003w7ojtcWekaZEyQPd/vI0vJZJmlnlmS3k8nPmBMZbYCa3xNKNNcp5OHxNZyvFaHwOtqzsPJYLt5571JGJjcEOf9YQPl7YB6VXMu8tHhlxgg+vtV+3W4WLzThSvzDPr0x+teZBWR9DFprQ/en/g3olu/wDhurXRKwCnwHeqo4yMappx5477h3r+0ZXEiK46HBr+Ln/g3pkupP24dct55BuTwLeMu1I8kNqWmk5Yru42+tf2iQIFgjRSWAAGTjJxj0wPyr7DLprkSPj83f78t0UUV1nkBRRRQAUUUUAFFMZiDgU3zG/z/wDqqkgJaKKaxIGRUpA2OoqLzG/z/wDqqRTkZpuNhKVxaKD0pOcUhi0VHvYdqTzG/wA//qqlFickS0Ug5GabIxVcgEnIHAz1OP8A9dSMfRWBq+v2mjWcl/eOiRwnMhLKoVeTlmdlRRgZyzAfU4zp2N0t5bCZWRs9423L+BwM5HNAFyiiigAooooAKKKQnAJoAWiow5IyRSB2Paq5QjqroloqPLelG8/5/wD1UrA9CSio1clsVJQ1YSdwopjMQcCm+Y3+f/1UhktFFFABRRUbOQcU0gJKKi8xv8//AKqPMb/P/wCqnYCWiovMb/P/AOqjzG/z/wDqo5GJyRLRSDkZpakYUUUxmIOBQA+iovMb/P8A+qjzG/z/APqppXE3YlopisScGn0NWBO4UVGzkHFAck4/z/KnysXMiSiiipKCiiigAooooAKKKKACiiigAooooAKKKKACiiigAooooAKKKKACiiigAooooAKKKKACiiigAooooAKKKKACiiigAqORQy4PTnP5VJUcpYJlcfj9KGwPxt/ZItreL/grn+13DEFG/TPh48nyEDcNOvBwd5/h29h9PX9e4rVbeNUtdqYAGVyR096/In9kNJH/AOCuX7W1xI2RPpPw9bAUhR/xLrsfK+cOOPvAAZyMZBz+vrFhGHQDHpWFWV1oBUtpZYlIigP4BU/9mNWvtV3/AM8G/wC+hUWmO1xGXKKPwrU8v2X8qlAf/9L+8sqklx5ZxukO5sjr269ulcdq+pR20ytIFcJJkKeRgqV+XBAznvjNdAVv2n3ZjZAMNnJP6cfnWBqlpZkw3SGNMSY/eBdoIBJxjp6/jXA2d0Y2Vj/NW+JRjHjXVk8xhuv7hSCTnmVs55rz+SJ4m2THameMnGfxwa9D+KkSHxvrEkEZUrqFyzYUkHErZ/CuDQXEoEzowBHcH9K+XlufYxoabnsX7P8A8aPFn7N3xl8NfHPwAYZdQ8NX0V79nnP7q7iTIntHcwyqi3MDSQ79hKM6yKQyBh+kH7Xn/BZT9qL9p+O98DeDEX4d+D74wJPp1tPFc31wiy+c32m+VYHj80ovnQQgIyZhk3xllP4/7Hwkka7iuQqtwcH72QauQIZrxWEGAQWLdt29WY59eST9c10QxMklGJni8PGUueXRH96/7Mt5cah/wRJ+H19dP50svwR0mRn6bmbw3ES3HHJ5r+CfUg3nzXRRS6ucYPqAOnSv71P2XPKk/wCCI/w/R+AvwS0oH8PDkQNfwUXFs0r3UkfKysWUDqNoA/Djmu/NXeMDycnnyymvQqjUJrGZLi2ne3njy0UkJ2SIxBUsrrhlbBOCDkHkEGnXF3eazM9xeu8kkzeZLI5+d5D95y3Us3VmzljknJNYyGC8SKaxmjkBUncrBgQDg8j0rcg0y/aUS7XYKpJxkrhQWJOPQAkn0rypVJOPKmeyr83PeyPtT/gnWmqR/tz/AAlh0DznvG8UabkQhs+Qsy/aGPqEg80vnpHlfuuwP9q//BT7WtI0f/gnj8Y01UFob3wvf6amFRvLl1KJrC2lUOCpMU8qSjIP3eOa/En/AIIS/sQeMYPEqftpePrS2j0d7O4sfCyGVXlN08pgvrxo03GNFhiaCIM0bSGSYSJgW8p4b/guX/wUEbx9r91+xX8HLuUaVoN0X8V3SxlTdXduwFvYQ84kihk3NcH+KdYVT/Vyb/bjU9nh/ZvW585Vg6uMTjt/wT8cP2Rv2fNT/ax/aQ8K/BPQJVt31+7jF7LH84t7OGF7q4k2Mu0OIopPLOApl2IfkYiv7Gf2wfjt8I/+CXf7Guj+Fvhlox0ya4I8J+ENPsjvA1C4tbiSK4klufPMiRRwS3M0knnSuQPM3NISfyk/4Ny/gbqF941+JH7SXiWCO6s7W3s/Duk3ShSftEk093qQBHpH9gAwehI6df2s/bK/bP8A2Lv2VfGGkar+0HqEEninT7KW60mwt7M3uppBcsUeWNEjfyFne38qOWR4EdlkUScNi8LBKGmhnjalR1nGHQ/hX1r4R/tE6ybz4leLPB3jDV4dUleW51vUdH1WWJ5HbLytfXiMJHDZzKrOc7vu5K14lfpDaWwY72UElGiJlBxIoz8gJC4PzKyxlRyc9v7J/CH/AAcFfsZ654hXRvEOj+K/DtlGQrX+oWlmbZI1G0ySJb395MFjJyzIvKEuTlcH13/gph/wTX8J/tlfC+XxJ8HtN0fQ/iHaTLe2erCNYU1CKVQZbS+kXEjB1YPFK2GSbAIEUswl5auBcry5jrpZhKNo1Ufw8x3SAfaZCGDcDg5z24604sbhWYxhQSDktnOPQdqueItG1PSdQ+wurQXMBAkznnj5wPZW4rPlWWUCW12vKeucDH/668qcbOx9HTVkfu9/wb1ySN+3prnkRsIpPAOokFowFJTVdJX/AFmScjcwAwPfOBX9luu+J9H8KaRca54gu4rHT7KJ5ri6uHSKC3hiXe8ssrlUSNV5YtgD2Ffxrf8ABvdNdL+3jq1uqxL/AMW/1QleSSf7X0j5j82OO3HpX6Df8HBf7TOp+BfAfg39m/QLmSFvExvNe1PylISW00ryUit5snDQyXNxHOQM5a3VTw4z9LgHy0uc+QzL3sTY+h/iT/wX9/Yb+HXxAi8D6fF4k8XWouhZ3et6Bp0U+m2r+YYiwM1zDc3aAjObKG4Yrt2qScV+oHw//aY+EPxQ+Dmn/tBeCNct7zwZqVsbyPVZN1nFHAASXmS8WKWLaAdyuoccZXnj5N/ZQ/4Jr/sx/A/9nTQvhL408E6N4j1SDTYrbWNT1WygvLi9umiC3LtPNGHMRYuIAvyrGF5LCvyU/wCC8ms+JfAHhz4W/s3fCWQaD4FTT79rzQrBRZ2V00ElmmlxSeSVJt7NVnPkK22SXY7YEXPVVxPLG9jHDxhUmoJH3Bdf8HAP7A8XjWPwxav4puNG+dZfEceizDT4zGQD+7fbfzKQwPmW9lLEM8uCCB+xfgP4leCviX4RtPHXgLVbbWNKvoxLBc2rh43GAQARkg4PQ8ivjTSP+Cb/AOxjF8HbX4P6t8NtBubQWkMF3dvp9qmoXNzGiqbya7jUSPdF1DNMW3FsnJBr8Wv+CCnj7xboHxZ+IH7Pt5dXEujraJqqQSsRHHeWlxHazSQg9DMssSzgdTEAMlsGq1bktdbkOnGa93Q/Yj9nX/gqd+yv+1B8ZV+A/wANL/U4PEvlXk32TVdLu7ESCykWOZYppo0idlZm+VXJZY2I6c914s/4KHfs6+C/2oNO/ZA1u61P/hN9Ve1W2to9KvTAwuo5JEZrvyfs20BDnEhOSOoBx/Dr8OfiJ47+APx+1n9o7wMrNe/D/wAVRX9xBbGSFLiGe5vUmjj8xVMVvcJHNZ7Bl8XCgqBux+wOufFnRvjn/wAFkfg98aPDtk8Gm+LtH8O6lbQzLtdIri3nb5mYDeyPvhZ1yh8vAOQQOSWYJW0Lp4Byvqfuj+1F/wAFQv2aP2SPjlpf7PfxTbW5vEer2VlqMEem6bLdxLbXt1c2sbyTIBHHiS1lDBm3AbSAckjv/wBrv9vj4D/sPeGNI8S/HiXVEg1eWWGD+zrGS+cvAA0m9YVOMAgkgdc44r+dT/gttE3/AA9I8FiGMMX8I+HcgK+441zWcfMqkcFjjJ4yema+wP8Ag4vsXuPhH4AigXy2a81JVbGQMxQjdnH4AenFaSxLSk10Kp0YvlVtz95/EHxw8HeHfgPqP7RF+bp9A07QrjxBKsEJkufskFu902yEZLyeWhCoM7mwOc14R+yB+3t8D/249L1rV/gadV8jQpbe3ujqNjJZssk6PIu1ZFJPyrzkAA4HU1zfxYurXUP+CY3ii5v1LQzfC++aVQwU7X0Zyw3HhflPU9OvSvxT/wCCJvxV0T4O/so/HD4v+I4zNpvg63i1m58jLSS22n213cygbig3+VE0asCcbVfpg1vUq8tR0znp4e9N1L7Ox+vP7ZP/AAVc/Zh/YlvIfDvj99Q8TeJGy8mheHFtJ723j/he6N3c21tbhv4FluEd8EqrBWxW/Y6/4Kx/sr/ts6ifDHw7vNQ8O+JkUynQPEUMNrevGEEmYJIZbizuBsVifIupNoOW29vw/wD+CNHww+GvjT/hcf7Y/wC1ZY6dq+keHreEy32qWy3SQTOst7qt+YX87afIFvIX25BaRjgFgP1o+DHxc/4JL69+0Np2ufAL/hGYviDq8J0uzfS7GbT5pfMYu6furaKITMqYdyVkaPEbkRsu4jVTaRnVglG6P0a/aP8Aj94X/Zi+BfiT49+Pory60vwzZPfTW9hCst3PgrGkEEUjxK0ssrqkavIg3MNzquTXj/7Fn7d/wb/bm8Mat4q+EiahYf2JdrZ3VjqscEV2PMgjmSbZBNOvlMXaNX3jMkcqY+UGvzg/4Lr/ALTNj4A/ZysP2dtMsbrUdX+JMoaQRwsvk6fp08E0uBwwmnm8qGKMgsytMcfLX58/sReEdR/4J9/8FYbb9nfVNSuEtvFmiWmm6h5r+ZuvNQ0+LUY3JTPzpqKXUFqcECORlzyczVxChLl3OmjhlKjzvdn9VHxf+Nvww+Avgi8+JHxc1208P6NYo7SXN5IEViql9kS8vLMwUiOKMM7nhVY1+NVp/wAHDf7GM/iKS11HQvGmkaBEGkbX9Q0iJLNLZYmnku3s0um1bykUKpX7CJfm3bCoJX4Z/wCCxHjbUPil/wAFEfhn8AtScS+HLeLSYjbF5AovdZ1J7e5IAGwFrRIijnEiHzCoKsDX9E1j+xl+yTp2kaf4es/hj4YSz0x7eS0ibR7RhbtbkPCY2Me8MrAMWJOSDn73JRxKqOVlsc/sOSEebVs8B/bE/wCCpX7PX7D1j4S1H4t2mt6pb+M7a7u7CXQrRL9fKsjb+aX2yIQSLmMxgK2/7o+fg/eGo+O/DFn4Hl8a6xfw2OlR2wuZru7ZYYYoWjEu+Z3ZVRAjDcxZQOpIHI/mA/4ONoo4PEvwg+z7i0GmeIQFUglcS6WCfwHBPpXtX/BdD4rweH/2VPhp8FoI5Xl8V3i6jKqYCvZ6VaxB4pC5Cbjc3luyhugXd/CKirXtBtG8cJrB3+K/4H5n/tmft0fBz9rX9sm+0H43+M/G178CtHv5bPSrbwvp1tsuU+zQNc3CRSXEd7cJHcuyrNHp1/K0aH7KqCTe39bv7Ifiv4Q6/wDsyeENR+AmuXHiLwlbaVbQabe3Yma6lt4YlVPtC3KRXAmCjDpKqSK4KuqsCo+RP2Lv2MvgPrn7BvgDwZ8WPBmgareeIvDWnXmuSizhJlvb62FxKVn2+YMSTHyjnIHTAYV+S3/BH74g+IfgB+3t8Uv2JYY/tXhu5l1OS2fDny7/AEG7a3jkJK7f9LtWKOR2hjXORiudVpRab1uJqM01FWsfsF8Ef+Ctf7Lvx/8A2hov2avAr6xD4ilm1C3H27T2gtjLpo3SjzixU70WRo8HOYpA2Plz2X7QP/BSv4Dfsy/tEeHv2Y/ibb62fEXixNKfT5LK0jntMateSWFuGm8xSD58Lb/kO1cEE9B/GVp0HjrwZ8ZPHH7RPw3vA2p/DPxNa6o0pIYMbu/nhEw6Isf2kQQbWILC5xg+XIF/Qr9tX4+eEf2o/wDgoB+zr+0P8NQ6+HPE9n4Sa2e4AW5gntPFd2lxaSpFK8SS27Hypl3kkMcBsVtDF3drDq4Jxk43P7MDcz4LgrtBIPbvtHPPcc8dK/Pfx/8A8FLfgN8Lv2rNO/ZA+I8Ws6R4j1q4sLfTbx7H/iW3TaohNtsuQznHm/uGZkUCYEHK5x+gsXz2u+ELnOflGAcOSfz5r+ab/g4P+ETW2nfDr9oHT4fs4s5rnQrqeHAuTOQt7pjRHht8bRXRU9FdsnAzXTUnyq5y0qfM7H9EvxM+Jnhz4RfDXWvil4znMOleHrKe/vH25cRWyM74X5fmIQhexYjtX5peEf8AgsZ+zh4y/Zy8VftU6fpXiWDwV4N1LTdHvrmewhW4ku9SktYlWG3FyZHWE31s0zFFAWQbC5yF+Pv+Ct/7T3h7xb/wTF8G65oesKy/EdtMvVLbkWW1htPt0zXCNgtawzCE3AbAG5VPcVh/tJfCbxP8Fv8Ag37tvAXiexuNP1m0j0O8nt76IC5glvvElvdiK6jBKiZROUnQEhXyucYNZe30NY0NLvvse0P/AMHDX7EwjjmTRPGUwePzDHDpcDsoPri7xww28Z3bgVyoZl+xJ/8AgpZ8H1/Yjb9u260PxJaeE3uGthaNZQHVVH9qNpCT/ZPPK+VJOvmIxl5iZWwckV+BX7D/AO2T/wAE5/gN+zPb+F/2nvANvr/ibTrnVpbu9n0Ow1BTapdvMkf2mdRJmNBHujf7m04ztwf16/4LFaN4T8If8EsvGOkeHLKDTNHsm8OJDYxQRwQxxDWrA7PJRAse1M4CRrtYDPA45k58nPc3qxp+0UUtDgrf/g4J/Ylnu4LaXTPGFtG8oSad9ISZIAZAmWjt7iS4cnP7tIYpZX6JHI5Cn9aJfj58PH+C9z+0D4f1ODXPC1tpNxrQvNNeO6intYI2dnt5Y3MTjCMch2B7Niv5Ovgh8bv+Cd/hv/gl03wr+N2nWWp/FGHTfENlD5mjSz6vFeXOp3R08/2gtukcbKjW5WVptiRhcnGEk+sv+CX3gzxtZ/8ABKL473viK0mg0TxFB4gudEN7KbmO4tToiwSTojcrD58ZhKAfO0LSAfPkzTxM1uY4qhBW5EfVa/8ABwn+w/cQC4h0rxlkoZFQaQju2ELhdqTu2DjBYgKgO52VAzD9Of2ZP2v/AIEftc+DR49+B+vjVrVVCXNs9vNaXdnKGYbbm1uY47iBnx8okQLIF3RM6ZY/yN/8Ey/2g/2CPg38P/GWl/tmeHLHxDPffZrjS1v9AOryLBDDLvUSTRzBS7bBkyoo+8zqAWH11/wQk+BfxQH7QOv/ALUen6VDY/D+90a/0KG5EkImmuftli0cJiWSSQpCI5Bvk8vDZwJGkcp1UsRzLU6q+Ej7KVWOnKtu5+9/7cH7dfw2/YP+Hmj/ABO+Jeja1r9nrOrRaPBaaFFayXXnSwzTeYwvLm0iEKLCQxEhfcy4Ug13n7Jf7VPgn9sX4EaT8fPh5p+o6VYapJcxfYtWSCK9hltbqW1eOZIJbiNSWi3rtkbMToxwTgfz8/8ABRnxE37c3/BS3wd+xHoyXNlovguG5g1SeVzFFLdXlguqSuGXdsW0tIYlV+rSyyx9UavTv+CDfxMv/BN38TP2O/iPcJZ+KfDusz3i6e7YJe1f+z9QEOfmaO2mtohI+MMJ1PU4rL603V9mc88I4wUm9z9Nfi9/wU8+B/wY/as0f9kDxToviSfxNrd9o9hDc2VjFNp6Sa1KscDSTtMjKkZI84hG2A5AbFfpOOlfyT/tyP8AZ/8Agtv8O3uoo3D+JvCAVpM5GbiAAr2znGPfFf1qFgVABrqo1Oc561PkFkfyxuPSvgD9tj/goz8AP2FtDtdT+Kst5qOp6jn7Fomkxwy6hcKFYmUG5mt7e3gUrtM9zNHCXxGrmQ7a+8b2TZGeNzFGKjB6qDwMc5Oe3OAa/ki/4JfeBvAf7V3/AAUM+JvxO+NOmW/ilIrXUNQii1ZPtZ+0S6hbxqxjlzkW0CGCJdpVQ5XGVNRWquNrGuGgnqz9fv2SP+CuXwI/a9+KMfwk8IaL4n0DW54JLmCPWLCE2twqCN2jhurOaeMyInmEqzAIBvdvLktzN6D+2H/wVE/Zu/Ytng0Tx1dT+IfEVzNGo0HQzbTX9vE6FhLdrcXFulvGx4QyMrOzKqIxOK+iZvgr8A/g9cX/AMaPD/g3RrHVdL0u7Vr6w0+GG7e1cm4kt/NhQM0e6NMLg4x2BOf5rf8Agiv4Xn/ae/ap8dftA/tAWkPifW7HTo9WlluYxPHFqerTFlktonUiMpHBLHCoG6LezL9/5SU5K2ptHkacrbH7Dfsd/wDBY39lT9r/AMVxfDXwxPfaF4quldrLTtXWCL+0VhSNpPsc8UkkDyKWZWt3kS5XZI5hEKGUe7/tn/8ABQn4WfsK+DvD/i34qaNreu/8JFdmxgt9BgtZ5UlSMSs8ouLq2REweokYdxkcn8F/+C8nw3s/hF8dPhr8WfhRYxeGtV1601We41XTbcW80Oo6Vc2MlhPvjAVrkG6cqzkMwgIGea73/gtF4uvvid+xx8APiPdyFLnxEPt0jLwA19p8dxMSvUjHCqBkH5evFZxxPxXWwvYxk4tdT94vhv8Atn/DH4rfskj9sXwbHfS+HY9EuNenspEgOowx2cLzXNpNHHM0K3cexoyqysm8DDlTk1v2Jf21/h/+3T8NtS+KHw30jWdFstJ1efRpoNcggguGnhgguCypb3FymzZcINxcZbcNvFfzsfsaeJ/FH7MGk/tJf8E7/jbfsmux6BrN7olo0oeK6nGnTTXLWmOT9ps/s94kYG4R+cGGY2x+gP8AwbxoqfskeNyFK58fXx5H97SdKJP4nn60Qxd2lYmvhOSHPc/eq5eRAvlnHIzxnPI79BxmvzG/Zp/4Ko/BP9pz9pDVv2YfC3h3xNpWvaOL/wA641W3sIrNm0yVYbhUeC8mlY72GAYVxznGK/Ta+CmMZ+8N20dydp4Hviv5Yf2YNF074Vf8F6/H/wAPVAR9Q1DV75GzvAOqWi62yjshdZzuJ67MdRWmIq8kbnPTpuTsj94v2xP20fhp+xN8LG+K/wAUrLUdStje2+n21lpMcDXl5c3BYiG2W6mt4nZY1aQgyqSEYJvYMo5f4b/t9fCDxv8AsrJ+2T4nF/4M8FAXcofXo4Y7t4LSaSHeLe0kuS7XBjzaxxuZp96lIuQp/B34133jL/gqF/wVNT9nS6lj1P4V+ALuZZ7W3lmts29oYY9WM1whWSRrm522ilWV4otrx7Q745n9oi28N/tif8FZfBX7IksDQ+AvBV5D4dsNLtmENrbppdn9svpIEB2xyMIZrJ+AzW8aL8rDaZhWdrs6fqqS1Z+hFp/wcMfsaT+NY/DA0Xxk2lGYQt4g/sq3XTwpUMZXtjeDU02kMGh+x/aEIbfAoANftZonxK8J+IvDEHjbQ9Ttr3SJ1Z1vLeRJICiByziRGKqoEbFssSvRgDxX5Nf8FSPgP+zB8OP+CdnjcweE9J0BNMs7NdIbT7KKGWLUGu7eHT0DIqyHzbyVImY8lZWDA7jn80/2M7z4t6p/wRQ+NOkfCv59SttdukihUhDFo8tppc+qmMuQPms57mQBejyY4Jp1cQora4LCpwVRPd2P0H+Nv/BeT9kr4W+PpvAvgj+0PGwtmaKbUbGOK306KeM4kt1nupImupFHzs9sjQxqVDyB8qfrn9iD/gpD8F/255tc0b4dwarpeseHVgmvLDVbZIJPs1yCYbiN43ljmidkdN6leR9wcGv5x/8AglV+3t+yh+zT4F13wd8Y/DK6nc+JLwTPr1jBbX/n2Mqwxi1uIM+c0ccscrxrCk3mk7V2spB/qc/Za0P9lbUPAg+Kv7JmnaBHoXjCdtQlvtDtYbeK8mEjLK0/lKhaaGRXjZJFVopNwZQ24VhQlOo73sTXoqGh9YK28Bh0NOoAxwKK7zkCiiigAooooAKKKKACiiigAooooAKKKKACiiigAooooAKKKKACiiigAooooAKKKKACiiigAooooAKKKKACiiigAqC5UvEYx1bIGPXB/Cp6hmAZQvc5x9cGk0B+Mn7IE62//BXj9r2JERgNP+Ho3p140y5B3naNzZB554wM8YH7IRSboCV6c4r8eP2R7mOT/grr+17BFLFKVsfh6HUD50b+zLn5flJxxg4ODk9O5/YN1tEh5JUc9TzWXIl8TAZ9oTsMfTij7Svv+dVDPZjqy/8AfQ/xpPtFl/fT/vof41NofzD0P//T/utjnSa7L+Y5yx2/OzDH0bp9BWdrL37mOHTYpJZirMVRlTI3Kpb5jjjp61uKYWkWRTvI5wo/wrlvEkpVTagsvmFZMCPfkK27GA6EN8hAYkIMjPAYrwHoH+bN8RwT441mVDk/2hd565wZW/DNcS080a7Z3Lf3VUdvWu5+IQkj8c640fy7NQuCpPXiVuSPb0rgTOYSEiO9iNq5HROuPfnvXy8tz7VO0bjIZZHSSVsggjZ+uafDP5MTSPLggOevAG0E/opqditvCszMA3PX7v1Nf0Uf8Ewv+CSv7OP7Yv7MjfGP4ta7r1lq76teaeyaRd2sNsYYNoVgk1pMwYhyG+YjiujCUPaTscWIxUYwbmftP+yo6zf8ES/AEsIysnwT00rnuD4ejx+dfwRTlrv7RJG2+K4YhfLPyfMMZ29WAI5HGemR1H+ld8O/2dvBHw6/Za0z9lPRLu8fw9pHhqPwvBPLIjXhs4rQWaSGQIsfm+WAciMLu5244r+bb/go7/wSF/Zl/ZR/ZB8VftFeAdb8T3Or6Jc6UlvHqF1aPaBbzU7WxcOkFpEThLhmGJFy4B6cV6WOoTlFX6HgYCs1OVup/NtqesX/AIsvZdf8UT3Go3s0aoZZ9zyBUxGgeWV5HbLMqLluCQoHNfsX/wAEs/8AgmJe/tj6/p/xj+J8dxp3w20i9dQYghfWbqxniWWwXJDQW+9HiuLhNrF0aBGSZC0fz7/wSz/Y68F/tuftOS/DH4jX19p+l6LoF1rzrp8iC4lnjuLa1gRWcOqqDdNKzbSfkAGC29f7otQ+E2kRfDS3+EHgrUZ/C1hZWCafaHThbrJbwIojVYUuYp4vlQYVpI5CMBslgSebAYNTXvnTmOKn/C6H4F/8FMv+Cjvwv/Zw+FV1+xR+xJcnR/EvhtrDQrxNMX7DD4asvIS4S3tXaM7Ll7UBVMUZ+zjLbo7lAjfyo6v4q17WNVuNc1eaa+v7yZppZpZPMllldzKzSOxyzPIckk1/Z5r/APwQE/ZH8T3LXfiPxh431C6lDtJdXeq2s9zNLJIZnlmnksjJK7SbXZmbLsNzEk5rzr4lf8EKP+Ce3wl+H2ufFXxr4u8ZWWj+G7C51G/uG1CxxFb2sbSyt/x4A5CKcAHOeldNelN6PZDwGNpUYqCTPnP/AINyf2gbIX/xF/ZTuJEXHk+L9JVeTOsjCw1Ihum2EpYYycnz8gcNj5t/4OFvDOp2/wC2/wCHfFs4EVnq3gOztrSRmCCR9M1S/musFsA+Ul5blsZP7xeMc1+VX7Gv7Tur/softCeGvjtpEDJbWF08OoWo587TrpTHcQoq+XtlERV1JJVpFjbAKYP9mPx8+C/7LH/BXb4F2Gt+FfFQvtM0q4u20nWdKyTZ3qx+XtuIZkVjEHUG4tZQjsUQq0ZAY6JRnStDcVRSpYh1baM/g4jglclgwdMESKGV92R8uFGWYOOMAHI56EGv9HD9i+91a+/Y++FV9rbvc6hJ4P0J7h5jueSb7DCskkjHkszjcc88V/P98Fv+Dd/XB4xi1H9pj4k2GueG7UASafoOmSWl1eOxJdDeTXM/2aKRs7lWNpSDtEyEbz+mf/BST/gox4M/Ye+Ek3g/4XTaNe/EnUlS20XQp28yK3gUKXu7q3h2sIYYPnjiynnMdqsse6daw1PkjL2jMcbL6xOPL0P4t/jlc6UPjl40i8ORsNNfxDq8ljuclfsbX84hAVjkDywmB25FeUuFjkYquFJGMU/UJ728vpNRvHMtxKQZJG+85CqMt23EgkkYBz04yWwbiD5oyMjp2HPNeJXactD6XDQcYJM/dH/g3wmKf8FANYDDhvh5qxHJ526to+eOlff3/BwZ+zBr/wAQvBng/wDaO8OWT3MXhBr3R9ZSJWkka21XyBbTcZO2CZGjOOVNznGwSFfgH/g3yEV3/wAFAtX2N/q/h5q6qMf3tW0cZr+yvxH4S0Hxh4fvfDniK0hv9P1OJ4bm0uY1mt5o5QBIkkT/ACOrDghh3PUEg+9l7vh2mfKZn7uJuj8uP2bf+Cv37F/xF+AmmePvi/8AETQPCHiGzsLca7pWqX0FtdQXhiQP5Nu7iSaGSVmjhkjUrJLiJcy/JX5d/wDBZ+XUP2k/gf8ADD9t74DwjVvAcWlzreanNGbd7Rb24tIrbzracR3MbfaDIJN0YETRbZgqtmv0Zuf+CEH7BRnddI0rWtMsnzmyh1m8ngAdcPt+2y3Mke4lyDG6bd3y4xz+jXgf9mP4R/D74QQfAbwxo8Vt4Tgt5bc6fud45hcB/P8AOaRmebzTI7OZS7Fjv3b1VhrUg5x5TKjVp05c8T4507/gr3/wT8b4UW3xDuviDp9tPJshbw7I+PEMd03LWjaSALvzEw+SIvLKKZQ5i+evyy/4IIfCjxbq3xB8eftM3lobfQtQgfSYbh3iZbm5mlhuZo4hu3YtkSEO+AGduCSGx99Tf8EH/wBglbhU0/TNcgsFCRix/tm9kt/KRBH5eZZXn2lcg4lG4nc+5sk/q34C+GXhD4YeGLXwT4Cs4dK0ixhWC3tIYwEjUMzFR6gsxJJ+YksSxJGNVTlN/vOhEq0Ir3T+QD/gn5+zR4d/ai+IP7RnwD8WrJaL4g0jUrSO6u7QN5N9HrDS2sptpAsc5guFVpIgccmJyNxFeMfsaaV8VfDH/BR74YfCf4xxtL4h+H+rnwxNKs815CiWlxeXBjiuJFDPH9ou5yruFLIY/lU7s/1k/s4f8E8/2ZP2UviTr/xX+CthqNjrPibzhqD3eqX9/FIJ5xcNtiu55UQ7wCGUA/ma5y+/4Jrfsk2/7Tcn7Y66NdxeN5L+PUDcRX12tv8AaQscW/7IknkMWWNTgx8vk9Wrnr4LVJAsdJX5T+fX/gti8f8Aw9U8CuD86+EPD5xz0Guas56cYCgkk+1faH/BxLHPafBf4bX91DO0EmuXGnmWKGaSNZ7mEPEJHjVliVhC43yFUzgZyQK5/wCNn7Fv7Tv7af8AwVFg+JHxM8EyeGPh94bWy0kahJeQSJfaTpdzLfQFI0IkMl5LcOs8YC+SoVdzFGDf0M+Pvhz4R+LHgzUvAfju0i1PSNXtpLS7tZlDxyxupRlcd8AnBGCG+YEEKQlRm4TuazrRh7Nrsfg54w/4Ko/sZaj/AME2dS+G0fixF8dan4BuNCTw61tcjUTqTaT9lOLYxb2tFlOPtig2xAOJCQQPHP8Agiz8GR8X/wBjj41+Cdcaa00PxsX8LLdLhN2LKSzvCgZWBCzXDxFipRnV1UlkYL92p/wQb/4J+pdymHTPEMVnNIrtaRa/qUQyp4YXEc63gk9ZRcB+nzZANfq/4A+Gfg34XeD9O8AeB7KPTdF0mAW1paQqqxxxjtgD5iTlmZsszEsxLHNaunOVTnZHtoRpunHZu5/I5/wSZ/aW+C37PrfFf9kf9t/xBpfhPw94ikaG6ttfuVsdPbUkE+natbTSziII99Alu0LSSg3GxhGuRtPlHwdsPgpYf8FodMi/ZqudOvvhta+KdN/sS60a7Go2E0A0S1F48Nwss5ZVvVuFcmQgOjAYAxX9Qv7TP/BOD9lD9q/WrXxV8WPDofWYNwfULCWWwuJkZQpSd7dkMyjAKeZuaMjKFWJNc/8As6f8EtP2K/2XfEzeOfhb4P3666Kn9oateXmrzRhd2PI/tCe4S3OGZSYFjJB+Yk5JdXDy0a6GcK8HdM/nL/b6f47ftxf8FSZPhH8E7C0GpeFJRpnhz7dKYoEbSc31zd3PmW11Gii8huEC+U8cmy1Z1Zty15T+1R8A/wDgoT+yD4u8IftX/tW6pZeJ7m31e0Syv7a+a8IutMaTUIop1FraoqTKsuwbHBiRk2RcCv6v/hh/wT7/AGbPhD8f9Y/ah8F6PdxeNtf+3G+vZ9SvrqNm1K5N3dGK3uZ5YoN8pO1YwqxqdqgKAK9J/aJ/ZQ+DX7WPw2b4SfHjTptU0N7uO+MdteXenSrPEHAeO4spoLiMkSOp2SjdGSjZUkEhhrtuZrUxrUVCGx/MN/wVJ1zw2n7W/wAGf27vBarqPw98c6foesaVqNushFxPZzLd/vAUVYnksJbd4Ech3KyrjMTV+6rf8Fjf+CbcfgSDxzD8VtEu2uBEI9JtLhbjWWkl+5GNLi3Xu5hls+TtCDezBcE/Qvhj9iX9nfwl+zpb/spQaCNT8C2i3SQafqs8+olBdSyzNie7llmDI8z+UyurRDAiMe0Y+MdP/wCCGv8AwT7sNVW/bw/rNzBFt8m3n8Qas6oqYGxpBdiaVGA2yLLI/mLkPnLZUaMoSfJ1M/aQlBKXQ/Lb/g4r1bTPEeofBrxJ4fuIrm01DRPEc9vJuBDxSvpLI6gfNtIYHkV9I/8ABcv4OW3i79kT4ffGVrZ55fBlxb21yqxkmOz1iBIpWZsb4R58VqpZwoGcEiv1X/aP/wCCcv7JX7Wln4csPjl4dnvIPCdnNYaVHpmp6loq21tOsavEi6VdWihcQxhRjChQABX13J4O0SXw8fCdzbxXGnNbi0kt5kEqSwFfLkjlEhYSI6fKQ2cjrmtp0E4tCji5Xiv5f1Pxb/ZK/wCCpP7Gnw7/AGKvA1p8ZfiTpUPi/wAMeHtO0zV9ESZTrMt7Z2scEzQabETczeaYTOhjjKiNt2Qqkj4Y/wCCMnw68S/tGftq/E7/AIKA63aPp+jCbVra0gIkMf2/xBdw6hMiTfcf7FbEKSrHabkjqpA/UfxL/wAER/8Agnx4l8RXHiGXwrfaet3P9oey0zVtQsbON+Di2ht7hBaxggFYrcxxqRlVU4x+kHw6+Evgr4T+BtO+G/w30+DRtE0eAwWVpAmFiBJZm3bt7O7EvI5YvI7M7MWJNYRw7bXN0FKcIp8nU/k8/wCCb3wW0L9on45/tLfB3XYVS08T6Rf2bXG0M0NzJqLtDNDG+YS0Ev71C2NrheRtr80vhT4I+LHwt/a78BfA/wCJunNp2r+DfHWlQXFn8zmCRtVtJ3KOoK/Z3UmVZBgN54Ycnj+1z4Df8E7f2X/2avi54g+OPwh0q+sfEfimOWLUp7jVdSvY5VmuWupAILu5mhQGR227UG0YHas74qf8E0/2QvjZ8cbD9o74leH7y88XabNptzFcW+sarZ2xm0mRZbRnsLe7jsn8t0j+/Cd4RVcuvFbRwsU7oU8ZOTbfU+57PeU/eDawzkZz/Ee55r4v/wCChX7LL/ti/ss+Jfglpk62es3UIvNHuXwFj1C0YSwK5PSKcg28+OTBLIBya+1YoWiI+YYCgYA9O/U+9Oli80fhxkZ5recbqzMITcXdH8DP7IPwa8e/teftF/Cb9m/x3fTyeG/BUty7aXdTiSOHS2vjqt/H5UjAxPeHyLLfH8+1w64EMVf0+/8ABa7dJ/wTN8eqc/8AHzoHMh2FgNdsCS2MEe/Q56CvdfgP/wAE0P2Tf2bfi3dfG74UaTf2mv3cFxbu1zql/d2ypcvDLIY7S4nkt423wIyskYK/Ng8mvoX49/s9/DT9pn4Waj8FfjNZSal4b1WS1muoILiezkaSzuY7uJ1uLWSKeNlmhjdWR1YFeDWfsVaxbrtzUz+U79iH41/8EhvA/wAAF8F/thaFBrfi+SfUZb5rrwlqGrySWguWWBDc2FlPC6vG+EQuSMlQMdf1C/4KNfHr4O/tO/8ABIfxV8Tfgtczan4Zu9Q0e1t5LmxvNNZlsfE1jaTn7JewwXCbZI2VQYwp6rkGvYP+HEf/AATGS2W1HgrWiqsWBPjDxWX/AO+zq5bqc9a+k4/+Ccn7JsX7Kk37FKeH7xfhxczi6m05NY1ZZ2mF6NR3DUftZ1Af6WPMA+046ryDipWHajy9DVV4uakz+TLVP2KNe17/AIJw/Dn9sv4daHFqOpaVceKIvGMZtxcSz21n4jvUtL25tSxjlt7aGN4bphGzrC6t9xJGX+jP4IftR/DL9p7/AIJs+MLv4L6bZ6BeeFvDF7oOoeHLGL7PbaPex6QZBawxqqxraeTLHLbOmYzEyjdvVlX7i+HH7IPwQ+FH7Pf/AAy14F0prTwObe+tH06W6u7ovBqc0s92jXFxPJcnzJJ5WDmXzELfKy4589+AH/BO39lv9l7wr4i8DfBPSNR0/SfFduLTVIbzW9X1NpYlW5T5Jr+8nlhci6l3PGys2RuJKRlM1hDSpVhLc/lV/wCCY3jb/gnR8PPC3iiL9tvRtPvNWvprCbRRc6Fd6rceUkUvneRJaWU7KVZlYHI+YD5gMkd1/wAEevFfh7wL+3f4s8R+Db2Sx8MXGi6vqWoRRSK6vpVg3+gGaGMAMlgswj82QPIkjsm9RJhv3Sh/4IQ/8EzbdAtt4M1hCFEeB4r8SupVRtC7JNUdMY5PHXB4IFfVngf/AIJ9fsufDT4Ka1+z74C8PTaZ4a8RWktjqXl6jqDaldQTrskWXVnuTqTNtyFb7TlAcDjipdGcdEafWIWlHo1Y/lM+B3gz9u3/AIKB/tKfEb9qL9k65g8HajDeNftJqmoS2MtrBq3nCK1juorO+WSaG1jEcu2Hb83D4OB23wG8D/tGfsTf8FWfA8P7VOr2h8XeIb+2k1S60u7mu7XULXxLJdafEGeS2tXuHlv1Ej5gWOKSIP1+Y/1efsxfsgfAX9j3wZfeAf2ftGk0XTNTvn1G7S4vb3UZprh40iLvc389xOR5cYUKZCB1AGTnzb9qX/gnV+yp+2R4p07xn8ftDv8AVNT0ePybKax1rV9J8tMlgGXTLy1EhBZipfO0nK4PNXDDLmVR7mOIxkpadD+ej/gor4y0f4ef8FivC3xB8TSG10vQ9T8K6hqUo81jDZ2jw3FxLstleWURxRMSpU7jhQDnFfvX8Hv+Cpn7DPx5+J+k/Bz4TeM5dV8Sa40qWVo2lapbCQwQvPJ+9ubSKJcRxsfmcZxgc1F+0H/wSr/Yg/am+INz8UPjl4Xv9X1m7t4LWSSDX9b06HyrcBYgltYX9vbxsgAw6Rq/GSxrc/Zi/wCCZf7Gv7H3juf4l/s/+HL/AErW7iwk0x573Xtb1ZPs00kUsipDqV/dRI5aJMSqgkAyobazq2tGDhsRWnTlHzPt26u45QI8jDI5IJ6qp5IHRunQnofrX8ev7Fnxb8Nf8E2P28vHvw5/ad02/wBAtbm3urCG4i0+4mLrLeRyWN3DDbRyGa2uI4zi4iDoJfMhyJI5ET+x/wCyxhQi4AGQeBznk+3Pfivk79pz9h39mn9sDSbPRPj74Xi1mLT5Vmt5YZp7G4V0BwDcWckM7RAkN5LOYi6o5UsiFanSUtycPUUdGeaaV/wUB/YW/aE8cj9mn4dePdG8Zan4l0+6RV0m5F3YzJ5DPLANQty9sZ2h3v5KSmYRqzlQFJr+d7/glz8SfB//AATb/a48dfCH9sfxDY+HLqOwh0jUtXuGWKwa9s5w8d7LMyILa2uI3kkEspSKMOoZl3Ln+hv9nP8A4Jgfsd/st+Pf+Fo/C7w7dnxAIDbpeanql/qPlRsNpEMN1cSQRHaSu9I1kKsylypIrqP2m/8Agn7+zD+1vFF/wurwxDe30E4uI9TtJZbG9DqgjAa4tHilkTYFBSRmQ7RleBhTpt7HRGdNXR/Oh/wVw+N/w2/4KEftC/Cn4Z/sgatbeOLqxj1TS7O70y6SbTby91uSydfJuVcwzRwrYktcoWhi3lfM3EivoL/gtb4EX4afsnfAL4cM7SDwzMukySqrbN1ppghLFvugZiOTn371+037N/8AwTm/ZG/ZVv73XfhB4VSHVr8BZdQ1G4n1O62YIMccl48pgiIJzFD5cZPJUnmuw/ah/Yj/AGdv2zNG0nQf2h9JutXttCuHubJbXU9S0xo5HURsS+m3Vq0mU4xIXXknHauWWHn71upm8TFNJdD8Bf8Agvd8G7n4d+O/An7Vfhw/YF1Z38PajdozhkvEgllsgqgCNhc2jX8Msjk5xFDnyyRX1l/wbtRxx/sneOFXeT/wnl42GAAXdpGlfrxyK/Y/4qfAL4c/Gz4Z6j8IPihYjVNB1WMxXMAkmgdlbqyzwypOsnJYSiTzA5LbuSDyn7Ln7InwI/Y48H33gD9n3SrjRtJ1O/fVLmCfUL7Ud93LFFC8vmX9xcSgssKDAfHHSt4YRKzFVxnPDkZ9J3vEQbGSM4+pBH9a/jh/4LAeKvFH7Pn/AAUmuvil4AuV0fVpfDEWpC9A/eKt5YXuhSTxq3ytNDbxzmJuWE3kKBtdq/sndA42t0r4f/aA/wCCeH7Kn7THxn0T9oD4v+H7m/8AFnh23trWxvbbVtV09RDZ3Et1DHNBZXkEFwiyzSHbNG4ZXdGyjkVdajzx5Qwdf2c+Y+Wf+CQ37GHh79mL9mjSfG2teH20vxx4ws4bnVTdGTzre28wy2llHC5P2ZIomV5IuouWkLEjbj8Zvgf8Rvh9+yD/AMFtviB4s/aW1i00uxbU/E2Jp5Y3jsG1u5i1GyvJyGLQxrZSGF5WAWITgOVG4r/YjBaxW8KwxjAUY6AfyAH5Cvir9qD/AIJ2fsrftemK9+NXhxrzUbZg8F/Z3l3p92pQSBA89nPDJKkYlfy45GZEzlVBC4xnSkklE0jWhd36n4d/8FS/2/PBH7atjov7Gf7HTP45Gq6nbXF5f6MyXdpeyKJfIs4gu4yxCQpdSXUeYAsLASHD7fr/AOE/xu/ZW/4JJ/BDwx+yj+0j4nebxQYF1/Xbmys7m8tvtOo3hBmWKOOSRIVnLR222Mu8dusrESF2r9IP2cf2Cv2Wf2UrSSP4K+EoNNu5JXnOoXUs+o34eRVV1jvL2Se5jhO3PkRyLCpLFUBdy1P9pX/gn9+yv+1re2GsfG/w2b7U9LXZa6hYXl5pd4ic/unnsJ4JJoQSxWCUvEpJIQEkmIYWTlzvcyq1YWUOiP58f+Cmvxy/4JZfEv4T+IrL4C6Xot78RfEWoxXlzq+l6bJpyTKbmB9RnvLgxWcV+0trE0DKz3DiVgHIaHI/XT/gi98C/iD8Af2MbKw+I8p+0+LNTm8SWdnvLizs9QhhWGMdlMwga6kUdJJ2zzmvSPgb/wAEkf2D/gD4uTx54I8GG51OHHkPq19eanFCVIIeO3u5pbdJMjPmrGJB0DDv+j62qrL5wxuOMnHJx0/Qn866oU1F3MqlVy0LVFFFaGQUUUUAFFFFABRRRQAUUUUAFFFFABRRRQAUUUUAFFFFABRRRQAUUUUAFFFFABRRRQAUUUUAFFFFABRRRQAUUUUAFRTDcm3GQevOOKlqOUsANvP/AOqgD8bP2Srl5f8Agrn+1jZO2Vi0j4fJES7nC/YL04EZARRuJ4Xjv1Jr9fRaqYvJl5xnsB39BxX5Dfsoyvcf8FeP2slmbeg0b4fNHyM7fsN7wwABBznqemPWv1/iRY4wijA/xqZM0pRTepVt7FIAQxD59RVjyIv7i/lTPPf+5R57/wBys/bLsvuN/YxP/9T+7iOC1sZnltiAducFwD+ANcv4kMOFupYywDgDJOegOV2nAYE5DDDAhTnKqR011aOt6s4mkRcYMSnIP19a57xBZT3ipidoUQoSfLJz+9TIXBABI7jtXBfsehc/zW/ib5Nt491nyWOPtt1hewzMwxXns0rPsJ4J7ivQ/ibcST+NNaYqV2Xtzuz8pyJ2wOOue+fxrhIvMgddhwXGOe2a+XlufbR2RAfIUFGcvkEE/WvpL4WftlftafBPQP8AhDPhJ8Qtb8OaN5rz/Y7C58qEPLje4XBwzYGTXzs0X2YhZgsmeQR2+tV5E+2XHlEBEIA8wDj6VVOpKLvF2M6mHhNWkrn2fqH/AAUR/btuSZYvjH4uBYchdUmA59ACAPwryfx5+1j+098U/Cdz4G+K3xK8U+IdJu9jz6fqOqXNzZymF1mjMkLyGN9kiK65HDKpHIFeDtELOFo1xIFJAOOoqm1tGbRpY02OCuFj+XPI447evtWssXVe8mTHCUo7RR6P8PPjH8TfhPfTa98JvFGreGdRurUWk1zo95NYzPb70cxM8DIxRmRSQfSvY5f23v2zxDHF/wALk8chBkhY/Eepx4BOcHZcA8dsnpivlfy8wmUFd6t8wQn5fbPpVUSAum2PAZ1H165NTHETWzHPC05O8on1Mf2yP2yC25fjT8QF9v8AhKtY/wDkquf8W/tHftPeOfC974M8d/FHxp4i0PVUaG+sL/xFqlza3MT8NFNBLctHJG3RlZSCK8CuLErIwPz4PQcH86uGS425cDaPSm8TUejkCw1NfZQw3AuLoXBEqyJtAOduNoA4IwQRgYIIIxwc17J8C/2gfjb+zZ41j8f/AAO8UX/h7UIyxZLaYm2n3KFxc2j77a4VQB5azROseMoFNeNRzW8TG1t1J3fMznkgHrj8aT7PGjZ2g+hI5xUQqyj8LLnSjJcrWh+pmvf8Fmf+CjvibwtdaFP8Q3tlu7d7Z5Law06Gfy3UoxWVLYPHJjpLGVkU8qwIBH5eT3epTtPd3VxLNPeSCS5nuXa4nncNuDTSzF5JSvO0uzbSSww5LFilWtxZNEMpO8wk2EsRJCIyhII+VFVpFHQPg9apG4uZB5Mo3huM9cZ7iqlXm92RDDU46xjYkSdrhs72+Xr7+9WF25Lbic8KPr1p6rM7vCilwqjB71HbwxLiO4uNi5+YenpWJufux/wbzZt/+CgurIgVd3w71cnDEn5dV0bHFf21xoNoHpX8Uf8Awb6L/wAbA9Uihl3Rf8K61jaAeP8AkK6N26d6/teQjFfS5b8Fj4zNH+9bFx7mjHuadRXppHlCAYppQHn/AD/On0U7hYaEAOahubW2vI/JukWReeGGRyCD19QSD6gkdDViilcLFD+zbTBUjIIx9ARjg9Rx2GBVpIVjG0dBUtFO/QHruFIQDwaWikAzy1/z/wDrpwGBilop3FYKKKTK0hi0UZB6UUAFFFFABRRRQAUUUUAFFFFABQeeKKKAGeWv+f8A9dLsA/z/APrp1FO7FZDNgNO2rS0UNjGhADmnUUUN3AKKKKQDPLX/AD/+ulCgcinUVTkwCiiipAKbtFOoouAwoD3o8tf8/wD66fRTuxWQzy1/z/8ArpQgBzTqKLsLIKTAPWlopDGbF/z/APrp9FFNsBCAeDTfLX/P/wCun0UXYrIQDAxS0UUhhRRRQAUUUUAFFFFABRRRQAUUUUAFFFFABRRRQAUUUUAFFFFABRRRQAUUUUAFFFFABRRRQAUUUUAFFFFABRRRQAUUUUAFQzMVTcvB9cZ7eg5P4VNUU0YkjKk46/y9O9AH44/spW0Uf/BXz9rC4i+Vp9G8AGTLKdzCwveQByowANrc8Z6EV+wIHyjnsK/I79mVZx/wV3/aiLRqUOheANv3QwAttRUtx/CcEAH61+uKhSOSp69WI/Siw1JrYr5uP8j/AOvRm4/yP/r09S3nEHpU9KyK9pI//9X+7e5a4iuikrBABuXLouT/AMCNU9TtbOdI2j+dixJYlWGfl9GroL37emoK1syquOQylu/swqa8+0xojsqyMAWO1euBkDBJ/u+tc9oreFwP8zP4l28dx8Staikkz5Wo3bjKlQP3zY4HUVwMkKpCkKtvbccKRzz6np9K+j/iR8KviFP471vGj3zA6hdsJPJYkjz2PbqK4X/hU/jwxh5dC1DJPyn7LN1H/Aa+TlB32P0GFeFlqeOSRSBkc9CWGPTFQPby/KA21iSecYr2aX4V/EGSQs+iX4BA/wCXSbt/wGlT4O/ESZAiaDfPETk5tZs5H/AaHSkt0V7eHc8itII5EceaCwJJHQH6ZpqWV1FuuQ+QSQApBwfTI4r2G4+CvxamLNH4a1dVP3Sun3BVR6qRHznrUkHwa+KifuI/DGsTZHVdOusZHU8RY6VPI+we3h3PDU0+ZZ0a2BQNkuCQQD9O9aFqII4SsnyFP5+o9q9rb4L/ABT8h2k8Ka2QBwRp111/7905PgF8Yri1WW18Ja1tkQHH9nXBbOfTy6OR9g9vDueDzzTZbdjLHIGR/jTJopIH8iN8ll3ADnj+VfRVv+zl8eJnWW28CeJpDjquh3zqfoywEH8DUV3+zZ+0BJP/AKP8OfFZzwBH4e1U8emBa5o5H2D28O54QLISbXeRlPfp/So3itmDIoYkN978q9+j/Zl/aKlK7/hj42TZyA3hnWQT74+x9PerT/s3/tDhCt18OfGUYPTPhjWs/wDpHRyPsKWIglds+fLxAbIRx5KDhn6Hn3PWq8VqtyIrhXwEB4UYyfTBr6Cf9lz9oyOJZk+G/jbyc7iy+GdZI49jaVYP7MP7SFxOEPwx8blCjP8Au/DGsnGO3/HpRyPsKOJpvZnz5PbPJFG5wFZ8DJPoew5/Pir/ANk2PsVi7DGQduB+fWveh+zR+0dAxkl+GPjaLzFxuk8La2c+gG2yY5/CrOnfsuftQXLGK2+FPjwKOd7eFNZCt9C1mM0cj7Fe3h3P0/8A+DfWJ1/4KI6ncSdB8O9aJIxj/kK6H2/4Ca/tjXoK/h9/4JY6p8Rv2Lv2rNQ+MPxk+EfxQOlzeEdU0NX07wN4hu2a7uL/AEueJQI7HaQyRPyGOCpHUGv6MIP+CtnwmuIRNB8Ivja3G4g/DLxSP1Nhj9ce9fUZdBximz47NKsZV7xP1Zor8n5P+CuvwvRwq/Bn44MPUfDXxHj/ANJKF/4K6fDJ/u/Bf44n3/4Vr4jwPr/oldrdjzT9YKK/KS8/4K3/AA1tcbPgv8b5sjPyfDfxD+XzWo5rOP8AwV9+HY3/APFjfjp8ihv+Sb69znt/x70lNPYD9bKK/J5v+CuHw84B+CfxxXJAyfhxr+Bk47W5P6Vlzf8ABXrwnb3PlD4A/HeSPaxEv/CvdVVCVYLjDqrZOcjKjgUOaW4H66ZA60oIPSvyPm/4K5eFRIVX4BfHQgY5/wCFe6s36qhFJ/w9v8PNH+6/Z++Ov1HgHUV/RyrD8R+lZvEQW7Cx+uGRS1+Qcv8AwVttV4j/AGb/AI7OfbwNcr+rTgD6kgetU2/4K2bxgfs2/Hdfr4NPPtxd/wA+Kyq46lD4mB+w4INIXUHBr8fY/wDgrTqkk0cD/sufHqJGyPNbwnblTgZ6LqJYfiBTz/wVsu41i2/sz/HdxN0K+D1YL/vEXuBU08wozdoy/MD9fyRj603y/wDP+TX5BXv/AAVg1IqRZfsy/HW5ZfvbfCkEYBHXmbUIx+VVrf8A4KreKJI/tH/DLnx02jsfDmn5/L+1q7KVRS+E2pUakleCufsOMIcE9afX4/r/AMFU/FUpVo/2Wvjmc+vh7TF/9C1cVsp/wVI8c7fk/ZU+N7j1OkaGn6Sa4p/TFbQwNao7xRp9SqvdfkfrPUfmR+tflKP+CnXj1wH/AOGVPjaM8/8AIL8P/wDy+qqn/BTf4jyP5Y/ZP+NwPvp3hsD/ANSGk8Div5PxRLws+x+syurHCnNBYDg1+Uv/AA8u+I8aeY/7KXxsx7ad4cJ/JfEBNUf+HovjsSGI/spfG8EDP/IK0D/5fURwGLf2PxQ1hZ9j9Z/MX/P/AOqgOp4/z/KvyVT/AIKiePZZY41/ZX+NaGX7obS9A7HHP/E+46VfH/BTvxuTgfss/GrJ/wCoZoH/AMvar+zMZ/J+K/zD6rPsfq9RX5SL/wAFNPiGwJX9lP42H/uG+Hh/PXxTX/4KZfEXj/jFT42L/wBw3w6f/QdfNS8Bi19j8UDwk+x+rRdAcE0CRCcA1+UY/wCCl/xLPKfsnfG9x/eGm+HMH/vrxCD+lKP+ClfxPP8AzaZ8bx/3DvDX/wA0VZfV8T/L+KMXTZ+rpIAyaZ5kfrX5Xf8ADyH4p+UZj+yj8bMDt9g8NZ/L/hIagb/gpT8TgM/8Mm/G4/TT/DR/92Kl9XxH8v4onlZ+rHmR+tHmR+tflN/w8q+J/b9kz43/APgu8Nf/ADRU4f8ABSj4nmRY/wDhk7428jOf7P8ADXH/AJcNP6viP5fxQ+Rn6r+ZH605XVjhTmvyj/4eV/FD/o0z43D/AHrDwyo/NvEQFTx/8FI/ilI5T/hlD41Lxn/jz8Lt+i+Iyaf1bE/y/l/mLlP1XphdAcE1+VB/4KS/FbJH/DJ/xt/8APDX/wA0VPX/AIKQfFphuX9kv41sPU23hNP0fxMrD8RS+rYn+X8V/mHKz9V6K/Lkf8FIfiqThf2T/jMSeg8nwj/809WIv+Civximbav7JfxmXv8ANH4QA/8AUnrd0JrdCP0+or8w2/4KI/GNHCt+yb8ZMHuI/CJ/92anSf8ABRH4woyqn7JnxmcN3EXhDH/qT1Ps5dgP06or8xV/4KEfGsyBf+GTfjJgnrs8If8AzT1I3/BQX43NL5Uf7Jfxjx/eK+DwP/UnqHFrcD9NqCcDNfmF/wAPAPj/ACBzB+yT8Xvkx99/B65z6f8AFTGpx+3t+0R5TTj9kz4q4XHyvd+CUbn2fxQp/SkB+mYkU/5/+tT6/Mq5/b5/aGgfyx+yV8VWzxkXvgc/y8VE0+L9u/8AaNllEY/ZN+Kgz3a58Hgf+pJQB+mVFfmtF+3R+0nLMYU/ZL+KLHBOft3gpBx7yeJkH5E1BJ+3d+0aoV2/ZN+KCBxuAOo+Bs4zj/oaaAP0wor81I/27P2jWQH/AIZN+J5/7iPgb/5qadJ+3X+0TsOz9lD4nk9v+Jj4G/8AmpoA/SmivzZb9uH9pbzxGn7J/wASySudp1XwKDj1/wCRoqd/23P2mo8b/wBkz4l8+mq+BT/7tFAH6P0V+dC/tq/tMvbm4H7J/wAShjsdV8Cg/wDqUVSm/ba/acht2uG/ZP8AiVhFLEDVPA7HAGei+KCT9ACfQUAfpGSAMmm+Yv8An/8AVX5uXX7cP7RtvD8n7LPxHe4V9rwDU/BO5QRkNuPiYRsD6K5I7gUy1/bi/aZuIw6/sn/EoltvB1TwKOuf+po9qAP0m8xf8/8A6qeOea/Nq4/bf/aTgVMfsqfEuSVi26GK+8GO0YBwGd/+ElEZDdQEd29VBqon7dn7SDSmH/hkz4psV7i/8DgHHoG8Uq2D7gH1A6UAfpeSAMmkDA9K/M5v2+P2hlDn/hkv4qEJgZF/4GOSTgj/AJGrtUrft6ftDIm9v2S/ir0z/wAfvgb/AOaqgD9LqaXUHFfmKn/BQD9oSfP2f9kr4qnbwd194GB/9SqtqH9uj9oG5sBd237KvxQeXcVaH7X4OVkAUtuLt4kERB6DY7HPagD9IqK/MmL9vL9pC5Uy2f7JPxTdBzl9Q8DIcD2PiqrD/t4ftGKN6/slfFN0wMkX/gYcnnGP+EqoA/S6ivzMk/b4/aIjj3n9kn4qk56C+8DH/wB2qo5v+CgPx7hjEn/DJXxccH+5N4Nf9U8TsPyNAH6aB1PH+f5U+vzMf9vv4+pB5x/ZN+LPHUGXwcMfUnxMAPqSBUa/t8ftGvG0y/skfFQqoJ/4/wDwMOhwf+Zq7HigD9NiwXrQCCMivzPT9vP9o6Rd4/ZI+KgGARm/8Dc5/wC5qqSL9u/9oyY+Wv7JXxTDf7WoeBVH5/8ACVUAfpbRX5wD9tr9p6SN5Lf9kz4lNsIGDq3gUdf+5o7VE37bX7UajMv7JnxJVe5GreBj/wC7RQB+klFfm+P20f2qXG6P9kz4kEep1jwKP/dop8f7Z37V7yGNf2SviLgDOW1vwIPw/wCRnNAH6O0V+cY/bP8A2r5BiH9kf4jkjru1rwIo/A/8JPzUf/DaH7Wnb9kf4iMfQa54E/8AmmoA/SCivzgH7Z/7WxYKf2RfiMATjP8AbngP/wCaekf9s39rUShP+GSPiKATjP8AbfgT0z/0M9AH6QUV+blt+2d+1rPCJX/ZI+IqEkjB1vwJ2OP+hnqzH+2h+1O9uZn/AGTPiOhCo2DrPgT+I4x/yM/bvQB+jVFfnAn7aP7VJPy/snfEQ/XWvAo/92enn9sz9q9sbf2TfiGBnB/4nngXv/3M1AH6OUV+cY/bP/aq/h/ZN+IbAEjP9t+BR0/7maiP9sv9q6TJP7J3xDBHQf234F5/8ufvQB+jlFfnIf2zf2sP4P2SfiJkdc654EAH/lz06b9sr9rJGYQfsl/EKRR/F/bvgUZ/PxNQB+jNFfmwP21f2ue/7I3xC/8AB94E/wDmmqUftoftbEZ/4ZL8fD2Ov+Bf/mkoA/SKobgxiImY4XByfQY9a/N3/htP9r/v+yJ8QVHqdf8AAmP/AFJaik/bR/a8dCB+yR4+z/2MHgUfr/wknFAHl37MdsR/wV5/agvSrbbjw/4AdWEbBSBb6kg+YjBPy9c1+t25FJCqGHr/AJNfkT+xJ4S/aO1b9u/46/tK/GL4Yan8NtC8c6X4TtNKh1e60S8nml0qO8iuPn0bUtQX/lsjAuUOOCAACf12tog8IZML1yuQ2DnkZHoaAGeYv+f/ANVHmL/n/wDVV7yY/T9KPJj9P0oA/9b+/UxoTkimGBd4cEg8dPbP+NTUUAVlRFUKMYH1oEaYxx+VT7Fo2LQ7vRlaEHlp7flShEHYH8Km2LRsWkopaoEyAxxnsP1pvlR5z/U4/LpVnYtGxad2GhEFQHIA/WkCqOOD9am2LRsWi7DQiCqOmP1pCiHjAH4VNsWjYtF32DQgEcYbdgfjzQYVc5x+XSp9i0bFou+w1K2xX8jjb2o8pNu0/wBR/KrGxaNi0XYOV9yuY0PPp7n+tOVVXOMc+3/1qm2LRsWi7FZELQJIDu78dB0/KnGCMnJH6n+VTAY4ooJIBboDkH8MD/Chooh95QfwFT0hAPWgCNSqjHP+fyp20Hml2LTqAI3QFeT/AC/wqHyYN5kxyfXn+dWiM8U3YtAESQxkc8/UD/Cn+Uo6fyFPAA6UtS6aAgRQOFxTlwT0qQKBRgZzSSbXvjZXFnACxAI3deT/AJH4U9YI0GAM/Xk/mcmpqKXs12EV3toXALD7nI7c0AAc4BPrirFFaRVthO/RlVo0fG4Dj2pwRBwqipyqt1pNijoKqUtLIpbbkXlZ5qH7FF+fuau0UKbRp7VlUWqKMAfnzTlg28CrFFDnJ9Re1ZWNuCCOmaf5XsKmoqby7h7VlY2yng4x+X8qBbIv3R/n8qs0VSqS7j9qyEQx45FKYIyMY/U/41LRWbUu5m2RCGIDGKQwREYx/OpqKVpdxEXkx+n6n/GjyYsYxUtFFpdwIvIj7f5/OgwoTzzUtFFpdwIfIhP8I/z+NSKiKNoGBTqKOV9wIfLNOVCDyakoq23YBu0e/wCdLgUtFR7wDdo/z/8Aqo2J6CnUVSv1AbsX0pQoAxS0UwG7F64o2L9KdRQA3aKb5a4+b5j6/wD6qkooAaFAGBSeWv8An/8AXT6KAI2iyRgkAdhinbQetOooATaKbInmRtHnG4EZ47/XI/On0UAVo7WON/MBJP4c/XH16dPSplQKc0+igCtLaxTnMme2MHGMe4wasFRnNLRQBH5SDoPenFFPanUUAMKZ7/y/wqCSzhlBV84Oehx1GOMdDz1HPvVqigCPykIxQIl78/X2qSigCPyo85xz607Yuc45p1FADNg/zimJBGh3dT6n/P41NRQAwIByeT6nFOIFLRQA0LgYJzS4Hbilpku7YSnUc0AKFHU80jRqwwf0rN0e4vbqzE19G0MhJG1sZ4PXitWgBqoqjAo2L6U6igBhjUjpj8qQR47/AMqkooAZt9/5Uu0d6dRQA0KByKGUMQT2p1FABTdvvTqKAG7fQ4/rQq7BgHNOooATAPWjApaKAE2imlAcckY560+igCm9jbyTee4JbG3rxjnqO/XocirSqFGB/nNOooAKKKKAP//X/v4ooooAKKKKACiiigAooooAKKKKACiiigAooooAKKKKACiiigAooooAKKKKACiiigAooooAKKKKACiiigAooooAKKKKACiiigAooooAKKKKACiiigAooooAKKKKACiiigAooooAKKKKACiiigAooooAKKKKACiiigAooooAKKKKACiiigAooooAKKKKACiiigAooooAKKKKACiiigAooooAKKKKACiiigAooooAKKKKACiiigAooooAKKKKACiiigAooooAKKKKACiiigAooooAKKKKACiiigAooooAKKKKAP/Q/v4ooooAKKKKACiiigAooooAKKKKACiiigAooooAKKKKACiiigAooooAKKKKACiiigAooooAKKKKACikJwCarNLIJAM4B5A4z79/6UAWqKKKACiiigAooooAKKKQ0ALRVeKVpDzjqw45HBx+dWKACiiigAooooAKKKKACiiigAooooAKKKKACiiigAooqvczGCPzMgDPJOMD65I78UAWKKr2zl1bcxJBOQcfKfTj0qxQAUUUUAFFFFABRRRQAUUUUAFFFFABRRRQAUUUUAFFFFABRRRQAUUUUAFFFFABRRRQAUUUUAFFFFABRRRQAUUUUAFFFFABRRRQAUUUUAFFFQTuyJlc/hyaAJ6KwbPUJLq5fa+VQ7GUFTtccsG25wcMuAcH2PWt6gAooooAKKKKACiiigAooooAKKKKACiiigD/0f7+KKKKAPys/wCCjfxJ/aF8IeIfhB4B/Z68ZS+Brzx34sh0a/1NdNstUP2eRNwxb32UTDYyyqGzxmtPR4P2iP2Ofh541+PH7Tnxe1T4w6DoWktdjTrPQNJ025jEBEk8kJhliSRzGcYlaNEU5zwK+YP+C1178GobL4J/8L/a3j8Hf8JvCutxXm8xy6cyiO6Uoh8wq8W4YA+YHjrXiknxS/4Jb237BP7QHwC/4J8XejWcCeEtb8RarpOk2l5aQOfsSWZu2W5jUmQ+RFEoRyNqg4zzXO0wPuf4C/8ABWj4HftE/Gfwr8I/C3hXxlpA8XaVPqOmatrWkpZaVcXEEazzaclz9pffe28e7zwsTwoykGZSUD/oT8TfiX4Y+D3w/wBZ+JvjR5YtI0CymvrtoYZridYoAGZkWPdI5xxsVTnIOdpr8oP2dJ7u4+Ff7Dd/azGaNtOVbmaIPIHnk8J3j/vGiYRqHZXY7wctjOGHP3X+234++Jnwj/ZH8b/Ej4PwPJ4j0nRpJrB1i+0mGTZte6MAG6T7LFumCKS0m0ptOQCJMD5m/Z3/AOCtPwV/aC+NGmfAPUfBHj74d654jt5rvw6/jPQxptvrtvCjyu9gySzSMnkxvMDLHC3lKXIwDXC/sq/Fmz+DPiP9q34m/GDxLq134d8KeNLq/dry5vdSNlZWljCWgtYpHn2AgEpDbRoWYjAyc1+bPhz44fBrxl+1Z+yV8VvBfxh1/wCNenafruu6BqXiy9szaWI1nW9MSOysFhSzggWclH32cLm5gVUkuR8iM32V4H0zwd8S4P24vgTrmn3euag2r3F5c6Jp0wttQaO+0xZLExSSI0cbTGHfEzpInTejjMZLMDtdY/4LV+HdHnisNc/Z6+NdtqN/F9r0TT4PDUV1cavArxeZcWkVpfys8cCTLJOXZFjRh5oUkCvuz4f/ALY3gL4iePfix8NNL07VrS++D81rDqxnjt1+1fatPOoo1oRLIrqUUx/vVgIYEY2BWP5A/sz+KPiO37Rfwr+Kf/BSTxhrB8QaXaTaH4Ng1bwrHoGmQ63q+y2uRc6qkjie+uY2SC3iNpYRs+AIfMZANT/hofwP+zn+2h+1B8DPi5Jc2mvfFdNLufBuj21pd3d5rQn0ee0kazij86JwJIBGZHSMNJvRpGEYVV7WUdEgP0A8T/8ABTj4HeGf2bvh5+1L4w0bxLpXhr4jyzwWqvaW0t/p8sNneXYS5tYZpS8j/Y2SGK3F1I8zInl5OB0n7KX/AAUK8BftbaZ4ym0/wf4w8Dan4Iit5dU0nxRpJtNUghvEklglFlA9xPulSNmWLG87PlBNfn58JtH1rXf2Lf2NF0nTb2aOw+IGnNcxm0uQ8FulrrAZp0YfIh3KG3AIMgZ6V9Y2snxK+Hf7Wv7UnxD+Hnhe61jVP+EL8NXei27wyrFqep2Vrq/lWyO3lo7M6xxkhwQXUZBOaXt5/wAp0x5bGL8Lv+CsHgf4nfE/wf4Ru/hX8TPC3hnx1qDadoXirXdHSy0a8maB54CJBcteBLpFLWrPCBKHLBRGplT2D4j/ALdXijwb8ZPEnwn+G/wl8ZfEGPwjLZxa1qejpp/2K1e7t4r5IYjd3ltLdT/ZJY5JIogWQMhKnfub8lPCvx/0X4o+AfgrceL/ABr4p8d/EDw98RfD1x43uZdO1GCx0XUJp2s5NNuIoYYrC2nW8uYIYoRuubgsTGFhDbPoH9szxL8K/B3x48bTfBH43eNfBnxg1OztdTt/B1pYPqGj69qMNhFa2lwLGXT2e6S8gjitJLmzu4YswlCxeGRRdOpJuzRNRq2h+8uoazPpeiXeuQ21zdvBHNJ5EaB5WMSsSiKu1XdigVRu5JHNfjv4a/4LZeFdY8d+FfAXiP8AZ0+OXg+bxhq1no9ldeJPCkGnWy3F3KsfzNPqIkZYlJkl8qOR1jVmCNjFfrP4L1/xVp/we0rX/ihaCDXIdIhudXt7JXnEVyIBJcJCigu4DhlRVBJ4AHSvxS/Zg+MesfGD9pm9/ab/AGovBnjHw/qME7aP8PfDkvgzxHOvh/Tr+KOK5urm6j0lraO5vJcebN50SxQl42YxrukupfoYH0T8Yf8AgrB8N/hh4/8AFvg/QPh3438Y6J8PLu3tPEvinQLW2u9H066mbbLA0pvYpJ3tD8l3HHGxt3wsigkA+2ftF/t//CT4AfD3wd8W7fTNc8baN44hnl0U+FLUanLeFbKS/t0ghiYTTNcogSFIVbcx+Y7QSPzL+CfxI0/9jP4H/FH9kn446JrMPjnxHqmuzeH9NstK1C+j12C+t/Ltp7O8tYHtZVncZkSQxyQBgJwHK5+hfgb8G/ib8PPhn+yD4P8AF/h++il8N6rfHVrZILi4XSY7vw/qYhjvHhV1h8l7iOEySsqLKVUNnFYupNOyRvTtbU+jf2aP+Ch3w6+P3hr4i6xqHhTxb4LvvhlFHd67pOu6a39pR2ktu9xE8Npp01/JK0iwybYIFNxkKBAd8Lyeb/CT/gqtofj/AOJ3gvwL4r+EfxC8EaV8Rbmaz8P694i0uO0srqeJHdEkAuppoDMiboTIg81SCBg15X9j/aI+GX7QP7aXxO+FXhfUjrmpW3hiXwk9xY3Bt9Sv7bw86SfY2k2x3qW8q5dId371SpG4kV83aR8Sn+Jlj+zrZS6t498c+LfD/j3Rb3x1quvaTqtnY6RfXdq9q9m6mwttPgnhu7+GGCBQZkt33zs4ZZWpJvcxlufpn8Qv29df0r4xeK/hP8GvhP4r+IyeBntIPEGo6NJpkUFrNewm4SCFL6/tZrqVYiGkFsjmNv3bDcMV+gcVzJ9mSbbJGAgJBIZgPvFt25wQR6Fj2B9Pwa/aW0v4aeHPH/jjXP2U9X+JHww+LGordXg0zQPD1/No3ifUbSPZZ3LifS7uzltpJZYVmubS5tlUlWuJSoYt+yFrZePvE/whbRfFkcem+I9T0cwXIiLeXbX0sJBCMHcGONztUhzvK5AxydpbCP55v+Cif/BS3SP2kv2S/HPgX4HeD/HC+Hn8QaRp9p48hggh8PTy6brFle3UaX6Xkswjlht5IFdkRZZ2S1C+ZIAf14+Iv7X83waHgb4T+EPB2u/Enxr4g0can/Y2gzWf2m10+38uKW+vZLme2ihgkdtkJdg08oZIw0qlR+LPxRuvGepf8Ef0/YR034V+MNK+JWgtoYm0nTvC+rzWs6aT4gtL261CG+htHtZVu4bd2bEvmNK7gKVGa+vPjR8JvEngr9r7R/jr41vvHOg+F/EngHT/AA5Fqvgexu9RvrLULSfzTY6ja29hqc1vBIreZHKYETzlKOVbArDlYH60fsx/tDeHf2n/AIMaN8XNA0+/0aHVhNDPpusQ/Zr+zurWZre5trqDPySpICrBSQGGCc8V8ff8FI/ih4k1my8I/sZ/CPXtU8OePfjJcyppWsaZLPAdNtNHZby7ne4tpYJl81SsEaRTRlt5ZmaJJEb6E/Y4+H3gfwJ8OtZ134b3fim9h8Wa5e61cyeMYLu01Q3rLFbybrS8t7Sa3jlFss23yEDby+Mtk/nh43/ZU+Jn7bX/AAUB8T/F681jxX8KtK+EVpaeH/Cmo2mmQQPfXt0tx/aN9ZzanaSxywGGb7J5tuM7Tw4wcjTNaTSlqe6fs4/tuC5/4Jo2X7S/xBsNSu9T8JaU+n69ax3Ec15LfaSy2VzOkpkWJvOYfaUkywCyoSSy4PHz/wDBYn4S2OsWlpr3gDx1pdh4nM6eCb270iWNfFt1bMqrBpqblkiEu5fJl1JbZXT94cRndXzH4o+FPxi+AfwT/ab/AGJdB0XxX4yj1/Sb/wAaaH4mm0+Sb+0bnVYoo77T2awt0tzdJd/vBDEm8wuzkA4J+t/2x/h/408QftXfsp+J/BvhjUr7TdA1rURqMtrbzSQaZDLaRKjXMkMZSLmNkw5VQwycU1FhWacnY+hv2fP27/Avxo8E/EXxV470XUvhfP8ACy8ltPElt4pa2Q2SwwC5Nw0sE88LwGM7hIrgYHFfnf8AsafE+TVP2sNJ+K3x20v4k2viT4q6Pq1z4J1rxLd2A0GbRN41NLO10bRr64hsZI7Bbd1OowQ3c7QO8jGYyqO8v/2cPix8Tpf2zPAPh/Rb7S7vxteWX9gT31vLbWmoyRaaqYilmEUc8LyJ5crJIUGcMwrc+Afhr4L/ABds/hd4I+Ivgz4nWnivwe1nqCQ69beK7XSdJ1TSLSQNO1/cmPTJY3dZIgkdxNHPFMo2bHZUhVZvRo2916XPoH4Bft2+Ev2tvil4h+B/gbwj4lt5vC9zqdlruoyA29lYyaddizjjN7G4BuriUSSJCm6T7PEzTIA6BvAf2Wv2tfhP8D/+CXXw0+Lvgq38aeNLXX9ll4e03UXgufFesXmp31ysULkPb2/nPIJGyWVIUU8BQBXtf/BNPwT44+Hfh340L410nVNLGq/FjxbqOnjULSaBp7O7vA0M8CPBGzW8nJjdd6kZIOOv57/Ab4Q/GX4b/wDBNn9lPxJr3gvxFcXvww8RWeq+IfD1tp9xJqkVr5t9C9xHZBPOllhMqOY0BZoiWQE4zrTTvqZ1IRS0Z+oej/tqeL2+CfxA+J/xD+Dfjrw7q/gS9j0yTw2tra3Wo6vPcJbNAdIayvJre6SZrlIFlScIkiSBnXY23nfgP/wUDn+IP7UUP7Jnxb+Gnin4beL7zQv7fs49dn0e5guLQPJGAG0u+umjnk8qSQI6hQsbglHBjPP/ALTX7Q3xN+J37JvxC8R/su+H/GWmatpv2K1srm50C70/UZUe5je8fTtP1SCG4maO2LFGe3Cls7SQM18g/Cjwh4n8Sf8ABWX4dfH3wL4Y8ajwIfAcvhmXWvEWka1ZStqFqt3dutzHqsSS2kOyeLyi8UEDzu8cLOyso2MD9HP+ClOua/4Z/ZM1nXPDOp6hpF6mq+H4I7nS7uWyucXetWVtIgmiIcI8crBwCNw4JxX1d478Sv4R8G6p4xe1u7ttItZLw2unwvc3Uywgy+VDAjBp55AgjSNWy7naM5r5V/4KW6B4k8Ufse+ItH8IaVqGs6il/oV3FaaXbS3d1ILTWbK5k8uGFWdiscTtgDtXlHxD/a6+MHxM+D3jzQv2aPh14y0z4iW/gzVNT8MyeJtEbT7KTVILQfY7d3uHVDLJdSwq0DYYoH6DmgCL4Pft/wDiH4jfE3wX8NviX8IfF/w+i+IwupNAvtZl0x1uRbaeNUxNHYX11NYM1qmVW48pvMDIVDKwHlX7Kf7Xf7T/AMW/24/i98KfHHhPXbXwroUml2cFu82iBPDQGnzztJcNbzSXV3JqbhJbcwfaFRWRZPKwwryjw54k1DXPip+zl8QF8P8AxI1jUPDN7Lb+L9Q1jSfEcUNvealo89iXNvfxpbyRm/uw0k9iDaQRqy7kjVFPvf7OyeKPhb/wUq+Ptn4v8OeIbTT/AIjz+GrzQNYXSryfSLlNM0Yx3SvqMMT2sDoyFQJ5I97bUQs7Kp5+VgdD8OvjN8Kf2Mf2SU8bS/8ACUan4ds/Guo6HPLq17JrWqrcv4iutNlnZm82adTOp2pFvklBVvmneRz1PwB/4KE6V8XvjPpn7PXjHwD4s+HXiTX/AA/L4n0VPEtmsP23ToLlbdjLHFNNJZ3ILrIbO6MdyqZEiowwPIPiP8PPiXe/sg2Ph628O3l5fr8Y31R7FreRZX09vH894ZzGyhvKNpIJg2MFCCDyK7Tx/wDDP4h3H/BVv4d/Fq10K9udFsvAGr6fcamsUn2aG4a8jdYZJtpw0udyjB7npVQTuXT3MqP/AIKX6tp7Dxj4m+DPjfSPAQ1+Lw7L4n1D+zLeCKebUE03zWsP7RmvxD9qfyllEIBAYgfKQP1k1a6trGwlvLyVYIYkZ5JHYKqKoyWLHgADkk8Cv5hfHV7+0B8Uf2QtX8J/Grwp8RNZ+Mr+KbS9lt49F8QtosWm2mq292Sq26RaTdmKxt2VMCa5MzKFjLjj+j/40+D734g/CDxT4E02VILjWtIvrCOSQkIj3Nu8SsxHIALZOOcVsVUa6H59/BX/AIKJa78fvEOgX3w2+D3i+78AeKNQurCw8XyR2S6e6WYn866e2a6F7bWjfZ5BG80C+YxVIxJIVhfzPxt/wVj0bw9F8RfEXgD4WeNPGfg/4Uao+h+JNe0tLGOO1urYtHc+XBd3cd3cxxSJiWZEVVikS5z9lYXZu/sI/Fjxp8Jfgv4K/Za+I/w58cWnjDS7h9P1GRtFl/sy3Et1I5vDq2F0+W2QOJW8qZpGOQsbYNfMfwW1j4q/st/Bf46fs/fEb4WeK9c13xR4m8SXfhsaXo8uo2mt2OrRC3tXkv7NJrO3WZojJKb2RGjjkXMbFWRQyP0r/aP/AGy7T4EWXgO88PeEdf8AHs3xFL22i2vh5IpLl53hjkhR1mmiEaSRsZGndhHBHDJLKyqDj5G1v/grvbaAniG2ufg340k8Q+AI55/G2kKNP8rQLZRHJFPNfC+exuvOV9ypZSXMsaI7SiCNBJJ75onwf8deArP9lzw1q4udSk8CW89hrt9ErXCRSxeGbmzaaWVdwTdcDbuZuXbGWJyfkj4nfBv4rT+GP25n03wtqk914w0xk0JbeCRptQZdIePZaFQ29i5CgLn5uOa55Rdxrc+0/E//AAUH+HGnfCH4b/EHwFpGp+KvEHxfWJ/Cnhq1a2t9SvEdElnZjczwWsEdtGwaeaSZUVnjQZkljRvd/wBm79opvjfe+JfC/ijw3d+CPFXhC9jtdS0LUruyurpIri3juba6R7KeeOS2uI5P3cobBkWWM4likVfxg0D9mj45fDuH9kT9pLUfCmoXVj8KdFvdJ8TabZ2clxq1iNSSFLe4j09czSJEVJmjiR5QWDbCI+Pu39mXwD8QviV+3b46/bDbSL/wz4NuPD2neGNNtNYs7jTtQv7i1laWe9a0nCvHbqNkduJFWQhpDtAYZqmnfU6KjjbQ9w/4KCfHfTfgp+z1qkcV9LZ654xMPhfw8bd2WQ6tq5a3tXVlIIWEF7iQqVfyoZCuSuV+cf8AgmB448daDpfxW/ZT+JGvah4mvPhB4uu9OsNS1W+udV1W40bUEGpae2o31zJLNNdvFM7eblI1heCOMMUJrN/4KAfssfEH9tb9qf4TfDKK/wBY8K+DvAMN14y1DXNOhgJGrLIkGjpZzXdtc24vLeRJZXUocwuSfm8uuT+GHwJ+NX7H/wDwUA0660rW/F/xJ8KfFbQ7mDXdY11LS6n07VtMEZ06aWTT7GyBgWB5YWGQ7F1yzCMYx5Zc7ZzHrngz/gp78L9e8BeLfjnq2ga5o3w18GWTf2l4nvo4o7abV45ktW0uxg3C8vZ3ndbdJLa38hrgeRG7S7kWvqH/AAUG+NNhr/hXwlc/ADxTHq3jiPz9Es/7Y8PeZdxIgmuPnOprHFJFbs0mx5wzIkjxJIIpNvlHgzwh8Mfhf/wST1Tw3+2RoWlJpFpc61eSaR4xuodCsbi8bX7i80eB7y7MaWslxc/ZTb3DHMcrI4ywAPjP7PNh4i+CPxU+HnjT9tu0+I1/NdTWeh+EtS1+48N33hnTNa1a2a12WNtoUjX4N3n7Nb3F696fKI3y25d1N+0lHSwH1V8Wv+CnLeAvEXxRsfCfww8VeLdB+D0kcPijXrJ9Ot7K3d7aO4l8hby9jkuWtoZDLcRoqtEFyy/vIWl6n4x/8FJ/BPgK5+E6/D3w1rPjxfjVZS3PhqHQ/s6zTFTbFRJHcPEYgq3iNNLLNFFbqrGUoVYV8l23wxs/hZ8WPjn4N+P3w7+IniPQ/iL4nu9csLvwxNql7p2raXqllDbzWU0GlTxxwyR+XNGwugjOjghzEImPa+L/ANlrxDZftD/sg+Nfg/4IvfDngvwFF4jjvtNvJWlu9IOswWk0Ecx8248za0Moc+cwVsDjOAveep1QlG2p9Laj+2D8U/FX7MPxK+JHhn4ba94f8ZeCLibTJfD19Npy3Ftdx2tpctdC5F39gltooLxJiFuX8xY2EW84FfJt58Sr747/APBNXwd8Tf2ztD8UQtY3ngu5TVNOvbGym1+7v5rG1i1iGLT5nW2sri4vfOe0uEjcIp3QjKbv0MvfA3i2/wDDn7QGlWenzGTxFe3R0+PAX7QX8N6VaqYyTjmaJ0BOBkH0r4Jt7Hxj8Vf+CUnhD4O6F4Q8R2Xifwvb/D2wvtO1fS7rTbnzdJ1LR2u/JS8SIzRxxwNI0keVCkAkPuVXZmEHqfYPx8/bJu/gp8TbL4C+F/h54r+IXjPXLAappun6FHH5csX2iaGc3V/cTQWlhGix7ka7njRi6xxgOPLHJ+HP+Ci1h4z/AGbh8evAvw68Wa3qcfiM+F7zw3ZWsMuo22o/aVgIlYyx2otUMkRe5WZo41f5yGV8esy+EvEqft9x/EaTT5v7Hj8CPYfbArmP7QdVaTygVB+by2DYx0r8t77wN+278Nf2TPFel/B3Stc0nVtQ+K15dXj2dpLNqcPhm5ldp7jTY84lmfaDGApXDsG+8cJxkdPPE/Sj4UftoXvjH9q64/ZF+IngrU/CXiiDQE8SwyST293aTWTvFHjzYXJDGRnjBaMKzwTKjsUNff0s0aoDu68jHUjjoB161+B3wI+E3i60/wCCm1t+0T4J8GeMLPwDP4Bl0SK98Rtfz3kuqQXMt3LufVLm4uraGWGWGOBJmiUSRybUBJz+pv7Lvx81L9oX4RaZ8StX8MXvg/ULmS6tbzSr5T59lcWlz5DQyjaNjZO7awVsZ4IGa2pp9TCq09j8nv2tvAtp8ev+Cv2g/s/+PPF3iLw54VPwo/t/Zo+t32kI19bavc26bntpI1dmindmVsttiyvCtjvf2bPiprv7L3g740eGfh1B40+OfhbwJ4o0ux0CSHUZNe1i5k1e2s/tdkJ9RdYWg0y6nDXEsd1uhikk82NBCu+P9o39jK3/AGlP+CtXhvxB8ZfBB8TfDq2+GZt5rq7QGzj1WDVZ2hT7wYyCOYkYIAVuQcjH0F+018EfFH7OP7H938PP+CfXhVfCgj1O3mnsPCcMNtdNbXFysmpvbKykNdSLkibY8hG/jIFROHK/aLUyPf8AwJ+0VrmtfHq9/Zm8d+HLrRNbtvDqeIIbtbj7VZz2xnFu0f2gQRKtwrkb0CMQuWDV82fszf8ABRPWf2sPBGq/FT4XfCfxTNoWlaPeX7Sym1h+3X9oxMWkack1xELq5uEUqJwI7WKQNDPOJEaM8B+zf4X1K1/bWh8b+DfCnjuy8JXfhK60wav4pudQuB9rtr6GdlVNXu7y+toGix5YZk3lpAEPVIf2UPhn+0v8MP8Agj/L8PvAGizaR8TrXSPED6ZazbUnivpb27ltXXflDJtdXh3/ACF9obAzUKtN6NHV7ux9UeEf2ufFs/xL+G3w3+JHw/1Lwu3xLtry40157mO5ks57K0N5LZapGozaz+Qd4CNJHuG0Oa8j8Tf8FJZLHw/8U/iP4B8A6v4j8H/B/V7jRdd1NLqxhZ7nTm26m9natJ50sOnBle5eXy98Z/cCSRXRfkzwFp/ii9+OfwI8faV4M+Jl9daBd3MPizUfEVzqV1FaX9/pdzYlre31O7lghQ30cqzS2sCQKgVUYiSBH8c8Q/Drx54v+LvxZ+IHgHwvqfiv4BX+sXQ1XQ/BevWtpBrV3FGF1m61GK+ljlkupJPMSWOyltlkWGNZGdGkUl5R1sP2cV1P2O8Kfte6Z4ki+D+zS9y/GE3T6TNDcCSGOCDT5dSinc4yyzxRAqgG6PeA/INdraftG29749+JvgDQtDvb/UvhxbWUxhgaEyalLeWcl6kFohMeJSECHzGVCzA5Ar4KvvF3g3VfBf7NP7Sf7NXgvVr/AOHXg26uootI0S0SS70zT59HutLt4RZRSMQkMqrEVjZ1VcYYjmsvRr79qbxrrn7S/wASfg74I1nwprfjHQ9LPhFtbjt4JZLqytbuydyrySRpOWiU2yS5TLRmX92zUKvP+UOWL6nt3if9vLxh8OB8NL348/C/XfBGn/E/X7Tw1ZPcXtne3un6pqEqxWdtqFtYSOsX2hiQGgmnSJf3kuNrAex+BP2yNA8U+H/i1rmraZPpV38ItRvLHU7OZg7zw29st3BdQFQF8u8jYGAMS3c8MCfxY+Knw0+MnxX0D4C6vafD74n3HifwX8Q/B+u+MLzxHfXl3aK9ndxm/kgs7u+e3WR5GMyTWNpHDEiPEHVXRW95/b20/wAW+DP2sYfgx8MbWMxftOWOl+Hr+BHUbhpF6x1q42qwmkaTRJ2gd1GYo8k8gKx7efYVorS5+0vwQ+Kd18Z/gz4a+Lv9jz6MnibTINTjsJ2EksUd0nmxh3T5dzJt6fc3c+lfFXi//gpZ8MvBn7Ea/tuzaTqF3pcN5Jps2jq0CXovYtQfTLm13u6wk2txG+6UNzChfHXH6X6Vb22n6JBaWsSW8MUaokUQASNQMBFC4UKg+UAYGBxX852g/sj+I7P/AIKFap+y9r0dzd/Da+8Wn4y20ErBIZdkL20sEjgZYx6rdwFITvRrWFFJWXeK6YvQ5pbn9BvhjXJ/FnhDT9eeGayN/aRTGFyGkj89A2C0eVYpuwSvGRX4f/steLfEup/8G7Mvji71G8utTm+Fnii8+3S3EjXRk+zX7K3nMfMDLgbWzkYGOlfu/dfaILUTKvzAhQAcj5yNxYkZCjvjoOa/n3+HGifHn4Kf8E8dZ/4Juar8L/FOt+J9O0LVvCdrqmnW1pPo9/HqP2pIr6OaW7gMaLHOrOsoDfJtUHmlPYqnvqdH+yx+2fefs4fsG/s/258Nav4/1Tx5d6jo9jbaddxyX02oRXly0cbSXUkcZjCrJ5jyzKIxGcg44+6tG/bZ1KX9qXwl+x74+8IXGh+LvEfhSLxTdr9sguIbFJTdA2bPA3zTRtZOskiloAzBVkkBBb4+8Bfsq/GX4W/Db9krwTrmk3Fze+BfE899rYs03x2EV9Z6jIFlbc4ZYXmELMjtlsEcMK1P2ivh78W/h3/wVL8D/to2HgzWfFPguy8FP4buZdChS7uoLwXGoMQ9tvWXYftceGIx97+6awU5Q2RrUjGXU+z5v22fA2m6F8bPEniWzurPT/ghJdRajKTFM92LTTodSkkgVF+R1SZY0jYEsxUAZYCuXvP2vviH4U8W/Dz4eeOfBlppWt/E97y20iK61lmSC6sYDcy2WoMlo/lTmJHVPI+1JvVg7qSpl+QPh14Y8Tn4XftS+Nvjp4D/AOER0r4juL3TtO8YzWq21zFd6NFp9paXhs52VTJcR4kjhkV4jKqI28nHmXwfl8U/s+fEf4Qah/wUD8NeKNT8RarqkOheGNd1TWtP1Gy0/wARajBKGtrW0gMM26SFWjjeb7TN5MAYsGEjOnKUtbBSjGKsfql8B/2rdK+OvxM+J/wn0jTXtLj4YanbaZeyM3FwbmIz+apKoFBUH35DYwRXJfD/APbA8TfFv9nPwJ+0F8IvAuqeIj4+MUkemJdWlqdLt5DJvuL6e6KBYo/LYOEEkhOBHE2CR8XfDGP44fsoftbfH3xFrHwx8TeMLT4ka1pmr+H5fD1nBLFPBDa+S63F3NOkcLrK4BE7DEQfavQHB8A/Cj9oT4QfsG/An4T+IdC8TCw8J3s1n4z0zwxcSWusyWEEGopG0bWUsVyLaW6W3lK28sUrxgLuKsynohsNtH1S/wDwUF/seX40aR4p8LzrrXwTsrO/1a0trkS290l0k8oFvdOseB5caNh7deG+XeS4h9Tv/wBt/wCF9p/wpdtCabV5vja0D+HoY2EUhsHtUuZr65EoHyQrLbK4VPMEkyqBtLV8B/se/s9eILj9p/8AaBf4teA/E9t8Mfi1omlQ6eviie4vZLizt4biwvre7mmuri9Wa5WdisE8plVcYAIArzL/AIJ+fsw+LL39sj/hG/iFdtd+H/2VLLUfC3hyOVAk893rt5cXFtevtxsVNDNrHHGOGLxzAEbGrGKd9Rzkmj9kf2q/2mfBX7JfwE1P4+eN4rzUdO002FusFgqvPPLqd5b2FvtV9qgG4uIg8mDsVy2MAA6+ofFXxx4J8NeJfF3xg8OwaZp3hzTDqfm6dfm8a4WNJXlhQSQWjLKixHkgRyF1w2M4yP2t/Cng/wAU/BXVPDPj/wCHl18UtIv/ALPHd+H7EWTzTrHOkq3CR309sm6xdRcwGOUSpIitCBIqEfm74B+EPxb+Ilx8UfAPwl0zxr4a+GGueAbrSILHxve3ly7eILtpYEfT11O4uLuC3itMRtuYRMxjdIlYF5NKidtDKk1fU+jPBf8AwUBuNRu/g/4o8d+DL7w74d+NV+dP0G6ublZZ7eae2e8s0vrVEjjt/tUa4gKvO7EjeFX5q+6vjx8RrT4O/BvxX8Xb+3e7t/Cmi3+sSwRtsaSOxt5Lh1DD7pKoQDkc45r8iv2aPhnpOoL8OPAXxf8Ag38TZvFfhK60yW4uNX1++vvDlhqemiNW1K2NxrUlkYIzGZII4ImcBtiwqMiv1M/ax8B+IPil+zT8QPht4Si8/Vdf8N6rp1lH8o3XN1aSwwje/wAqfO4+ZuB34rNJhVa6HmNt+1Ppdz4D+EXxFh064+zfFa60u0s4fMRZLR9S0ybVVNw0i4ZUhh2HaQxYgZJxjyM/tj+M/G/xu+J3wV+CvgiXWb74WJZzX89xq0dgl/NfW7PDBZAx3KnhJV/feTEsqqSwLivkfwJ4g+Nus/D/APZv+Fcvwi8awv8ADPUdAXxBqFxbWdvaRtZ6bc6S3lI1ys8yeZIZ9yIY44txkKv5Ss/9rX4beFNU8b/EvxT8FfhJ8Q9H+M2o2RttJ8WeHpJ9KtNQ1EW3+gSy3dtqKQy26OIBMl3EMLGwdCdwpOLNKbjbU/SP4ifG/wCMfhr4meG/hl4M+G+pa/P4gtJrm51f7Xb2ui6S8XPkXVwwkuDLLkeX5VtMDjcVQA4g/ZV/aa0z9pnwv4g8SabYXGnXHhvX77w1qMEkvmIt7pDLFdiNwieYqyPgtsi3YOF4wfy/8Q+FP27vCnxA+FmmftK2vivxL4Eg8JJBr8Xga/ktrpvEvnXDMb17K5tJZ7ZLXyFQo6L5qlpWnU7R9lf8EyvhH8UfhR8OPHFj8VtFv/D93rnjrW9asbTUJkup00zUvKubGGS4Etw0rQQusEjmQs00L7icZK9rPaw7xPpqb47Qj9pyT9nW5051mi8MDxOuoo6+TJC161kYBG2GEiN5cpcblAwCRuFfIEn/AAU68DTeBvFPxN0jw5qV/pNh4oHg/wAK/ZZrYTeLtSS9W0nfRxJII5bSCR/mnDFWjjmYbvKYDnf29fhf8fNW/aB8Iat8EPDdxqi+OPCOueAta1GCVYk0SG/uLGWHUXLZDfZl+0yIuDlkGAW21W/aQ/Z3n+Cfin9nfX/gn4AudU8BfCDVdRe70TQEgmvYob2weG0lit5njR3S7bzJmDFycyqxmYGnaRXPE+tPBf7SXiDUf2hLr9mfx94Yk0PV18OHxNZ3sF4L2wlthcR20qeY0UMqzwSSoWTyfLCsCG6Z434D/tS/Ez9pLwDofxi+Fvg22vfBOvXz21vcya4sGom0huWtjeG0+xmEIAjS7BdpK64AjJOK8C0CD9o/WPjV4p/bo8Q/C/U5YtK0Cy8LeFfBsVzpserXlk9+l5c6jctLcrbWkm9kdIGn3iKAEgSNtrkf2f8A4U3p/am8G+Mv2bfAHjj4V+EreXWLzxlY6vL9h0C/e7tWS3jg0l7ycLdxXJiKTW8USLDE0bbwYvL0pp9TGq10P0t/aa+OGj/s6fAnxD8Z/ElpcX9loNukj29qCs0pklWFUj+YHc7sqrtyy5BCscA/L+hftt6xpP7QPgX9mP44eDNR8GeI/iPpL6npEsd1BqMEUlrA1xdWV5KBtgurdVO8os0LMyJHO/b139v/AODfjX48fsleK/hp8O7OLUdcuFs7uxtJpTDHcXGn3sF7HC0gePYJHgC7i6gE8so+Zfkf4E+AvDXjT40eFvFerfBb4h6bq2iC4km1nxh4hmvoNIuGieLyLcXGr3YuA5eRP3EXlAOrDaAFRVE76F0mrajtH/4KR+LfGngT4jfFnwl8L9Ru/Dfwsmki1a8bVrGBrhbVlmuWs42BR2htSLqdZxA3kyAWzyzZjH69T4wcjI9K/B39n39nj44eEP2If2rPhtrHhW+sNc8b6740n8PWc5US6lFeaRHDbSRBZHRRPKrKoZkGQeAMV+8N3EZInGMgjp61CT6mOIs9j+fL9iv486Z+zv8ABL9sr446hayanaeFfjf4ud7WH9zK2INNjEUbbHwwaQYG0/Tmv1U1j9o+10z4x/Df4QCxYz/EvT9Vv7a4Ls62n9mRW80qPycmRLlRHjbs2ncPmAr8l/BP7OH7SD/Ab9sf4BxeEL211vxz8RNb8VeH55RFHa6nZao1r5Yik8xQJdtmztuK4MirnIFe+eEZvjB8Zf2pvgb8SLX4d+JPD2gfDnRde0vW7vWo4IUF7fabbRjyY0me5kjikswhlO0OZgED/MUHdapBDc9r8fft9X/hzwb8Uvix4I8E3HiDwx8JtWfRdUnhv4YbqS4t1ja+e2haF0aG0WVXmaWVH2o5jV+FPr2kftF+LPiH4X8AeM/gz4Ul8U6T45s/7Sj1eDUPs+m2OmywLPZ3FybyKG8c3MUv7tEsZ2DqyuAUJH5NeLvh14+8c/G743+PY/DEvj/4NX13Na3GheG/Ekmk2E2p6R5X9r3WoRTTLLcXySxCBWtntbZ1Xy54bqSOOU+sfErWfHPxe8M/s8+PvgF4U8QWX7PEul39tr3hzw27afqdraraNa6fbLFY3MYWK3njgAihkEYjjmR/NWQCpVefY6LxPsrV/wBul9C/Z9+Kvxi1nwtKmofCrWbnQr7TI7xXS5u7c2xzb3hijPlMLqPBaGMrk5A619R/s9/Ejxb8X/All8Rtc8OT+GrHV4Y7rT7W8uI5r028q5VrmOBPJhdvvhUlmyGyWB+Ufj0fgH8YdV/Yv/aL+HPhz4deIdGv/F/in+2dC0/UZ7e5urqK5t9NiVHma8unM6G3cytLL3ULIyjYv7bfA3RNU8N/Brwl4f12E219Y6Jp9tcxMQWjmht0SRDgkZVgQcHHFb05Nq7RhVtfQ9UXPOfWnUUVoZhRRRQAUUUUAFFFFAH/0v7+KKKKAM82aJuZ2ymOV7YAHvjqMmqMlgt8ptrtzJkbXR1BRlPDhgRyGBK8/L3A4rxj47ftL/B79m/RLDXvjJrsWj2+q3g06zDRTzS3F06l1iggt4ZpZH2AsQqkADJ4r8xP2LP2xPiF8ef+Cj3xv8F6f4jv774daZZaXP4f0y/09rI2sg07TFu9ltcW9vfwlbmSYTR3GDHK5yAMAZuojT2btc/aldHt4/LSLCxQ48tMZCYBX5Mn5fkYrxjjpxxU0lgZIDGWG7nGV4wSCAQCDgAAcEZxzXyj4E/bg/Z0+Jnj/T/h34K16e8udXluotMvP7Mv4dM1RrMEzjS9TlgWwv8Ay9p3tbTyqADkgivoHxr470f4feDNR8e+LZjZ6bpNu97dybGkMcMS75fkjVmLKvQLks3GDT9ojM2ZPDVmxjwFxErIhZAzKrLtIUnhf4egwVG0g15P8fvgL4H/AGj/AIQ+IPgr8RhK+j69bGCcwviaFh8yTRsSwEiMFZdyMh27XRkJU/FP7Hv/AAUn8J/H/wCCvjz42/EKWPR9N8JXGtapI8NleLBZ+GrOe4Flc3Vw6vE9y1tbvLPHC5Kssi+WpAWszx38U/GWm/tNeHtP+O3xKfwroXi/XLGT4d+FfD+m3EGo6rb20Vo9+fEbXUM8qgXVwqGOMWcUEDRCZ3uJRHTjJPYDd8D/APBO3xrrXxC8OeMP2svjJ4j+MVh4H1CHWvDel6vY6TYQWOrQAJHdytptpbyXMtuqn7O8rbk82Us0m8bf0r/sVmEZmlBaIfKQpBBO7uWLABWwMEEc84OB5D8Xf2gvhP8As9WHh3UPizq39kw+J9XtNAsZ2gnmil1C7BEEcskUbrArFTmWXZGAOWFdfJ8VfBsHxGtfhPJfKfEF3p82qx2KK7y/YraeG2lmOE2qqyzxr8zBmyxUEIxA5pAdvDpS2ylLRhEp42qvA5OTyepHHp3xTjp2USIuNiY4AIzjn1wPmAIwBjHHWvIPjP8AtAfDX4CeGIPFvxM1T7DaXdzDY2ywW895c3V3clhDb2lraJPcXE8oVjHDFE7uFOOAced/D79tf9nz4n+GvFvifw/rklhD4EDf8JFDq9jfaXd6Vtia4Ju7W/toJok8lSyyFCpOQMkYM+0Q0j6Wj0GOKN4k2KHcuAibcFnMhJwefmO4dw2T3xViLR1WVp5JNzs4bdjBwudq5z0GfqfWvjL4Wft3/DH4valbWfhrR/FkFrf2r3thqN34W1yHTtQgjjMpe0vzZeTIzIpMUbeXJcZBgWTHPn37Hf7b7/H3SvGuq+NFn02Hw3revolzLouqabYRaRp188FpJPd30IgNy1tGJLmHzUmt5C6SwLtwp7RGnsWfoauiW0VvFaWp8mKIhlVFXg+24HGcnJGDz1q0dPQxiAMVjGOAByPQjGP0FfCvgP8A4KPfsu/EPxboXhXRteu7b/hL50tfDN5qWk6lp2n69JtDyf2Ze3VskFzgHCKjkvwV3KysfuDWNd03RNIutZ1C5itre0heaWa4by4o0jUszyORhUUDLMegyaqMk9iJQa3HSaSGjyJSJRkq+ASrEYyM56fmehOKdPpsdwpikcFGJypAIKk5ZSDkHdyDx0PqAR8t/BH9r3wL+0HqrWngzRfE9hYPZtqFnqeraJd2Fje20boplguJ0VRvEitGsvlPJGS8asquVbf/ALXnwf0j4f8Ajr4qa1rD22gfDvULvSdbuEsruZ4byzjjaZIokh864KeYOIoWDk/IxAJolNIqNNvY+pBpMHlCFyhVuJBt4frkHJJ7/wCOcmqh8OxBg8EpjICqGVV3YUDaOQRgEbgMYBA/hyG+HvGv/BRL9nr4fR/DCfxLe6nJ/wALe0mfW/DcGn6NqN/c3NnbwQXLsILSCacybLu3CwiIyFn5A52+nfCn9sL4Q/Fzw3rfiLStRl0WTwqxOu2Gu2k2lXmmxCLz/Nure8WOSOHyyGW4IMUgDbD3E+0Q/ZM+lv8AhH7YTJdI/kyofvRALkcZU53HYcLkZ/hA6DFaMVmqcu+48fp0OSSSR6kmvz28Nf8ABT79lPxbquh2Vhquq22m+K7yLS9A1q+0PU7LSNU1GV5ES1tNRureK2mkPlNtKuI5dr+S8myTZ1nxP/bx+CXwn+JOq/B7xFcaxeeJ9JsoNQk03S9A1fULiW3lVnMtulrazLLEojkDzCTyonHlOwkV8HtUHsWfa8elxCd7iVzKWxgtjIxnGD14zx6ZOMZOWT6PBOcHbs8sRbCoI255HuCOMHK98GvkHxN+3h+zf4D+A2hftF+JvE8MnhnxN9kj0qW0gnubq/uL0HyLe0sLdJrmS4dgV8gAyAq+RhCa6b4HftffCz9oHxDrPgnwW99p/iTwwI31nRNb0+50vUrVJwTAxtrpUfbJHtlRxuQqyglSx21GaZMoNbn02uk26I8aqoWRssNuA2QASwBwW44PGOPTmGa1isopLqVy5BO0nAKK2Mqp4wPlHU9eeK8U+OPx/wDDvwP8PW+ua5balqNxfXTWdlp2kadd6neXVwtvJcmFYbSGVkbZGxMjkRIoLuwANfGfxm/bP8J/F79iv4+eLfgnqmo6N4o+H/hXX5Jba+tbrStV0q/g024mtXkiuI43Vsx+Yrplc5jPzo4BKaW4Rpt7H6gQBbgGdX5B2j0BXIbjsSc5Gf1pw0+JQwi4EhO/qS2ffOetfnX8N/2ovCXwL/Y8+D3iL4u6ne6hqvijw1oVvZQQJcaprGqajPYW5YRxKHkmOSWlmd8AkNIw3ZPV+Av+CgPwe8e6nr/hyKx8SaXq/ha1e/1ix1HQdStX0+3WJp4xdyvbm2ikniRjAgmYzMpVcMCqz7VFeyZ9yLpkSuHDD5fu9flGMYXBHcZ7/wBaa2kxmEplWbG0F1yAM5xgEcf159MfIVn+2v8ACG++EHgD42wXF2NH+JOp6Zo+io1qTObzVpvIt1nCuyxqrKxlbnaoJHTmr8Yf25/hd8HPic3wW1Cz1vWvFzabBq1vo+jaVdajc3NpNPNAzxNbxvEnlvBIG85o0UhFZgZUq27C9kz7LOnKZRJlWC4xvUsQQeOcjoOnoec5zUr2UchbznZwWyA3Rf8Ad/8Ar18W3P8AwUG/ZZ034Ead+0h4g8XQ6T4V1G5azikv7a6gu5LtJJoHtIrJ4RdyXCy204WNIWZ1idlBQeZS/Br9tv4b/Gz4hXXwesbTW/DHjKKyOox6P4m0e70qaS1BVTLG8yiK4Cll8wQO5hLhZBuBqPaIfsmfZ5sDgeTK0XJJ2AYJPfDBun5fhxVe20hYJlnaQuVACg9Acklh/ES27GWJ49yxb4w+Hv7cPhL4peL4dB8AeF/FWqaLc6jJp1t4ji0qQ6PO0MskEsqXYDIbdZIyBL8oZsY4NfW/jvxt4c+HHgjVPiD4xvY9N0nRbaS9vbqb/Vw28Cl5ZG5BwqAnjn0BOAajJPYiUGtzprm2WfDZCsBgEjOASM45HYVTl0qC5Ux3GJEb7ytkg8knjOOc8ccdq+MfgD+2x4R/aOn87wR4f8UWukSWcmo2Ws6pot3Y6bqFpHIsG61nmjUmTzHRlilSOWSPc6Rnaypw9p/wUu+CD+JNA03UdF8X6Vo3irVLbRtH1zU/D95Y2F3eXkiwwIpukinQPI2N0sCDPfFKVRIqNNtXP0HbTZHWPExRkI5QEfKGB24JOAw4P4EYwKSa0a3jaeNwX+YncOCWOVzgZ+XoOvHX1HxZ8Uf24/Anwv8AinffBaTRPEniDxTZ6fFq7WGh6XLe/wCgSvIv2kTExRCINGYmZ2UJL8pY15RF/wAFTf2ebyLRNZt7TxLL4Y8QXMWmx+JY9Iuk0q3v7mTyUs55ZkicXKvnzFiWVYSrrK6MuKPaw7h7Jn6RwxtO5WGRim0lJPvEHkEZxjH3cc5PPHBp94IYpfLkUPv5Afoz5+UD6DPbuK/GD4u/HjW/gb/wVnmeY+KNd0vVPhZa/Z9D0iPUNWje+l164U3C2MLm2g2wQbWmKoRkKGZmEb+2/tD/ALTvwJ+Mf7BPjr4ual4p8XeDPD+kILPX7jw9K+k+J9DuraeE3Fow3hrS7iYqkyk/cY4LIysV7VDVFn6avpltcGSSdUZplVXLLywTJUHPJUEkhT0yfWtR8MpUHGRXwp8QP2x/hH8AfG2l/s8Xk+r+LfG8mlpqUOhaRavqOsNpqExtfXQXaiozLtaWRow0hPUlczeHP29v2f8AxB8A9V/aLXVbi00Pw9cf2fq1re2U9rqVpqPnLax2MljIomW6nuZIYoICN0rSrtzkUe1QexZ9sixjyvzZCkEcDIA7fTpwMcjrRHYpCvlq3yn7wOefXv3PJJyT3zXg3wW+NuofFw363vhHxH4RfTxCdviGzjtTOJjIB5JjklVyvl5kAIKblBHNVf2jf2mPh5+zXoWmax46N3c3WtXa6dpWmadA91fajeONwht4kBJxGruzMVRQPmdcjJ7VESjbRn0LJaRSx+Ux+U5DL2ZTn5SDnjmlFtgbfNcjp1H8wAc18S+Af25fhN8QrfxnZRx6lpGv+A7FtR1fw/qFsbXV4rYQmZJo7ebasiyjKoyuyeYNpbBBPD/Df/gpL8GviRe+CJLLR/Etno/j68t9O0nWrnSriPTZb64illS3+0FdrF/LKoybkzncyhSQe0RSpO1z9A720jit3Yh5WGWGMbueoAxjJ9asWJcRhjGQzKu7dwRwOD2456cV5R+0YZF+A/jN4bmezdNC1BluLWWSCeJltpCJIpYWWSORSMq6MGUgEEEV8Nfsq/HaD4Lf8E9/gx4t8SQeIvGN34h0PSIYxY213rWq3d5dWhuZHmkO9/uRyHzbiQLkKu7JAOhCVz9RZ7RbhlZyRtORj1/EH169aijs2SMqz5L8vgYB7HvnpxnJ/GvmT9nj9qzwV+0Pe+JfD2j6brHh3XvCFzb22saPrlp9mvbVruLz7d2CtIhjmiyVIbOAScAjOb+0N+2H8Nv2ctS0Hwz4qTUNT8QeKZpIdF0bR7OS+vr4wgGZo0UJGscSN5jtNNCAiuwLBeQr2bPYfi/8Efhz8evh/e/C74taeusaFqIjFxA7yxMTE4dGSWB45I2VgCrIwIIzXgPhP9g34O+HPEFl4k1bVPEfiabSr1NS0+DXtavtRs7W6iUrHMtrNMYZJIwcRyzLJLHyUdWww5nXv+CgHwn8FfBBPjj8SrDxD4Ygu9U/sKx0fVNJlj1i81VmMcVnbWCM7zyzOC0W1gjRjeG2Zeuk+Df7bnwx+L/xVvPgPNZ614Q8dWemjWDoPiKwe0vH09mMaXcWxpIXhZwVAWYy7lcMi7TiZTSH7Jn2bDYrAf3TsFznrknJJOSc+vsfUnNZrm2s5hYomyPOQBxkuQOM8c5OfmByenIr8ydG/wCCs3wA1bwRp3xXk0PxhaeCrpoVuvE1zoVzBo9l50zW5M15JhHWKUKsj25njRnVDJ5iyIlnx94s+ETf8FK/BPhzWPF/jaDxnc+GJZ7Pw/Yam8PhWe1Bvg097Yl1Sed/KlMcjIV/dQ5I7z7RD9kz9RPJJ5d8nPv6YPGahj0+OFzJEcMxyTgZ5YsRkY45OPqSck18g+G/2yPht4r+C3jX48aP9rGh+BZdYjvxLCFmcaEzfa3hUOd6SIu6A9Wz07VP8af2uPDXwV8daJ8L/wCydb8VeJPENrPfW2m6DY/bZ4rS32qbi4/eJHHE0rCMSFwrMQqgcsD2qD2LPr6OAIqDPKjHHT345qM2al0kzlkyAxzkZ9Ow/rXwd8IP+CgPw4+Mngjx74/0LQ/FFlbfDuUw6vaXeiTm+S6ijL3FjDaW7zXE95FgAxpHkl0CBySa6r4WftoeG/iX8Vofgzq3hLxV4L1y+02bVtOTxLp8dnHfWttJBFMYDHNKweNriIOkioyhskUe0QeyZ9dXOlQyh5XG5iADjOSq9s7gc9cEEe+cVwvgLwZ4O+HmjxaB4PtUtrOOSd9/mPM7yzyvcSySyyOzySzSzSyu7s7yO7SOxdmJ+SfC37fvw++JPjZ/Cfwm0LxT4x0yLWf7Budf0bSWk0mC9DrHLG91JLG+2DerSzLC0aqrSA7CpryD4cfE/wDZ1+HX7Vv7RHxAm8T+JrS/8Hw6Rd+MP7au1m0K1imt5Xhk021jDyrJ5Nu0ZBTc+AqAsRR7RB7Jn6hT6oYd0O1Q6KXILZwEAJOOpxuX7233K5GdVrZZstkIT653AkHvnrz/AD9a/Dvwf8W/gJ8Xf2ovh5+0dr1t8S7d/E6ra+BrvWoltPC2ye1Z4mhitMSqboSBojqOXm8xWTciLt+5PHv7cXgT4feNvEPwu0bwz4n8Ua54WeI31loWnPemO2uIkkiuDcblto0LMyFZpo5N0UmyNlXdVp3M5Rs7H25DpnlOWMhfPUsMseBgk9Cc85IOOgwKsTRSrGzRucnp65P1OPp/XpXiH7Nv7QfgT9qD4L6J8cvhnPNNo2txyGH7TA1tKslvK8FwjozOAY5YnT5XZTtOGYYY+4X7+XaO+8IRjDEZwc8cEjnPTnrTbBIyLm3RfIbzyixyBiz/AN3GMBiMDd0+hYDBwV+S4f2Cf2dLafUZPDNvrfhu31e5a6v7HQ/EOt6TYXMsi7ZWeysr6G3BdfkJWNDsVE5RFFfmb8DvBH7ZPxS/Yetv2nfg38ZfEy/Ee6t72e0sdVGnaho9z/Z+o3UYsHt2sZHjW6ihW3E6Sbrd3E+2fyzby/oL4e/bX0B/2afhr8dRp2o69dfEa304aZpGiWour66vL6ya/aGOOSeKOMQwQ3DOzTFFSMtvIVs5+1Rp7Fn1t4N+H3hH4U+ENP8ABngi2i0vRtHt/stpBGW2wxD5gCzuWYZ+ZmLgnBJySTXc2ztc4nVg8LgFMEnPPB7jBXBBB6/WvyK/aP8A2wvAnxv/AGOv2gfC3hc6l4c8ZeAvD11/bWhagIoNV0957V5bSbdaSXcDrcIoMDwyOjEHJweOY/Yc/bi0fw7+z18GPAXxC8NeL9NttX0nRdIj8Uajp6/2RcapcQRxhftf2h5FSSc+RDPJF5NzI6GF2G6j2qD2LP2g/s8iPZ5rE9dx78knPbB74x0/Lw9v2b/h7dfGK3+Ouu+fqfiHTrZrTS5LyRpItMSZWW6axgJ8qCa7BAuZlXzJQNpYJhR478Rv21tO8GfErVPhX4O8F+J/HWpeHLBL/XP+EdtrN4tMSSMzRpcTX15Zq0skY3rDAs0xUfcDMgP0B8I/jb8Nfj78N9P+Lnwh1ZNZ8Paqjm2vI0ZFzFI8MokSQI8bxSIyyRuFdGBVgCMC4yuRKNtGeqlf3P2dn3HoW9T1xyf0r54+Fn7L/gr4W+O9e+J9vqGp6z4g8QSSebf6rdSXMsFm9zLdJp1srHyoLGCSUiGKONWwN0jyyZevg39nv9tT4z/ET/goL8XvgH4r0jUpPDHh250y00u3W3s4W0uOSwW4lur1zNvdLqXPkbPMIVlyF6Ds/Ef/AAVa+CfhrQr/AOJWo6D4mPw70jW5fD+oeNIrOCTR7S9jma2zKguBfSQtOFjWW2tZVLSIuQxxUOotilSe5+p7xCSEwtgggg5GRzTPIzkE8ZJGB3Jz3JH6V+eHxK/4KF+B/h9+0Db/ALNug+GfE3jXxHeeHrXxRbp4cs4byOXT724mtYSJpJ4I0y9vI5kkKxhABu3MK7Gf9uf4beHf2apf2mfGdjq9hYxXlxpjaK1mZdZ/tO2u5LB9OW2gaRZLk3MTINrCPGXLKiM1W3ZXD2TPt5oskkt249j+f0qI2rtIZPMK5/ugZxz3OT3B4x0r4x+FP7aPhD4kfFWf4FeLNE1n4e+NTpj63Z6N4nitYri80pZBCb+3NldXULRpIyrLE8kc8e4b40w1ecfC/wD4KNeAvivputeJ9C8I+LbHw74etdVvNT1zULC3i020TSZWSZDMl1IZZCiiVFgWT92cuY3DIse0Q/Ys+2PiZ8KPBvxd8J3/AIF8fWkd/pOpII7m3deHAZWBDfeR1ZEKyRlZEKhkZWAYeE6V+w38A9N8YaN481BNb17VPD8z3GnS+IPEGtayttNI6u0sUN/fTwpJ8q7ZFjDrtB3HoYPgX+094n+Nn2W9vfhv4u8Fabqlmt/p1/4jj0yOG5jdwFQR2F/eXEEzI6OIbqGF9u4EB0cD5wvP+CrPwatfC1/8XLbwx4vvvhlpN8bK/wDHFtpsUui26KVBudrXEWoT2+W2NPa2c8aycE7djSP2iIlG25+n/wDZET2X2CV98eMcgHjPAwQVwBx0PFSrYIi7EfYAMfIMdOF7nJAA9uOnOKyLbVriayW8tys8Uib43jI2uCMjDE4IPA3YGc8AAZP58XX/AAUj+HekzL4p8QeHPE1r8PZdXOhR+OHsrNdEe/S4ktCAq38mpLbyToI1uG0/yc8iXaykHtEUqbZ+hWt+Hv7b0e60hrm4tftULw+dbStHNHvUrvjkHzLIo5VsnDAHFeUfAf8AZ58I/s/+F28N+GLu/wBRmup2vNQ1DVLhru9v72RI45bq5nf5mlkWKNcLtjRERI0RFVR8reM/22n+FP7R+u/s86r4c8VeMNdGm2muabbaDpMUkH2G6llgRWuTc+XD89vMWnv2tIiwWKLzHIDfSn7N/wC0l4Y/aT8E3fjPwvp+p6W2n6nd6Pf2GrQLb3lnfWT7J4JkV3XIJGME4HD7XBWhTRmfRMkG5zIG2nj/AD1FRi1CgEuXZejPg4yeemP/AK1fFfxc/bZ8MfD342j9njwZ4U8R+PvGEeljWbjTvDsFvm2siXAlnuNQns7QFygWOOOd5WLqCi74y/c337S2j6L8YfBHwN1rSNRi1zx1pd/q1quLdkt4dOEBnWZ45pI9wNwq/u3dSfus4wxqUrFRjfY+njbrn5W4xgA8ge496fLCJk2MSOCCR15BH4V8R+Hf25vhJrmv/FXSNSW+0W0+DboviG/voohBh4pJWa38uV3cIIyOFLMSFUEmsX4b/t1aP448ZeG/Bvifwb4m8FDxxbz3PhrUdchsDZalHDCt58v2K+upbWVrJvPWG+S2mKo4MYddhj2iL9iz7qn0yO4DCRjls5OATg9QM5GDgZGO2etDvHBMscrN83yjJIBbqcdyce/tX55eK/8Agor4W0S88X6b4e8D+MfEs/gHUZtP106RpYe3thbxwXE863tzLb2zqkM4byVc3ICktEoZC3g/7QH7e3jC6n/Z/wDHH7Oun6rqHh74n6ha3sot4dPS61Gye2N1Hpaf2hLCsN04YM43oAoIEwPBPaoPYs/YaCxVYlOFQleQgAAJ5OOAep7/AIjPNSx2ux9y/Ke5Hfknn15OfqSe9fHPxA/ao8W+CNQtPDOifCvxr4r1WXSrXUpodMi0uKGA3Lun2aS+vtQs7E3MflMzxRzsdpRl4dc9h+zH+0f4X/aj+Fln8X/AdvqFhZ3Nzd2klpqlr9nu7Waxnkt54riJZJVV9y/IVldWUhwcHFUpp6Gduh9OTQmZShIwQQQR1PbPPT1HeozZxl/MzyDkdPw6DoOPyFfIXxs/aq8QfBzWL7TtP+G3izxjDpemrqt3daLFpkNvFAfN3KJ9W1DT0mmUR7pIoQzoGX5SXUVwfiL/AIKHfBbR/wBnvwl+0VYrqWqW/j+RLLwzoFnbp/bGq6lIXC2VvFNJHH5m6N1LSOkaYDM4UgmJVknystUmfcUf2WO9ksmCea/zFVzuZeilzjODtYD+EAbRmtxYirBtxIHrn/HH6V+Pfwh+KusfEz/gp1q+s6n4c1fwncJ8M7eCXTtbW1WVPK1uZfODWlzd2s6ssjASxSkAoYiS3T0qL/gpp4B8vT/Gt94R8TQfDjWdXj0bTvG4TTn0q6mkmktxNHAt82pfZPNTAuTYiPaQzFUywftEP2LP05uYRPCYj347f1BH5ioY7NVxk4wAOg5A7HjGPYAYr8zdX/4KTaRD+0d4w/Zc8G/Dvxj4r8TeCBaPfnR7fTJLN4ruytr/AMyO6utStkjEMN0m7zxH5jDbFuZlFZvgv/gp14c+Imi+GviP4X8AeLf+ED1/UrLR7jxNd29na2en32oXENnBBLby3YvpT9qmSJ5ILeW2jYndPlGVV7VB7Fn6aXlxFbSCN5EBI+YEnJXoAOc/eZfXrj+Li1HqCzBBxiX7pRs5B6EEgduf5Zr84P277zxL458OQfCLTvCfxC1mC8gjutTl8F3OlafBLZl2SexuNQ1WWDCyKGYralJ2AXa67hXh/wAI/wBv39j/AOEH7D3w31/9nnTdTk8N6ncQeFPCGgKGmunu1hZ7e0kubydgqAGP/SZ7ghwyFSS65ftUDpM/Ztoi6FJCDuGDxwR9DkVXks5GdJI3ClGDdDz2IPP93p6HB56H5x+BHxn+K3xE+3WHxa+G2r/D2809YXBvrzTdQs7z7RJLGFtLixuZJC0PlqZlnt4cCWPYZPmIyPj9+1BD8IfFWgfDPwr4Z1rxt4u8RQXd5aaToYs1dLOyCCa7u57+4tLW3t1eWNQzzBmdgsaSHK1cnZXM4xu7FHVv2F/2fNUvdTvILPU9NTXLua/1S10vWtX0yzv7m5P+kT3Nnp97b2skswJ8x2iJY4LZxg/Q/gT4deGPhn4T07wL4FtIdL0fSbeO1tLS3jEccUUeQFVUI4wR19CTnNfCvgz/AIKMeF/FWgfGHVNS8F+KPD918E9KTUtdstTh03z5Ha0ubxre2+y6jcB5VW2KEyGGFiytFLJG4kHYH9vL4dH4b/Bn4ox6Zqz2nxvutKs9Gt0W1MtrJq9m99C16TPtSOOGNvMMXmkEfKHGMx7VGnsWfcpsACzK7AsP8njGTwOvTtirEFsluzeXwG7enJJ/U/57fAnxK/bqPgvx54m8EeAvAHib4gN4IWFtfl0CLTn+yPPEs6W8cV1qFtPc3BgbzvLgjcoo2v8AOQK+rfgl8XvBfx6+F+jfF34c36anomu2y3NrcRjaCCSGRkyxSSNgY5ELZV1YEDFXGVyJRa3PVqKKKZIUUUUAFFFFABRRRQB//9P+/iiiigD8m/22PHPw9+F37Wv7PPxR+MD2+neF7PUPEmn/ANqahPHa2em6ndWAisp55ZAQomVZreHDKS80ZJwuD+X2mfZ/2j/21v229E/Z91Wy1y68b/D8W+gz6Vfwuly50LTrKIxSKzqpN2rxxzBSFblSCM1/UXe6ZHqcElteRgxygxyIwDK6n1UnBB78A+mKjFhJbKttAqeSgAjj6IuM9guRjI7kccAday9kjZ1dLH8637HvhK/+LXw1+Cnw71T456HoGseCdS0nV4/BdvDbx65bjSGY3em3Li/FyB5D3dtODASYpG8z5JCp/ZH9tHx1f/DP9kP4k/EDSCTfaV4b1F7UMQg88wMsLMzsi/K+CTuGBnBr6Si0a3S4a6t8rM3LttVWk4ZVLkbWJGeuQelXb7TI72xawuESaKRfLeOQAxshGCpUhgQfQg0eyMT+c3xX4v8Ah5+zl/wR8+Gfwc8O3+na9pfim70nwrrurabdC50myl1iZ7zXJJbmCTCwsoubZXaT5priBWYiRt30R4p8RfCn9qX/AIKv/Bq38DajZ6zpvw08JeIvFUV/ZmO6tJ5r2aDRzbQ3IR0ZkYCciN02rFEQMHA/YKPwtoenaSvh6xsLeHT0+VbVIkWPaBjaseAhGOi8DuBwK6Cz0uS12mTDuM5YBRnliCSAvTJ4xjLHqeauMbAfFf8AwUZ/ZPi/bA/ZJ8WfBu1uZbXU54lvtMkQK/8AptoRLDCQ4OI5yphcjlUckcivkj9grV7/APaj/ag8fftv30VuLFdH0PwHo86pmW4FjAmq30khAG23S+u2SDDcv5qsB3/X3xtYeJr/AMPXMfg24t7XVAjfZ5bqF7iEMeoeKO4tWcEZAHnIA2GzwK8h/ZT/AGetC/Zd+CWmfB3QpnvPsUlzcXN7Ksay3l1dTPPPcyiJI0Dyu5bYARGMRqSiKaThd3A+Av8AgqBpPiHSf+FN/ETStWTw3pug+OrU6hrNxDFNa6Qstncpb6lcpKPJjhglAikMhVEacMMMcnz/AMB/s+fBL41XXxg+Kvjj45aL8RtF8d+ED4S8VT6J/Z1pbwWqo3kXVxc208v2e7hilk2FmAVMOeVWv2vvYoJi9veEeU4+YPgqQeMckjB7gjB7VQOkokslzbBt5O7Cs6gsBsJ4cKW2hVG7nip9kNM/D/8AZ3+JPjj4S/Gz4c/AX4L/ABv0T44+DJl/sW60y2hsH1LQ9MtLOU2d/LqWnSCBynkQQMtxHvmwzRpIztJFrfBrWtE1r9lj9pT9n7w9fwjxxJr/AMTbxdC83/iZomo6jqEkF01rJ++WOZ545omACsro0YCbBX7WyWGy7N4Y0DFcMwB3EJ9wFRncAMleQVJOPvGnJpuZHkiy5bdG28AfLwGUswLnOMrzjjrjFL2Pmbe38j+dv4kfHL4cfGD9kL9m34BfBnUYNQ+JB1nwVGmlWTxXt54fm0owPe3GowMTcQJaiKSN2cRszDIOMV+/fxG0/wAKa38P9d8PfEUxpod/p91b6gZSFjFpLEyTlyeAvllsk9q6+DTGgZ5CA3mfeG1V3dznHJJYk4Jxz2rQubX7Spzw2OMEj9RyKuEOUipU5j8I/gH8YvGvwe+Kvws/Z6+Enxcsvj94L1OS40C+trC3sZr3w5p9lZP9lu72905z+5U20Vs73MQMjTOyuzY2eBfFj41fDfR/2af2v/g/4k120tvF0vjPWp4NFa4hGqTWlxa6dOLi3tZZElaNVdpBIu5FWPcspSMAf0nQ2UyT+aMADjnv0xxk8DqOhH41n/8ACP2qRNDBHtjJUGMKmGAVV+YnJK7FCMCeVGMdKUoXHCrZWP5k/EvjTQvBfxJ/4JweI/Hd/a6dY2ngTU3vrqaSNbWCOPTvDu6SW4V1jVFkAIBJjON5wUGPVPij4S8QftQ/GL9pb4yfs2XEWu+Gr74Rr4Xg1HRbhLmz1/WnjllSztbqBmSd7RU8iZt2ITdLjG+YH9Vvjl+xhF8aP2lPhJ+0K+tjTY/hSutKukrarLFfjWUslI8zzI1h8g2akZhl3bj92vs2PTJrSLy7ZgSSxPyhMknJ+7wATyflOTyc1PsfMr2/kfzH+N/i58Kvif8AsB/s5/ADwNpUms/EjS9W8G6YdEsjLLe+Fp9LT7Nf3d7ZfupUtRbxT2KyTQgOt0JlXDM9fsL4Pss/te/F6aJ5EjuPCvhQOyiVV3htb34Yx8SCJozgMHzjlea+7Y9NkW5lmyP3hO7KqMnorZ5YkJ8nJAwOlSGy/wBKe+SMCVxtJwASMccgnoQMZ6U/ZB7byP5PND0P4keGv+CYv7Jfxb0S31DR7fwJ4lB1F9Ht45zpkF1c3cA1OeG2Vt8NoGE1wixHzELpIFV3ev1u/ZF8DeFNX/aP1/47W/xhg+K3iW78N2ulXMthaWkOniyjv557U+ZY7YXuF+cMMbwgRWIjCk/qdHpYtYfItYhDGn3FhwoBbltoG3ALEnknNS2tjLarsULwxYEBR9/7xGAMHPJyD9aqELETqXPz7/bW+Mvif4a6x8OvDFl4ph+G/h/xXqt3BrnjC6S12aZb2lk9zFEk2oK9jBJdyqsMcs8bqrBtiNIyivyl+E1nfa98Iv24PDNhrmp+NbnXPDk4s9Rnt4vt2tQzaJqMUV8sVlaWljKbqZZI0axgjiYRKSA5Kn+mW8tri4g2xtscHKnCnDDoRnP8ulZKaWbO5mvNoeSYqu8IokIXJVCV2/KCXcbmxvckYGBSnTvqOFSysfzw/HHxJHpH7Ef7Kv7Rfwrj1DVPFngCXSNNs77QoJtZGno+kmHVxf6dY4uLmEJam3uYIWt5VkYIJUDMT6x+zx448LfFvwz8e/Gt/wCItU1n4peKvCsK6hoV94cufDNza2FpZ3UFglvp88lwz7p7iZZHjvJ2Em2Jyjx+Un6EftN/sd2/x/8AGngP4z+DvEE/hfxx8Mru9uNEvhBFd2zJqaJDqFre2coCSQXUSBJTE0UwXPlygsTUXwP/AGRfFXgP44eIf2iPiv4wm8YeJdd0i00S2xY22mWel6dZyyzra21tbM7MZJJiZJZppj8gVAiEhp9j5l+38j8Pk+Nvw6t/2Kv2Zvhjpd5LquteBPHvhm/8QWWmxz3h0aHSNRxO+oCMSNasVljFvDM0bStIDHGNuR+v+kaDqK/8FTfEGviykWwuvhPplm0xhxCWg1vUyqebt67X3FN2QCDjkV+hsUEUd4HjIHlHAUKFA37chcBcjB65PPYmugrVq5Kqn8ius/Dr4n6D/wAE+vg/4y0jwjf6nD4H+OUniPWbW3gmSSCwt729l+2SKuyZ03iKPcpBXzVfJVcV+reqeN/Dn7RP/BSH4UX3wcabVdN8A+H/ABHc6zrNrG1xpiJqyWtva20F6UaCW4EqO80aksgB3HgBf2HniMuACRjuCQPxwRS28K28QiXGASeBgcnPQVl7HzK9v5H4JeBLey/Z2bQT+xP8WbzVfDviXxbpIT4Z31lb3P2G31nUkGoiFVhi1PS7azs3efZMTFE0JV8ySO5/Qv8A4KTfD/xX8UP2C/ih4H8H2813qt5oU7w21orSzTNABO0USKC7PIqFYwoLFiNozivtaOzeO6luMA+aVzwAQE6cgZbr36dvfSIBGDWkY2MpzufnR4W/bY8DfFr4XWHiPwHp92/i7UdB1DVrfw41ndfa7O60tPKnsrwxL5ULiaTZErSI11GDJbLNGrMPx/8AF3x+8d/Er4J/Bj4i/GX4h+JNb8S3XjbQvEOv+GNO0ixXS/D9npd8DcidLSw+2xQoi/u/tt5I0spLrwgRf6lPLUHI4PY1nrYRiZ51VcuArYULuwcgkjkkfw+mTUyp3dy41bKx+cnh3QtUX/gqfq/iT7BP/Z8nwn0aP7ayN5RuV1vUdyeYVAMojIyPvbSMgA1+V2reAPF8P/BJH4a+Go9J1CbULf4l30slv9luPOWFvEOrOrtGPnEflsME8bWHY8/0/rkAA9aWo+q0+w/bH4w/FHxbpXwi/wCCtdr8QPGNrPYaHqXwoTRhrKWkj29tcDVri78uaeNCIFMMLhN7YMzRIAzyIp+J/id4E8X+K/8Agm5+1z8UtL0i/OmfErxdqOteHbR7O6jurmxRrC0F1HaTxpPEZ3gcBTEpaNFbBUg1/TtRT9j5h7fyPwz8X6nqXwd/4LOQeOPH2lXNl4V1/wCGx02DxLdRMumxXf21Z2tXvSDHCxFgJHRniLvLCR5hO2vKfhto3we+NPw0/aJ+LHxs0vXfCnwz+LnjKwXSk+x6raah59kthbw61FCsD39qJr6OO8V5rZFtViZ7pEiUtX9D5RScmlb7p78UexQe38j8rv2MH+MfhP416j8G4fiZP8Yvhto/hu1uYdd1UW0uoWF+9wYrWxa/tVC6iz20U0txLOzXMZELSkm43vyH/BVjT/FnhfxH8Fvj3oU3ii103wr4jurHV73wjZ22oahptlq9oYn1E211Z6gjwwGIRzeXay3PlzN9mAnKMP12gSK2QRRqETsoHTvgevrVgSxsxVTyOSO+D0P44p+yMpyu7n4X+FPg38Hb746fET4o6B8Q/GXxR8d/8K51DRJtS1DTrWTRnsdRaN3RbjSNGsbGa9ils4QYI5pJBE7fuSASOM8C+C/Eb/sTfsfW19pd+l/pfj7w7czpJHPczwxiPUPmuW2lwAkvMkoQBmy23Jr+gcHNFL2Roq2lrHjXx9gvbv4LeLbXT7ee7ml0S/RIbeJ55ZGa2cBUijBkkYk4CICzHhQSQK/ErwV8afjDon7G/wCzP8OPBd5qngzw3qfl+FfGXia1tI21DRDpNuLfyCLpHhgjuJY5Fa9ZJVRQk0JZHWdf6GcgHFLWxlF2dz8U/wDgnFpOk6N+0Z8do9A1TXvEdhNN4bbT9Z8RJMbnUIo7OW3mkhneC3SWGOdWgjaONYzGgKAoyk0P22r/AMR/Cb/goh8Av2gNS0XU7nwpbW+uaVqGo6fYXd4uny3KLbQyXL28EywrP9o3ZdSGSBj/AAAj9u6KDT2p+CP7aXxd0/4xaZ8N/wBor4M+FtR8V6L8HvilYjXLa40XUYma1jhkhfUtNSaKL7aloZ91o8JMbSHAdg5DbfhK8g+PH/BW7TPiB8P9Dup/DXhb4eXOn33iFLO5+xXFzd3fni0F3LDFDIMzs6KGlZsz/LDtYSfunRWc6dyo1rH8zXxh8EeP7v8A4N+dT8L2WiXja8brzY7BLVzcgr4tMygQBd+ETDrxwoBHHNfSXxmt7ub/AILi/CK5MTOkfgi8ZwQQE3f2ujOwHABJUH1O3PUV+6dfJmmfsqeGrT9rnW/2wtVvbnUvEd9o9r4d06OcRpb6bpkB8+WCFYwrSG4uiZXlmLuhwke2MuGn2PmHt/I/FbQPiunwj/4J/fHX4UahoGv6j4v8S+JvF+j6d4asLCebU3TW5Wijvmtx80VhBBIbozSOqpAjQ4+0oYK9S/4KdeNvjd8LP2hfhh8Xv2atD8Wan4o/srUbPVbvwjZRa7JHpTXFswtJ9HZFEsUs5Z0vXmiSDy32tLKUSv6BZ4/OheL+8pH5ivg39o39iO9+NXxW0z46fDv4h+I/hr4usrA6XNqGgnT5VurNZjcW8N1a6lZXlvMsExZ0BQYLEnecYPYruHt/I/KT9nb4xN8N/wBg744/Eb9lvTvFs/xm/tSbX/E9t4r0uCHXIdY1NYxLcGwg+0RJDEitLawiMp8m8xNFnd6N+zfoOjwft6eCdf8ADvi3xt45l1LwprN1q1/4lmvrvTrK81Q2NxHZ6a8sUdpZSMlrcPPaW+2OIokRG6MV+nX7Jf7H9l+zDbeKNV1PxLrHjbxH4yv4NR1fWdblha4mkt4UjihijtoYIYYIiG8tdryEMTJLIx+X7OiDBArDGOPwHSj2KD2/kfz+fsGftJab+yb8ItT/AGcvjd4Z8Uw+LtE8ZahZxadZ6FqN79sh1XUS9veQXCR/Zmto1dmdjOCIl83bgxB/Nfif8A/iz8SfGn7dGkeFtC1K4l1+y8J3ekrGn2aXVptItpblrK3lYq0r3DIbcYkWPfLsOwMzj+lGin7IPb+R/Pb4D+Oln8bvgN+z7+y1ZeCdTsvF9tqvhO61a3/sC4sdP8OReF57e9uZELQRJALmGze1t7eMiRIZ9kqoweM/cHwz8N6za/td/tGX97p06Q6npXhdYLpoZlS5dLG9hdY3Rdj7WO5lTO1pDkAkk/plRWkY2VjKTu7n4E/sSfGrxp+x1/wTe+Den6n4B1rWr7XvEOqaXLZWsUkUumxX2q6lcRTTpIjOI0UqqgqoCuo4Ar95LmV5IRGvG/g8kcHrgjBB9OetaVNDox2g80NCTP5p/gP+2z48/Z7/AGLtL/Z3+Ffwp8Y+JfinFJqWn6fp8egXdrp6XN5qN1Lb3E99JF5QiSGeOaZsnKhySuSw9v8A2o/2bj8Bf2SvgL4Ge98WjTvhjqVnaa3feCFul1eOK50u8tLi+tTbo8oX7XInmxxJuMMzQw/O6B/3rorL2Jv7fyP5dPDnwy+C+s/Av9pzxl+zvF8X/E3iC/8AA8VnJ4l8Z2F5Cdbke0ma3SwN7bWt5czW2xYrmKWICOIpGhAyB6F4D+K+pfFP9lL4M/sC6f4O8Q2PilbnwlY63Ld6FqNtp+m2Ph+5stSfUDcS2ogmivYLIbAkwAlkVZPLPDf0k0UexQvbeR/Np+0t4b8JeFv2yvH0Px78Q/GDwX4Y8VpY+IdM1XwBJra6ZNcmyt9HuLK5ttFtZbk3H+i+YJTDgx8OV2QmX9Pf+CZPgD4deAP2M/CelfCrw/4r8K6Lem7voNL8bWkVhrtoby8muJY7y2iVFi+d28pNi7YPLTACgV+h1FaRjYynK7ufhT8DNVuPg9/wVq/aFtPHGk6np0XxLm8OJ4fuRpWomx1NrXR7OOV/t8Fs9qio2+HMkow8TKT2r8pNK+FXwj8H/Dvxp8Gf2obP493Ou+G9c1WG38I+G7fXr7w/4jg/tKXULa5020S1vNNjZZH3RoWjDzIssKjfAsf9mNFQ6Kvc1VbS1j8LPAvwm1jwt/wWB8P6xoujainhXS/gbpejWuqXdtJ+8eLVb5xDKWUJHNDEIt8ZRH3SAEYUViftW/CX4meIP2Ite1fw/wCHdb1TUfCXxV1bxNBpmjyS22q3lonia982Swmjw1tKkE7XUM8Y3qYw8fzYNfvdRWko3Vhe28j+dz9h7wH+zR4u/aw8LeMfhzf/ABw8XeIdA8P32oxal8RrfVzpOkvcCC1+wy3erW0LteSRXEpijtZHiZYZi5yi17r+xB4b0bwR+wL46t/iR4U1afS49Q8VXF9o7WDre3lhuuxJFbWSHMs88e5FEZV5VdSHI2iv2uorNUh+28j+ab9lzwXe+Dv2h9B+CH7C/ijx34l+FWv6fqieOrXx7Zao9noltbWfkaYujjV7SyEEs905Sa3t/MEiqssikDzB8M+Dvgt8P/gv8IfEv7PP7UB/aBXxJ4NkvrKDw54IGr6hofiSDc8tvNptnZQT6axvF8siG8cJ50gkP71pdv8AZ/RR7IznO7ueX+A/DemeF/AWk+FtIgePTrGxgtoY5gRKYIYVijWQHGJNiqGGCOD68fyi/Df9nT4FfD34e/8ADNf7QV/8ddU8XeG9VudETwlpFv4huvDuoR216DZ39lbixn0SK1nSNLsLJKI1dCQNxBr+wqih0i41bKx+V9n4I1n/AIfD6n43n0iT+xl+DljYJqXluIjMfENy8lr5n3T+6COyZ54JHSuy/YB8P+JPCXhr4uRa1p9xaSy/FDxdfQC5QxtPb3N6ZIZ1GAHWQjKt6dDX6PUU1TszE/Dr4hfFNP2Nf+Cnvjf4pfEfw34lufBnxA8H6GlvrOkaHqWs28N7pU13GLQrpdtcyh9kjn51CoXiAIEj1ifHX9oZtJ/aM/Zp/bH8aeCfFmh+GtQ8K+IV1OK48O6jdapoc2qwWEkNpf2NhBc3EU/mp5ckfklgylwohSZ4/wB4KKqUblwlZn8wvwK8E/Ef9qay/bHt/CvhTX/Dtx8RI9P1Lw9/wkOlTaTLcvi9ntk/0kW6kvi2J3sGhE6+YxCYGt+xb8PPgHc/FP4S2bah8ddY8f6W7TXGleKpPEU2geHLmDT73z5Jbi8hGnwW/L6fA9rK7Ms0MQBiZsf0yUVn7E19v5H5IeBfB+uQfCf9qzSLrSbwvq3ifXprXdassl953h3TwJIVICyhmJhDKNrPG6/wgD4y1Gz8QfCr9lD9jDxt4q8Oa2NM8HXGlSa4LXSr3UbrT4F054wktnZJLc/eb5lWFwpVQF+UV/R5RR7IPb+R/Oz+1h8XLb4nftG6S3xuvfitpXwfuvC2neIvDNn4CtPEejNrN/cNLK1vqk+lQwalbXJXZstrqexSHCvP5UrJX1T/AMEdfDev+C/2Nl8CeItD1fw7daXr+sW8lhrUDpcxpJeSzR5lYHzlaOVS8heTDEqW3Zav19oqlT1uYX1ufzuft8T3PjT9pbxP4A+N9z8T7DQLPQrSXwTpfgT+3rPTtZ1S5WX7ZHql3ocYjfM8dvGn22dYooy/3Fkfd494S8AfFXwN+wv+zn8drDwNr2uXvwX165XXvDi6Zc2WrTW82oSWlxJHbXphll8naGXO7zBhuIiXH9QlFRKheXNc2VbyPxE/Zn+MGoftM/8ABQvXPjtp3gPxf4T8PjwH/wAI5b3vibRbrTJb02eq/aGnt4pQSYJUuCImyGK/Njkgflv8N/2efhZ8PfByfsx/H7SfjxrvijRddTRR4V0ZtUvvDN7bw3cgttZso5EfRorVYSt42+RJ1mQyGIN5cj/2B0U/Y+Y/b+R+IX7Pvw88Z6V/wWR+O3ja+0C/t9I1Tw/pDQ6pLayx21zKLPSYcxzNH5UjqbeRSIpODEPl4yPKPgx4A+IGl/8ABKjRPB174e1W21SP4h6ZP9hawljuvLHjyC6M7wxDcEMWZZH6BAZMZyT/AEKUUex8xe38j8E/+CgutW1/+1Xpfg/49r8TB8L7fwj9usLbwA+v2sOp+IJbyaOS2vpfDXl38jJElu9uskkUMZVmdmMux/iX9m3wf4A0f/gnN4Z+C/7cPwp8eazb2/jrVFu73TdJ1GW/8P6lb2sv/E1kjtz9qw/2iSFJYI7iGXfIJFcMyN/WNRT9kDreR+F3/BK27+Ilp8V/id4V0G58d6x8H9PTS5PC9/8AEC21NL2W48hluFs5tXhiupLVHiKogVI4lVCsUbSu8vtP7YninW/2aP2rfBP7WN74X1rxV4QvPD1/4O1hfD1lLqF9p8k11b31rcm2tke4kjZrZoy8ZUxv5fJyAf1oprFgRtGeea0kroyhKzufzLfArxd4x/ab8Sft8XGi+DtW0fUvFPhjTFsNJvbaOLUp3utA1C3sopFyzieaCKCdYJCfKW6jRvmL5xvBPj7XfiX8Of2QfgV4Y8AeLpbv4Paz4Zm8Tak+iXkWmafLZ2U+jiJZriPE8chnMpuLVZNkIQuyoZ/L/ez4cfsy+HPhl8f/AIkftBaRq+o3d/8AE2XSpr+xufsxs7VtIs1soBa+XCk670BeTzJZMuzbdq4WvpWNSqKp7ADrn9ay9j5mvt/I/mK/aC+F9r8Mf25fiJffHI/GK00PxhDZ6rousfDGXWVsbo+UtpPY38GlIVkvBMN0KyJIqxEiYovlM/7M/wDBPb4d+FfhP+yp4U8DeBvCmt+CdJjhmvodG8RNE2o2p1O5l1CVJxBJIiES3DgRnY6DhkU9ft+itIRsZznd3CiiiqICiiigAooooAKKKKAP/9T+/iiiigDxT4y/tGfA39njwivj346eK9J8JaNJMLaO91e9gsoJJm+5FE87oJZX/gij3yOQQqs3FfMH7Qn7Wfh/xL+wZ4w/af8A2W/E9nf29vot5faPrNv5dzA72xdGZUfuskUkbLIqlXRhjjNfHf8AwVQk+KFj8efgLrfwxvvCml3seqa9bWk3ji3uLnQxqNxZxx2wu1glhlWRovtQtXLbPMccAYc/HFx8D/jh8Ovh3+1n8RvjP42+H+q6j4v8JxNqei+CL2dYdNntklSOaSyvt8luJ4HZ5JpZ28xyHK7VBGKm7gfvV+xn8RvFnxI/ZA+F3xU+It0L7W/EXg/Q9V1K5RUijkurywhnuJAAFVFaR2OM8DpXP6n/AMFCf2KtEvW03XPid4bsrka7deGhDNqMCOdTspBFcwbd2V8mQhJWbCxsVDEblzj/APBPq/D/ALAPwUliXPkeAvDvBYt93TYQQSEz1XB+QMCDhc4Ffm/4S1r9mvwx8O/2sbX4oX3h611RfFviqSdNQazjvWt3soCrxoXYkmV3xtGXlYZ2N+7W5uy0NKcbuzPrD9vb45/Gj4UfFz4DeHPhX4ibR9O8Z+N7TTdaiS3tbgXmnyzW4kh33EUzRna5+eIqcHCkYGPvjRvjv8IvEHivxZ4H0XxBZXOreBRCdftkky+n+fCbiIXHGELQjzAOu3mv5i9A0L4geHP2X/2Fk+JkdxbXy/EFbmA3z7JItPn1cXOnxtvbhf7NMOyNyHVV2EBhgfbHwq8d+CPAv7XP7dGqeOdUtNNt/tegHZPcLCyxJ4TtI3ZRL80x81RyqlTvKDcylTiqjHVilsfrR4h/a2/Z68KeE/BPjjxB4osrXTPiPeafp/huaR8DUrrVYhNZRwcfMZkYYJwoyNxAOR5PrP8AwUq/Ye8NfBix/aG8U/EXS9K8G6re3Wn2Gp3rSW8d5dWNxNaXMVosiK900c0EikQLJ03D5SCfxo/aS1Dwx4s/4J4fsL6VIbDUtLb4jfC7Sb6ORrW4tCv2Z7S+s5VLtC4CeZbyRqCQQy4LBlX79/a9+IHjjSvjH4I/ZS/Z41Hwx8OtZutJvNen8U+K9El1GztbGNzbi00mP7Vp8E181w6POpu0FvAFMilri3UurUahdFU4Jos/tz/toWOv/wDBMXxx+13+xL4/jVrKxjudK8QabDDdmCSK+iilDW13bXMe4gPHtmtHK8ng4I/SX4TalqOqfC7w7rms3LXtzcaZaTzTsMNK728bMxVcjLMxOBX8uCf2zrP/AATK/bG8I+JPF+n+MtVt/Hsxn1XT4k0y0kE9roYW6hs4pZvs1u1zFcOYmnVSwlBlUMZY/wCnD4DatY6p8B/CN3pbpJA+i6eVZXSRSpt4/mDxl0YAZGVLKSDzgGiNR2Mra2Pgz/goj/wUM+B3wU8AePvgj4P+I+k6J8Z7Hw5dappOjyTxLfh4ohLG6wzDY29OUDcMMkZr7H/aB/a1/Z3/AGPfh5B8Qf2kfFln4X0mU+Vby3eXuLqULuMcFrbRvNPIB8zrDExUc4xX88PgXxr8MPDP/BJb40/D/wCLWpaRYfESC+8RWmpQXUsL3smsZFvA0cEzRTys+6MJ8zK5LGNgmMe3ft43XxL8M/8ABTzwd8Q/DPj7QfhtZ+IvAa6LoOu+MLH+2dFk1CO/mu7q0t4/tNtDZ3zQPBMt00pEiII1LjCBKozapTSVz99fg58b/hl+0F8PNL+LPwa1a38QeG9ah+0WV/atmOZNxRsAgMpRwyOjhXVlIK5FSXXxo+H1p8VIvgk92zeKptHl19LAQyqTp0M6Wzzec6LAuJZFXY0gfnIUgE1+cX/BNT4U6l8M734m6hqvxK8J/Em813xBFc303hC1SztbLUTarNcR3FtFdXcUc8iNHIZN6kgjEa5Arif+CgHxqtP2QP2l/hn+0Zf6Ff63BqOgeJPDklnpvzzT311d6RcadCkTbXdXuIpFZRhfn8052eTJrTk3uc5+lI/aj+ATeLvGngIeKtOGsfDiwttU8U27zCMaPZ3kEl1BPeySBY4I5IIpJVaRlBRGJIAzXkH7OX/BRj9jr9rzxDrPhT9mjxraeLtQ0Ebru3tkmhdoxKYDNbi5jhFzAkoCPPAXiRmQM4LCvyN+Nf7OHgL4BeG/2XvgN8Y7yKHSdW8cya9441LULlILW91+HTDfyCdriRYZobudDapDLI7+QfKQzOqo3td78b/hB8Uv+CjGm/EnwtcWWheAP2f/AA/qsHifxRcSx2ejPdaulmsVoLorHbyJbxopWSSfy9yyqsYkjDGZzadkb04Jq7PqvxJ/wWE/4J9eFv2g3/Zk1fx2w8Vx6hBpEiQ6ZqVxaRX9zcLaxW8l7DbPbIWlZULtIIlY7WcMCB+jGqeJ9K0HSbnXNdlSys7KJ5ri4nYRxQxx/feRmxsRQCxdsKEBYkAGv5y/hj4m8f8A7HH7Ungb4BfB/wCLPhj4ifCn4m+KtUNroNuBfa7o0c8cl/LIl2tzctILWULMbubIkL+UbdHdJa/Sb/gql4e8Wav/AME+/iTZ+D3W0u4dOtbq4LKs6x2NtdQzagAkhCMTZrON3yscH5gSCJVR2MmtbHof7N//AAUq/Yu/a98X674C/Z08Zr4i1Xw4Fa+gFhqFrhGlMPmQtdW0KXEQcEPJA0iIOXIXmuJ8Sf8ABWD9iDwj8eP+GcPEHiq5i8Sf2hbaSXi0rUrjTlvb0olvA2owW0lmGeR/KyZdqypIjMGjcD8yvCHwg8c/Hf8AaD+CvxU8aftb+AfFU/hfV5L7QdE0Lw5b2F7qFs6ma8soJYdaaULLBC6sJLWUARudhJGObudT8W/sdeJPEHxg/Yy+OPgjx/8ADrxR4yTV9S8CGOC71We9vb63tr6Gz1KynuZZLhpgIUH2eBIXKSOJJFdLhwm72ZtOmkrn9NsN28kav5TZbB2nGQD+OOO+DXyzo/7cX7NWt/ATxB+1BZ6+6+AvDMl7Ffau9pdKgbT5TBc+VF5PnShZQY1McbeYw/d7xyfYfHfi3Rfh98NNX+I+vxyNpWgadc6lcx20YmeW3toWlZETo7FEATOCcds8fy7fHDxt4Gu/2Gv2av2LPh14i0q51nxr4h8Kt4vsLG+87yo9SZZ7uS7QO3lI+s3aTFZwwnMcgIaTcIbqSa2IpRT3P3Y/aX/4Ke/sbfsm2Wi/8Lr8TS6fqHiK2F/Y6VBYXlzqj2QRpGun0+KE3UcCqjkvJGvKOoy0bqvj37Qf/BWj9lX4U/CDwX8TNL8R2sv/AAn62l9o/wDaK3VhGulyXaQXmo3G+2aSOK0iMkpiKCSQoI9oV2dfhv8Abh0jw3+zz8YfF/8AwUM/Y8+MXh7QviAkcemeKPDGrSxapa6w0P2O1tLIWUd1b3Fnd7oETyUw1xgR+bbF2c7Pj34v63+0N+2f+x5qvi+wTwfa3Xhq98Wa3o1zdOLdNR1y0SPT7dZ5xaC4uIZoZoIT5HnlZpCY4iTjL2kjb2UT9Qfih/wUc/ZD+A/wP8MftA/FbxhFZeF/GMFtPo1zFb3FzcX0VzCk0csFjaxzXLL5TebJtjxCnMm3Iz6/8Mf2uP2fPjH8EW/aP+HHiW21HwQlncX8mrYeGKGCzz9pNysypJbPDtYSxTrHJGUbeo25r8M/j9pfiKf/AIKRfFDxz4d+OvhH4J674Z8PaLZQ3PirRY9TlOgzwNLNc2M15f6dBCkd5vW4MXmFWCCcxh4xN478Uvhr+z98DPCP7J/wt+Gnie8ufg14x8Vt4jvvEGrvG66lJbpp8tjFftts0gkuo45ISvkrKhEpkGRcGj2jB0kfSfiv/gqR4G/bU/bC/Z7+Bf7B3jW8utF1LX7nV/El1Hp+o6bHcWOl2z3dvbb7y1hWW0vYI7shojIrPFErbc5H6O/tF/8ABU/9iD9lX4iWvwp+NvjE6XrlyImeGCwvr1LVJ9vlSXc1pBLDbRurBw8zoBGGkbaiOy+SfAnxb8H/ANpv9uDxF8Z/Ady+qW3w58KWWh6PfKIX0+5j1e8u2ur6zmAkNxFjT0gjukkVNyXMQMmDIPxL+Cnwy8C+PvgxN4b+Mn7Smj+GvCnxI8YufFXgnStCEfiy68Qvq3kxWs+pteXF0FjuooBK7aY0TRI7uNrySUe0ZMqatc/pH/aW/bs+Bv7L1rpB8cNqurXuupLNYWHh/TrrVrua3hEfmXXk2kcjLbo8scbSsAA7BecHHqvwN/aV+F/7QvwM0n9ob4V3FzqXhnWLaS6hlFrOJwsTMjo1sIzMXVkZcIjhivyFlKsfxY/a/wDEXwe+GPiLWv2ov2S/jV4a8GfEX4c6LL4U1jQr6a21Ualpmkq0yac9q/8ApsF5FON0UkPmPKU2oG85mH7E/sjfEfxf8cf2YvAPxi+I2kpoWu+ItFs9TvbGESRxxT3MayttSUCVFYncI5MsitsYsQTVc7OYbZftkfAC9/Zwi/a1GrzReApbSO/GoS2V2k32aWTyUc2Rh+2KxlIjMTQCQNkFeK9Vsfit4R1b4Xw/F+1kmj0G404aqs09vPBKLVo1mDNbyxrOrGM52NGGB4IzX4B6h4t06D4xeNf+CXvxAtEkh8afFaHU9OtIEzGfDWoj/hJL4bGxGIjLZzW0uMn/AEt1VRsNfv7490+1h+HWsLEERTYz5EjbYhiJupJwijvtIwK0hK+4H5uaB/wWp/4J5eKNb8H+HtN8cOt740x9hgksLwPF5t1JZ24vAsLfZWnmiPlrLtbYVkYKjqT75+1J/wAFD/2df2TdX8O+EviHLq+p+I/FsFzc6Nonh7SrzWb68gspIY7mdUsYpUSGIzoWeV0GM7clSK/Er9nb/hHLz/ggt4a8QL9lkll8a2krzJJGuXHj5Cu5oQD5iwsSq8AJgHC4x+k+lfErwn+z7/wUM+KjftJeJ9P0KPxvoWhXvgp9QvSBNpmiw3UWpWkZmWOCOaK8lNw1tGZC8cyyqCVcxRObTOiEE1c/SX4TfG74cfHH4baR8WfhPqKa94f1u2+02V5ahisqjcGXa6q6SIUKSRuquj/IwDZA8qtv2wfg7L+1Xd/scJcXZ8bafoA8SXEP2aT7PHYvNFAjGfbt3F5hx0AVySApr8/v+CPuk6zeeHvi/wDFbSy7eCvGXxA1e/8ADB2OIZrTz2Bu7ZCFAhlwiBlXEkkTS+Y4cMeU/wCCh9z4k+B37Yngb48/CXT57zxt468J6p4C0pU8qWMaqZVm0R5LdygMSSXN5cXJJZTFb7cAE50b0uYpa2P0P8R/t7fsy+HdB+IfifVtcuLfTPhZcWtp4gvpNOvo7RLm8VGgt7S6kt0t7+d/NhHlWcszhpoVYBpolfm/2Vf+Ch37NX7Zd1rNj8ENTvJp9FWK4eLULKewluLK5G+3vbaK4RJJbaePa6OEztePcF8xN35veNfhR4X/AGRtC/ZR+D/x51m0n8G6VrGoXfivxLfzyLaXviD+zJnguLma987K3N00ri4ubhpScF5GkZpBeTxv8MPjP/wUG1b9uR9Us7b4M/DbwjJ4NvvEtyRBZajqWp3v777NPHuS502GOeISXjSCO2f7qsjyTJj7RnT7KPY+z/Dn/BVz9l7xd8Vofhd4Qt/E+r2s/iAeFE8SWegajL4ebWjK0Bs11IQiJiJQF81cw7WWXzPJPmV1v7TP/BSL9m/9lHxhYeAfibNq91q15YSaxPBoumXOqfYdKjMwOoXj2iSJBbnyJCu5t7BHYJtjkK/lP+y/41/4Zk/bs8N/sZfsh/EPR/id8J9Yt7zWbjRo5LW4vfDPmpPIXnvrKEIkMl5CPJ3MG/eyrNC0zxXE3hf7B37R/gTwl+wb8UtO/aL8QtH8d/HusarHq3h+/V4fEt3rWpWUKx2EenSKt1HHHc3GIkWNbePlP3UZbK9qw9lE/WL9v7/gqb8J/wBkf4Kab4q8IX9vr/iPxhp0Wp+F4wtxLp13ZtJbb717yCJ4khWK5EiB2VpeNisDmvZfEX/BRv8AZO+Gfw48H/FP4neMYtG0Txv4ck8TaZqd3bXdrbXOm2yWhNxsnhjkikna+gW2tmQXFw8ipDE75Ffkp41+GVz8DvjF+xZ8G/jf4lsdA0rwQNZ13XVub0Q2EeoJCk9rsuJ2iik8idJoID5YzFKBGET736XSr4V+MP8AwU5i0uSxh1S2+GfgGK7WZ9si21/4i1PKFQ33ZGt9LdUcAqY3YKyruDHtGHsom78Wf+Cp37K/wa8O+FNU8S3Or32qeMNDHiaz0PTdOlvNWg0YoJG1C9tYsm0tVTcfOnZEby5FQs6MteoeNP28fgF4K/Zx0/8AaouLq/v/AAprJt001bSwuW1G8muplt4baHTZI4737SZGIeB4UlhCOZVTaa/ID9j79qr4Dfs7+BPjL4r/AGgdRto/i9qHjW/a/wBImdW8TXs0zRixs4bWNJbs6eZSRb/u3tIog8jYt92Lnhj4B/BfwH/wTX+C37H/AO1L8Ro/g18S9C06TxJ4c1G8uoNPnsdWtZJR5hMkywOYPtoS4tUuEY/O6spQSKKoxOnE/Yn9lX9sz4fftU3eu6T4U0LxP4d1DQBay3Vl4p0a60W6EN6rvBKkN4qO8biNsMoI96+yK/FH9kX9t/xN4M/Zb+Ifx1/aV8T23jvw14D8RTaRYeL9HtUt4dcso/IQXFtCrCGZRLMy+eh8twpImmCs9frx8OvG+m/EfwVpPjrRw32PWbG21CDcrKfKuolmj4bBPysATgc57ggdJynbUUUUAFFFFABRRRQAUUUUAFFFFABRRRQAUUUUAFMCKDkKBT6KACiiigAooooAKKKKACiiigAooooAKKKKACiiigArmNf8Y+G/C32d/Ed3FZJdTx2sTSttDTTOI40z0Bd2VVBOSWFdPWBrfhjQ/EkH2TXraO8g3I/kzoskReNt6sUcFSysAwJGQVBGCKAN+iiigAooooAKKKKACiiigAooooAKKKKACiiigAooooAKKKKACiiigAooooAKKKKACiiigAooooAKKKKACiiigD//1f7+KKKKAPIPjF+z98Df2hPCf/CC/HXwfo/jHRlmW4Sy1myhvbdJ0UokqRzq6pIqsQrqAwB4Ncf4A/ZH/Zo+FXwov/gV8N/AHh/Q/BmqxzxXuiWen28VjcpcoyTrPAqbJRKjsr7wdwJByDX0fRSsgPOvBPw48D/C7whZfDz4faXb6JothEYrOzs0EMEAzwsarhV5bIxg+nSvz/8AhJ/wTk+CE/izxp4y/aI8A+EPFWo6v441PxNot1cadHdzWtpfPC8UbPcQ8N5kJkZVym87hySa/UWinYadjx74l/Aj4R/Ge006z+LXhrTvEkWkXkeoWKalbx3H2e6iBEc0W8NskQMcMuCO1cP47/Y8/Zi+KHj/AEH4p/EbwDoWueIvCyQx6Rf31lFNNZLbSPLb+QzqdnkPI7Qkcxb32Fd7Z+maKVkDZ86j9kz9mdfAugfDBfh74bHhvwpfRapomlf2Xa/Y9NvYJXmiubODy/LgmSWR5FkjVWDuzZyzEz/HD9l79n/9pTR7Pw9+0D4N0XxlY6fJJNawazaRXaQvLGYpSglVtvmRsUcDh1JDZFfQdFDS2C7PnHw1+yV+zT4P8O6/4Q8K+AfD2naP4qgitdXsLbTreO0vbeC0Swhgmt1QRNDHaRrAkZXYseVAAZs+t+Dvh34D+HHg6w+Hnw60Wx0HQdKgW2sdM063jtbO1hTIWKC3iVYokAJAVFAA4xiuzooshHzX42/Y+/ZX+JnjS6+JHxI+GnhXxD4ivrKfTLnVNT0eyu7yayurd7Se1kuJonkeCW3kkgeJmKNE7xkFGYHt/GXwK+EHxG8Bn4WfEHwtpGueGGjjhbSNQs4bmwaOHb5aNbSo0RVNihQVwAMDivXaKLIbkzh/h/8ADT4e/CrwlY+A/hnoWn+HdF00SC00/TLaK0tYPNdpJPKhhVUTe7s7FQNzMSckklmufDXwL4g13RvFWq6NY3Wq+HJJZdJvZ7eOS4sHnhe3la1lZS8JeGR4m8srlGKn5Tiu7op2EeafE/4O/Cv41+Brv4Z/GHw1pXivw7qAiF5pesWcN9ZXAhdZYxNbzq8UgSRQ6hlOGAI5qn4Z+B3wg8HfDhfg74T8K6RpXhJLaazXRbOygg08W9wXaaEWsaLEI5TI5dduGLMSDk59XopWQ1Jnzz8IP2TP2YP2fNTvda+A/wAO/DXgu71FUS6m0LSrTT5JkjLsiSNbRRlkRpHZVPyqXcgAs2ffEtIIohFCgQKoVQBgAL0wOgx2q1RRZCueF/D/APZp/Z/+E3iHWfFvwr8DeHvDOq+I2D6te6VplrZXF+wLEG6lgjR5iC7H94W+8fU1SH7Kv7NP/C2W+Pp+Hvhr/hPCc/8ACSDSrQauSYmhOb4RfaDmJmTmT7pI6V9A0UWQ3JlCXTrWaFonRSG3Agjg7/vAjphu47968I8F/spfs2fDew0vSvh38PvDfh+10PUptZ06DTNKtLSK01K4ikgmvYEhjRY7mSKaSN5kAkZHZSxBIP0NRTsCZ8+XX7KH7Mt38Wv+F/zfDzw03j0YI8S/2Vaf2wCIzECL/wAr7SCsbFFPmZCkgYBrV8c/s5fAj4n+JdD8Z/ErwVoPiHWPDExuNGvtT062u7nT5jsJktJZo2eBz5UeWjKk7E/urj26ilZD5meN+Mf2efgP8SfF+lfEP4k+CtC8QeIdBkSXTNT1HTra6vLJ4mLxva3EsbSQsjEsrRspUkkEGu48UeA/BHjfRrjw5400iy1fTrzHn2l7BHcQS4Ib54pFZG5UHkdQD1Ax1lFFkHMzmV8LaOtyLxbSESBQoYIOilyO3YyPj03tj7xzyei/Bb4U+HvGt/8AEnQ/DWl2XiLVYxFe6rb2kMV7cIGDBZbhUErjcA3zMeQD1FepUUWQuZnk/iH4G/B3xX47034peJvCejal4n0cBbDV7uwt57+1AOQILmSNpYgDkjYw55r02G28qMpkn6kk/mat0UWQj4M+H/7Mvief9qfxJ+1D8b9Vstf1WB/7H8JW9ijwR6Jo4ZmZJAWK3F5diYmeWQExqFWDyw7hvu2SCN4/LI4qaimBnDSrAoYpIUZDg7SMrwdw46cHkeh561geLfAng/xvoU/hnxfpVnq2m3LK81peQR3EEjI4kVnikVkYq6hgSCQwBHIBrsKKVkNNlSO1h2qzDLYHOTxjHA9BwOBxUvkRYCgYAzgAkdfpU1FMRWaytXQRtGpVegxwM1A+k6bIqK0K4iBCYGNuVKfLjodpKgjkAkDgmtCilZFczOE8I/DP4c+ArS40zwLoOnaLbXF7NqMsNhbRW0b3l1kz3DLEqhppizGSQjc5J3E5rqxpWnC5N55KecRtLkfMQCWAJ64BYkDoM8VoUUWQuZnH6z4I8I65Np0+u6Za3zaTcC6sWuIkla1nAKiWAuCYnCsVDIQQpIBxxXTrZ2yZKIBk5OPU4J/PAz61Zoosg5mVDY2hO7YNwyQR1GRg4PUcccVi614Y0XXo4rfUrSKeKKSKRVdQdrwyLLGy8cFJEV1I6MoI5ArpaKLIOZmLd+H9G1CxbStQtYprSQBXhdA0bKvRShGCoPOOma10jSP7g/x4p9FMQUUUUAFFFFABRRRQAUUUUAFFFFABRRRQAUUUUAFFFFABRRRQAUUUUAFFFFABRRRQAUUUUAFFFFABRRRQAUUUUAFFFFABRRRQAUUUUAFFFFABRRRQAUUUUAFFFFABRRRQAUUUUAFFFFABRRRQAUUUUAFFFFABRRRQAUUUUAFFFFAH/9b+/iiiigAoqKWQRDc3A7k9qpQ6gk4/d9flzuBX7wyMZHNAXNKiolkZlziuO8WfEHwl4Esv7V8a6la6TaF/LWa7nihRn2l9imR1y+1SwUAnAJ7ULVXA7aiuJ8N/EDwr4w01dY8Jahaaral/LM9lPFcQhsA/fjdgRz2yfUCu2oAKKazFelM8xv8AP/6qAJaKRTkZpaACiq9zcLbIHbnJx2HYnvgdu5FVrLUYrtmQYDLzgZ6djyBn8Mj3oA0aKRSSMmgnAzQAtFeZeP8A4xfDH4UW1tf/ABO8QaX4ft72Y21tJqV7BZrPNtL+VEZ3jDvtBO0HdjJxgE16LbTGdMnHH+enPfpyaALFFFeXJ8ZvhfJ8R3+ECeItKPilEEx0j7bb/b/KILB/spk8/G0F93l7doPJ60Aeo0UVUurpLbbuIGfUgZx2GSOaALdFeAQftS/s7XPh/VvFtt488Ny6RoU0dtqF8mq2pt7SeaQQxRXMvmbIHkl/dqJCMtgDJyB7B4b8T6B4w8P2PivwteQ6jpmpW8V1a3Vu4khmgmQPHLG65DI6kMrA4IINAG/RRVa6uBbIJGHy7gCeOB68kdPbJ9AaALNFcD4i+I/hLwV4bvfF/jnVLHR9K0sZvr67uEhtbdchd0k0m1FXJ5LFduRngg1a8C/EDwf8TPDVt4z+H+qWet6PemT7PfWFxFdW8ojkaNjHNA8kbYdCpw3BBBAYECXNLQDtKKKKoAooooAKKKKACisbX9d0rw1pFzr2uXMNnZWUL3FxcXEixRRQxDdJI7uyoqIuSzMwAAzWJ8P/AIh+C/il4WtvG3w91S11rR73cbe9sZVnt5gjFCYpU+V13AjcpIyDzQB2lFFITgZpSdldgLRSKcjNLSjJNXQBRRRVAFFIc9qaSwPak5JAPorxzxP8dvhh4N+Inh/4TeJNcsLTxL4qaVdK0t5h9su1to3nuZI7dcyeTDFGWklI8tSVVmBIz61ZzPcWsc0q7GZQSpxkE9uCw/IkehNNAWaKKKACiiigAooooAKKKKACiiigAooooAKKKKACiiigAooooAKKKKACiiigAooooAKKKKACiiigAooooAKKKKACiiigAooooAKKKKACiiigAooooAKKKKACiiigAooooAKKKKACiiigAooooAKKKKACiiigAooooAKKKKACiiigAooooA//1/7+KKKKAPzE/wCCqv7amvfsW/s2QeKfBVuJvEfi3Vk8M6TNIcQ2V1c2V5dm7l4+ZYIbOZ1QY3yBFJwSD/HfpX7eP7aeleNZPGenfFnxXHfpMLovPf3F1aoznYGexuJJbRlGeIxCAF5xkZr+7f8Aaf8A2cfh5+1L8HNW+D3xLsoZ7TUYZPss7wQzzWV20bxwXlqtwrxrcQM5ZC6MueGBUkH+cfSv+De/4tz+MEsdY8d6amgpO0Zu7W2uDdvbOGVs204SNXZTtLfapGQEsN7hRXmV4zqVFy6I9fL5UlTk6m9j+jT9kX4veJvjp+zf4Q+K/jO3gtNX1zTIbq9htSTAtwRtm8onnyzIrFM5O3GSTzX5bf8ABejT/Beq/Av4RRfERUOhL8VNHOpbyykWJ07UxclXT54z5RcbkKuP4WBwa/YT4F/Cbw/8CvhN4e+DXhRZv7K8L6db6ZayXD+bPLHbIIhLNISS8sm3e7EAszEnkkD4q/4KW/s4fEb9pnwR8O/D/wAPtPt74eHfHuk69qUVw6Lu061gvI7gBJOJM+cq7M/MGavQnFuPKmeVGX7zn6dj8C/gLpnwz8L/APBXXw5Z/wDBKrY3he9sLH+3trzvaNYRR3f2qS4mnme9kgXyraOAyKxW7l8sZgAx+iP7KX/BW39p79pPwDrn7Q83w90TTfhl4IsNRvvEOpJfyyXbPbWD3sFra2iRyNukzbgu7bsSMRFwK/b/AMCfCb4bfDPTZbb4e+HtP0CO4O+VdOtI7fzWGeW8sZYcnaG6DivxC/4J8f8ABNv42fCr9gT4q/sp/G+C10C98avPFZSRTm8SDdpdpZJKTA0T7FuYnICujGNEO5d2RheUN9S6s4y2Rnwf8Fcf2rfhz4I+Hf7RX7Qvw/8ADFp8K/iFfW9tFd6Fq1xqGsWFvdSOIby8tltjbeUYk86SOG4eVFZUZVmPlDT8L/8ABTn9tr9ov9o/xz8Ef2UvCfgaOPwFfX1o8HjDVL3T9S1NLG6mspZLZLa1nQbZIHZ/lKxB4fNKq7MvO/BX9kP47+D/AA1oPwg8dfsqfCbWLqxksrHUfF17JZSxajpcLRi5MkX2GS7kvJbeI4lnWOOS52ySxLvKCt+2L+x5+0d+0xo+u+AtU/Z48EReILrV2vtI8c6Xq0avCfORopZ0lsob2WbycrKHlSDJdkDSQ26PLrz7BGnc+rv2mP29/wBov4d/GrwJ+yL8GtD8HXnxS8S6FJrOr/29ql7b6PpRUSbVlltrKabyJpILiOGYqHJRC0Q34HEaJ/wVC+Lk/wCzT8YfG2ueF9IXx78HdXXR7y3sbme90i+Ek8MMV5A6RpciKUm4EYZVH7k7nDMVTwH4gf8ABL/4veGr/wCFvx1i0HQfjTr3gzw7F4e8Q+HPETKsWprH9qlt7m1ub+3ljD28t2f+Pi3bMcFsFRWi8uvorx1+yx8YvH37EXxO+G2lfCPwj8O/EfjB7L7Donhq5jcNb2rW7+XeXUNrZQ+csiyFTFmLYwwgfzGfJ8+9zqU6aPKPgz/wVO/a28UftWeAv2bfjJ4H8L6KfiVoNv4h0Z7G9u7mSO1u7bUZrNrhzH5Qd5rALLChcxIxbexAFcn/AME2vjF+074e8TftC/E74mweHl8NaH4w1+88VyW15f6jqA1mwsLOMWmmRSxRK2mm2hVku5ZWkOwILdVZpIuvu/2Bf2il/wCCgHwL/aLl0yKPw74G8A6L4e1y4W6R7iO7sYtWEyohcmUBr1djorHquOcj0/4Ofsz/ALUPws+Ifxn+CWo+GLLUvh98ZvFmueI5/FMWriCbTIddtH3Rx2DQvPcSwPHFCVZo42UkjapMdReoDq0z5d0z/gsr+1vbeAPDP7SnjDwF4Mg+GOu6gljdQ2niBp/EWnpHP5FzcS2skMMUkQZWWIIRMzbGkhiSUFP6G/iP8QdB+GfgDWfiX4uvF0/RvD9jc6nqFy6syw2tpE000jBVZiEjQsQoJ44BNfgD+z1+xR+0v8CPDNt8CfEf7Pnwz8em2vSp8catPZq89tNOZnkuYGsri5maMSOECmLaoEaxsArt+9Hxf+GGk/Gf4NeKvg94k3pYeLNHvtGujHgOIb+3e3kK54B2ucZ711YXm15jKs4vY/kn/b0/ad/af/bC/Zt8C/Fzx94T0LRPhxrXi14tC+z39y2rvNZy3VnOL23lt0hijCxSruhmkwUycb1Y/q5+0Z/wUv8AjTpf7X2tfsf/ALLFr4Ot9S8M2i3Gpar48vp9P043MltDdrZQfZVaVpHW7tVDKsjeZK/7tljxXwv44/YB/wCClniL9m/wf+yTe+ENB1LSPh9rU95ZasuoRRG9tpJrlhCY2ClY40mcKzRq+wxKAzec5+vf2gv+Cd3xY0b9s/Xf2z/h/wCEPDfxk0nxnHDFqPhHxIsNjNbTpaWtqtzbXdzFOgUNapLyqyR75FUNuOM8Rz83ulU5QSsz9B/+Ce/7ZE/7afwLm+IGq2dtpfiDQNXutB1yzsp1u7VLy22sGt7hCySRSwzQyoQzja2AzfePxZrfxB0mH/gtBN4P03whoaazH4SnuH1qY3bahI1vAph+RZxaquyTyzItvJMIiVLKMAfo5+yh8P8AxD4D+GTxeKvBXhnwJq2q3c95d6Z4RULaKzAJE0zmGDzbhYY40eUJtYrxxivjvWv2M/jBdf8ABUNv2sITp48HS+H5tKkb7TKt4JJbdIwqxqm4KJFXkTKAoOFGMV1wvyq5zNrmPyz8L/8ABaf/AIKC/ED9kbUf25PB/gbwbH4B8LXdrba2Lt7w3pmvltHitbaKKUp8n2uBZLqSRVC3CtHBL5Mhr9JP2p/+ChHxv8MfH34efsrfsy+GtE1Pxr8RNG/te0Hiue4s7C3RhcOiXElokrq3l2VzKrIGZ/LEaR5Yunwt8Hf+CU/7XPgv/gj54/8A2INbj0CPxl4i13Sr6whjvZXsxb2kmitNuuPI3xu/2C4ZcrIFdkyQMkfXf7Rf7Hf7WHhn9oX4V/td/s1Wmhaz4g8CeFY/C+oaZqt08IuolhniBhZI03or3bu2+aMqYwVSTd8udWUuXRHbGVNvRH4+fs7+JdJ8IfsQ/tL+OviJ4Os/G11ZeIvCr3Gh6oJPL+0/2z5QKyWpE2bWeVrgeWV2vuA2qxWv2H179r/45fDn9nb4A/DP9kDwfoWpeMfiJ4X0q4t7WaG/Og6LZCLT7UTypaNNdx2cct9GEZnKFY2j80N8x+V/Af8AwSz/AGp4P2Tfj38GPFcOiDV/iPdaNdafJFfyyW0hs737XdbybYmJsFvLBgfJIwBjJ+gPjP8A8E+v2iJfAv7NnxA+EVto03xA+B+nWFteWV5cskNyYbSyiuIoL0WpZvmtTGhm2qYpZAGjGY356M5L4gq04y0TPtX4gePv+Ch3gL9nK11zS9K8FeJ/iI+ryw3gE11o+i2uk/6R5V8TdPNcblRIWmhYhkd5BG0yxoJfzD/Zr/4Kdftp/tIfEf4hfsieILP4b33jTQ/DOo6taa/4cvdQufDkwtrjTrZgrxrPcTpsvmJljaIq6FPKc52e/wD7V/7Pv7bn7VfwZ8Pap4w8LeGk1bw345sfEI8JJqDXtlqekWq4+yX5vLaO2aYSMCWjCq0G4CMTogHkX7Lf7AX7S3gf9vzU/wBqrxd4S8M+FPCvjXw3qWmXuhaXeO39iJc/YgIbeK0tYLW4kkkso5H3xkCOWULPvjCSlac2/dQ6VOCVmz5R/wCCcGo+M/Bf/BKL4meINX0jwhqnwutLK9uNK0ry7tb671eSPz706hJDLDDFDGqxeWYkF0zb3Z4JkAf6F/ZU/wCCh/jP4NeE/wBmT4d3HhrwroPgb4nx6pp9xHpFrfWL2Oowatc2hlhS8uJ32yXEtobpZkeXzbh5GmyRn1/9mf8AYm/bD+GP7IHjn9iTxRovhkWOo2GqHTtefWLmVbnULlrdYI5bQ6fJ5Vq6eczy75ZFdVBgHDl2v/8ABLb4oeOv+CZngL9m3UdR0vSPiT8Pr2bV9Mv7M3H2GS5knvMwGXyVuoIbm3uQZvLjQxzKjBfkranTbV2cVa3M7HIt/wAFrvEGm/DD4sfG260vSdS0LQ/GFv4S8DW9r5kcuqs4ubs3E07TSB1fTIo77akEBVSYuWIcfSvwx/bQ/ax8E/tL/Dr4C/tQQeF76z+K+kPe6Pe6Fb3NhcWF9BaveXdldxXV1dLP5aqEjmiCbsl3jCo1cJ4p/wCCVS+J/wDgml4f/Y9kaxs/FehzLrTXsCO1qdXYyidiypE0yeRPJarK0bSCIKwjbASus+En7K/7XHi/9pf4c/Gz9pODw/o2l/CXSrmw0mDSbme/nvbq6s/sks8zTQweTDtWNlSNWJkjO5DuE1ONdt2aO2rGnyto9l/YQ/b4+JH7X/xT+KHw58X/AA5u/BUHw9vIbSO7uZvNaaeWa53Wk0JRDDPHax2l0RlgY7yMdULMz4g/tbfHz4Y/8FJPCP7Lvi/T9GHw8+IOj3d3oOoQxSrqX2/T4t9zbzu9yYtqkRhSIFD/AGmNRIrxMJPT/wBlPR/25dO+IfxC/wCGqb/w7eeGp71JPC0eiLIJYoiz+akhljVwmwRkea8khmMxVvI8kDyT/gqH+xv4/wD2yPhRpfhz4Sz2ll4q8O6qmpWM1/O9pA8UltPaTW7XMNtPKisJhMQASZII+gIq60ZNe6clFpP3j4S8Qf8ABYb4z6R8AvEfx50u08N3mneLPHU/hD4W3FxFd2dhc2Vs8nm6vrV3JI3l26Ku12ijTa8bjYV+cekfB/8A4KqeN/E3xr8T/A+bxP4E+JUFr4Z1LXdD8X+CCBo00tlaxzm3vYRqmpmF0dZ1ZkvCuFXqWPldf8Wv+CYeqeP/ANhz4VfA7QW0i2+IPwsubHVLC4lh36I+opEy3dtcLNbPPJp1yLiTfsiDu6Ru6KQ4HYfBP9nT9pPVBq7fEv4Y/C/wHa3ug3+m2raJaM2ri9uYZLdZXu4o2jhtyhxJGu92DBhJ1irnjRm92dPtKZ86fs/ftb/tt/tqfslfEz4n/GTTvBek+CbHwt4hs5IdMh1BdXuL9bNZ4ZVinmlt4bUWk/zEvLJJIAQIgwx8IeC/+Cg37dv7AP7Hnwj+JiaL4a8UfDTXxqen22nxQX0Opwz2MtwyJLePJJtfUJfOKyLZywwCKGM5klBl/Yb9jn9h/wCNfwC/YT8bfs3fEO50CbxL4nk1doZNKlupLFH1CxjtoS0s1vFNkOpMjeUwXdn5sEV+fPif/gkd+3N8cPhX8OP2V/jF4r8LaJ4D8Ex3jy3uhT30+oma/cZlWO6tY7dpbaJ54YHBRArlni5XGVRVE7IPaUz7dP7dv7Qv7Sn7YfiT9lf9j3VfDek2HgzTFu9R17W7C41E3F+DbSmyit47qxESg3C28rb5XUrJ8quAw8M8df8ABXn42X/7Aml/tDeF9A0/w74mufF8ngvVppoJ9Rs7GSO1munvoII3jkkTyVR9rFjG5ICXKj5vb7v9hr9oD9n39rjxR+1R+xWvhiSDxlpUVlqGgeIpLuwtraaJLcPPZmwtbhG8/wCzb5VlRZGmeRzKwlFWfhJ+wb8d/wBm79ky0+CXw5tfBnjjXdU12bXPEa+K4blNHuJp42SUwLEkk4mDRwkSPH5bfN5awowjXZ1W1ytHK4rdM+rv2G/in8ZPihZ6xqPjn4j+DfiZ4eiSFdN1LwzYTaffJcBpFvIdSgN5dQxGKQCOFQI5TskEqBkJbwL9vv8AbB/at+C37S/ww/Z5/ZntfC9xc/EK3vgH8Rw3jIlzBJDHHumtJg0Ue2ZpAv2aUymJk3xZBOd+wH+wp8V/gh+0747/AGn/AIoweGvDDeKrBbG28L+EllGnWgZrd2dpHgtRJIv2cBT5bqodhGYxvV/Xf2rP2Qfij8a/2zvgr+0J4RudMi0L4c/2g2pw3TOt1I11JbNGbdVgdZCoicbZJowAxx1ObjF8vKhU5pO7Pg34xf8ABSz9pv4K/HLQP2U/iN4x+G3g7W7HQE1HxH4v8Q2t1FosuoNCZYrKytm1G1mRpWeBMSv5jIZXiVmCxDynQf8AguT8b9b/AGK/D3xkbwhoNt481zxdD4RkguLmaPTLR7nS5dTW+mRDLJ5aeVJFJELj935UrtOdgST7C/av/wCCf3xp8V/tkL+1h8FrPwl4ljl0eHTbvw74wWZrOd41mXzRIltO24J5RjAeFAybWzuUj44/4KJ/Dd/h9+x3pPwq+Ps+g/CyTxZ4zgmnufAelJ/Yz2tvZnNtqUt3c6XcJDJcM1yZYWyI4ktzHLEJIm56sKkdnc6qdSD6H0r4v/a+/bk8Eft2+F/2GdU8efD+5uPFFq2pprVv4ZvxJZrFb3t9Ja3WnnXj5Y8u1jRZWuQxjmT5BIyyN4qP+CsP7W8P7Mfxl+NU2neGzq/gPxdpuh6ZENPuvsq2dzOIZGnim1C3e4kYfKjxXKL5hD7DGCh80/ZL/aM0/wDZ0/am8E/s4fCsfBbx3F4xkt9PvL74bWsMGp2yH52e6uYbidbn5YlupC6LJJFGzkAqGHTa3/wSq/bRPhX4m/BHwnq3gufwT8QPEVv4g+0Xkl4moI1lP59vBgWckaJKqQrJK8lxMp3sFZXxVQcram0fZ9T3X9obVtU8Zf8ABTf9iDxPrRhuJdS0LxfeyogBXz5tFtnaWFOXRMkgkSjKnBDAkHe/bh/bc/a8/Z98f+J7HRvGXwt8FaJo0cVz4c0fVHm1HxL4iURwlj9ijurdba0aVrmEOuZN9uv+rSXzF9a+NX7GP7RXiXx/+zv8dvhrf6DP4m+DWnalZ3+majc3VtYX0mp2NpaPJDdW9vJcqsDW7vHFIVWQTMH6YHyn8dv+CVv7SXjv9ob4rePvCH/CF6hofxRgltxfa5JdNqOmRv5DJNbRrp8yJPAUdIR5hQp/rAwwBnL2l9DB1oJ2sdr4x/4KZ/tWR/sffAb9ozwFpPha41v4o+Kk8K3theRXcFlJJcS3sdvcQz/aGks4s2aeZvW6KrcHAYxfNgfG/wD4KG/tRfs+/Hnw/wDsh/Ezxn4O0e912A61qHxDv7B00qwt7ua8+zafZ6WLtXkkRLaMLJPdsXM4XLNG7HtrT/gnf+0HqP7LHwS+CGt3Oi2+qfCr4k2fi66MNzctDPp9tPfzNCkotVMtw32oEZhjiTO3ccEn2j9rv/gn18Tvih+0vov7XHwR1PR7rxFpthFpF/4f8WQeboOqWcUlyU8wwRTSxSqLtjuETbiiHKlAaIqo3YcqtNbI+Btc/wCC1v7Qeh/sm+PfiZZeHdH8XeIfC3iq38Nxa14eR00RbLVGvI7LWJoZZ7p0i861S3RDclHmuYVL5JU/p5+wZ8cPFnxTsfFGpXvx00P4z2FpJC6mw0JNBvdMlkjLNbzRNct+4cbXgeWIOrb0eSTGBxEH7Pf7aPh34SX+geCdG+FfhfWtV1eze7tLHTbptMl0S2j2HT52jihmuGlfaru8TKsBmQZLLt5f9mb9h741eFv2t4f2pvixZeEfB7ab4d/sRNA8Awy/2feyyTs/2m8lnhtZDNGrmNVVZI3Xa0sitEu/rowkn7xz1ailsj9moyWQMe9PoAxwKK6DEKKKKACiiigAooooAKKKKACiiigAooooAKKKKACiiigAooooAKKKKACiiigAooooAKKKKACiiigAooooAKKKKACiiigAooooAKKKKACiiigAooooAKKKKACiiigAooooAKKKKACiiigAooooAKKKKACiiigAooooA//Q/v4ooooAjwT94ZpQDu6U+igLhSYFLRQAY7Uwxp6Zp9FAEJjB6KBSeWfSp6KBpsg8s+lHln0qevL/ABx8VfCPw4jsZfGV19k/tS8ttPso9ryS3N1dSFI4Yoo1Z5HwC7CMNsQM77UUtU8ivcho9KKsevNNMf8As5/Ks+DUU8+W3fBeMjcFO5l3ZI3gfdyvPPvj38j1j9of4T6PP4zsrrW7T7Z8PrKO/wDEFpHJ5lxYW8lvJdJJNEgZwjQxu67VZmCttUsNtaXCx7aIz6Yp2HrA8NeKdG8WaBZ+JvD1zDfafqECXVtc28sc0M0Ew3QyxyRsyvHKhDI6FlYHIJHNaiX3mS+WsbY67v4cfXp9QTke9FwsW8PSFGPXml81fUfgajluCpVIl3Mx4GcCi4WJdnyYHB9adt+XHU1x/gjx94T+IuhHxN4NvY7+wFzdWfnRnK+fY3Elpcxn0aKeGSNh2ZSK63zR7fnzUlCbD6UeWfavLPEHxy+E/hDxx4e+Gni7xBp+leIPFjXKaNp15cxwXOotZoktwLOKQq9yIo3DuYg21ck4AOPVvMQdSBVc3QlR1uIIx/EBR04C/r/9ak81OxH54pfMWocbl3Y3Yv8AcH6U4Iv90CpKKErBdibVHakMaHnFNklWPgkZPYmpB0piGeWnpSGNB/CDXmnxV+Lvgb4KeB9X+JfxQ1GDRfD+hWct9e3twxCRQQ7d74Ckt97AUfMzYVQSeOl8KeKrDxdodp4k0wTraX0CXEP2iCS3kKOAVLRyqsiHB+66hh3AoHdnUKAOgxTWUk5oEqlQ1Rm5jUkE9KaZLQ7Y1Hlkdq8F1L9o/wCGGifHLTP2d9d1WCx8Va7Zz6hpNjcCSJtQgtSBcfZHkRYrh7cZaeOJ3eJCjMuGJX3wu2wOoyeOPxp3FYb5ZPak8s+lIk+WKuMY6c9vf8qf5q+o/E0XCw3yz6UeVngivLvHPxl+Hvw41zQPD/jPU0sbrxTqS6RpaOrE3N88UsywJtBAYxwuw3FQQOtenR3SOM9KTYcpMkSocipKzr6/S0i8zk4bacfSvPfhf8ZPhv8AGXQZvFHwv1m017Tbe9utOkurKVZolubKZre4iLLkbkkQjgkEYZSVYExGNij1EopOSK5DxN4P0Xxhp50jxTp1rqVqwIaK6iSWM5XaflcEcqzj8a4/41/Hn4V/s6/DrVvi78ZtZttA8M6HD9ovtQun2xRJvSMdAWZizqqqAWZ2VVBJxXqdrqFreRJPbMHjkG5WBHIqilKx5J4D+AXwe+GF7PffDjwjovhyS5YyStpNjBZF3YBXLmBE3ZCqMnnHGccV65BAYwQyA9OeOT/h2H0q6DnkUVLimJye4wAAY24oIJ420+iqQiDyz6UvlkdqmoqmyVHqQ7D6U9UVB8owT1xT6KkoKKKKACiiigAooooAKKKKACiiigAooooAKKKKACiiigAooooAKKKKACiiigAooooAKKKKACiiigAooooAKKKKACiiigAooooAKKKKACiiigAooooAKKKKACiiigAooooAKKKKACiiigAooooAKKKKACiiigAooooAKKKKAP/R/v4ooooAKKKKACiiigAooooAKKKKACvya1v4dL8b/wDgqRe67q5iurb4N+B7S48Pw3e6aCz13xVd3sE+oi33oJHW0sfJ6jaruFKs+6v1lr8tfi9pHxD+Df7ffhD4++G7KW78DeO9Gi8GeL5YtuNOmtLi6uNGv2VR5oVp7mW2kmIKYmjLFQqkJ7DW58rfAT4//tA/Db9iH4s/Hbxp4mtfEp8NeJPECWcd9DeK6yR6oUYfaJtRd0tSrEW0CbDBhcOxAr6o+EfhfwH8Ev219Y/Zc8A+F7S20rxN4Nbxdrmt3U17qGt6jfDU/saQ3up30ks91CkTMIkmkfYmY1AjAWvKvCX7Df7UOgfDr4xfs6XPizw7J4C8Yz61qnhu6g0+6XV7XU9Vuftif2g8l00EttbyjY0aRo8qMDvUBq1vhX8Fv2wfBPxZ/wCG1/2vdd8Krrmm+E9V0fXdH8H6fqFxZtp1pcw6hZmwuJyl004P2jzg8bbzKI4Yj5TNNjTbvqdFVK2h1v8AwTYtx8P5fi3+zNo06nwt8OvGt1ZeGbKGLy4tM0i6RLiLTkJG4x2sssixhidibVX5VArp9em/aBuf+Ci2n+GNJ8VWFr4eHg77aulXVjdyR+WmpWsd0UEd/HA904DJFdNAnkA/6mYZB6H/AIJ7/C3xh4d+GviH44/EfT7zQvEfxd1+/wDFt9o9/EIbjTILyTbp1lLGMbZobKOFrndhxcNL8qfcXS+LnwU/aUvf2l/CX7QfwE1rw5YR21kdC8Q2Gv2V7ctcaTLf21zMbGS3ntzbXbLC4SSWOaEMwzEcM77nMeQfsn/tKftfftATfFjWtftfBdnp/gfWPEHhbQ7a1GpR3N/qukahcQxz6hJMGS0s2gjgB8hLpnkklcMiwiOXzD9mX9vz4j/E/wDaQ8HfBPxJ47+G/jweJNL1W61SPwELsrod9pqwMYGvp764F7GxlliLi3tHVrdmeMGTy4voH4UfsO+IvB37PHxm+AnirxL58XxY8QeLtVF7p0Twz2Np4meQpGC7gGa3WTHysgwoC4wK8S/Zn/YS/av+E2rfCO5+LXjbwjqOm/CKwu/D+ladoHh6606MaRNpi2nm3DzX96Zrvzba1+VBBCEWVVDF0MeM730A8rtf2gv2tf2c/gJ8Sf2hLb/hFX+Hvgb4h+KpP7Jlt7y41fVdPl8VXw1Ai8W5t4NPuYriaRLdWt7xJI41ZyrSgJ6F+2V/wUB8S/A2SfXPB/xT+F/huG58Kr4h8M+H/ECz3viLxFKY3mURwQ6hZC2tZDGYVlihvMMWdtmza3UfEH9h79p3xZpN78FoviFpa/CrxJq2sazrlimjMNd83V9du9ZWPTb77V9miVTOkcpmgmZiryo0ayLFHnfE39gH496j8avFeqfBLxT4Y8NeAfiF4W07wnrtrqGi3eoazbWOnRXNoqaTdJqFskIe0uCp8+KREl/eBGPBhSkdSirXPM/HP7QekfEv4t/sQ/E3WPBugT3XxStLrU/t1wlwZ9I+0+H4b/yrB4ZRH+8aRIyZ1cGKIY+Ygn9Ah+2B8Lfi98P/AB/e/sveLfD2ra74CjuBfvq881tpdlcxmdR/aFykZaKLdbyeZLGknlqpO08V+UNl+zl8a/hZ8b/2B/gD4mNp4m1X4SWmvWmt3ei206WNno9lo62WnzzidpDCrPFBAssmfNuFBiKb9o/Yv9pH9m/Q/jT8BfGPwd8MJa+Hrnxjp01q99DZpIomkYypLcojQmeLzC3mxBw8qu4DDcTW83ocp8cfsl/ts+JvjD8c7z4ZQeOPCnxW0Kbww2vWeseFNMudM/0qO7SBraJZ9R1CC5gkRxLDMlxgqDh5lPmJsfsE/tnXf7UenjVr74qeCfEepvpYvL/wvo2nyWWp6NcsYTMkvn6nPNLDYs728xezhMsm11eL/Vt3Xwk/Zu/a0sPjdY/HT9oPx74c1rVB4evdCvrXw/oFxpdstvNLZT2xt2vNRvm8xJYbhppGBR0eJBACheTF+CP7KP7RWjftAQftAftKeJ/B+u32kafcWWmXHhfwtcaPeztfTRtPJqUlzqWpPKiqiCKOMKEOZC6L+7qKbfUD9Ory5Szga5lOEQFm+ijJ618Ka7/wVA/4J0eDdfu/CXjb9oD4a6XqumzSWt7Z3fivR7e5t7mF2jlimhkuw0bIylWVjuBGCK+9Cqt94Zrlh4E8ELdSXq6NYiaZnaST7PFuZpW3uWbbkl3O5iep5PNagfll8XP+Cu37DWh674Z1b4a/Hn4Ya9pbX62ut2Vp4h0vUNTNvcq0UM+nxW2pK0r29y0T3ECxTSSW3mGICVY0l/ULwF4+8I/EvwdpfjvwDqlprejazbRXlhf2E8dzbXNvMoeKWGaFmikR0IIZGKnqCRXz/wDHf9npvive6R4aiNjY+DB5n9v6fFZKbnUo3lgljgE4cItmzW4W/tTE/wBsiZV8yMRbJ/qHSLSK006CBIEt/LRUEaKoCBRgKNvGFAwMcY6AUAfjv/wUY8TeI/EX7YH7L37L9xIp8F+Ndd1XWNds2jEiXr+F47W+sLeXjaYRPIJNjfIzohfKqQeO1X/goj8Vv2afC37RVx+1LpelJrPwyulvPCsOkRyl9Y0bW7ye38Pl/NdmkkwsUVyYz+7cSBlwEZ/pj9vr9nLxR451P4fftUfC7Sptc+IHwc1T+0dK0uG4jibUtPvnhTV7BPOIhE80EIa3kfhGTbkK7Ar8V/2OfAv7YfxV+Fn7S/iSa+tNJ0S3ttSudFv7SeC51ExPBqWkLdAvDPavp90ryyW7xDzJD5cigbxJzXYHkaftM/ti/Fz43+NvgV8HrnQtH1j4R+F9H1PW/tWkzXlvq2u61p8t1Dp0eNQiks4F8vcwzNIAY284qSh8f8Yf8FLvFPiP9mX4IfHO41zTfhl4c+KdrdSav4zn0+TVtM0m6tYlENpCvnRhnvrnf9nlcOhghmyitskr7A+J37Gnxdm+NXiX45fsv+PLTwHq/j63srXxYmqaEmrpeppkZt7OW0kS8s3tLmOMsolk+1x7TGfJDAlr2nfsl/FX4F/s5eEv2dv2PvGVl4RsPB8X2PzPEWgr4hgurQJvb9xbXenSJceccrKrqijIFq4wy6U276gcB+0l400bVv2Q/C/7RWn67pnje+8I69oGsaP4g063UW9ww1iCyupLdUeVEe6s7i4tJFRmxvc/I+1U+yv2tL/XrH9lT4iar4cvfsN7beG9RuIJ1iMrRlLaSQEKJYDuwMKfMTBw2eMV+fv/AAqfxd4DHw+/Ye8K+HLjxMlx4hh8aePfE8eljTNAt7d9TuNZKWKNNKgku9WtIIF06GW5+z2OWun3tC8/6qfEjwXp/wASPh1rPgDW3kit9esptOnkhIEiR3KGJ2UlWGVViRkEZ61qB+BvhD9or9pD9mH/AIJm/s5+NfDOv6Jc6r4+n8FaPG+padcTu8Oq6YZZDPNc6tC89zNKis1xArqVLCK2Yt5yfb/xv+KfxX+E9/4N+Eni7446LofiDW4boq0fhSXUdc1q5jYySf2dpttdyCK0toyVOYbiQ7VLSHa7S+U+Hf8Agmd8fL79nb4Xfs4/FD4qaVqOnfCnxBoeq6Tdab4ZewaSy0S0ltVs7lZdXuhLLOZd5uUEagji3XHP2D8Wf2dPjDr37QmhfHf4L+NdP8KPHpaaHrdrf6E2rPc6cl4Lry7C5S8tBYzEuy+Y8dxGSUkMTeRhsZN3A/MD45/Hz4tfHr9mr9lv4z6JHb2njPUvi9aaSpuYpY7N7qzGtaVJcy24YSxRypDJKYVIlhLBW5U19M+Av2nP2kPh9+1h4s/Yu+MXiHRNZuofBj+L9B8VXGnnTYIiXEHl6lBHdFHginD5MDI5jUBnBYPXWaf/AME6r2P4R/D74Vah4zupU+GnxCuvHGl31vp8FrdOjT6lNbWcol8+Nmi+3nzLlY/3xBb7PGG8pZJ/+Ca9v8QdT8b+O/2jfFlx4s8aePvDN14PvdT0u1j0u2ttHmEYWO3tHluikoKkySvJNv8AmwsYbyzClK51SirHDfs8ftWfEPxt+014P8DP8QrH4m+EfHumazqEWo2Xhi70Wwt5tK+zmKXSb6WWaG+tpDLIGKzXBUhSJVIOfVfh5+1T8D/2bf2cdQ+Jnx5vtO8F6IfH3jLSM2Nm6W7TWviPVYI2EVpDIWklitZJZpCoLzBsnLgVN8P/ANkbxv8ACqf4dfE34seP4NXuPhHpWq6PFJb6NBp2nS6LdWaQhUgSaea3mT7LaySzCd0cQyIlsgeN19h/YLgm1L9nyXxII5Rp3iTxP4t17T/tUBhkk0/WvEOo6jaSNG5L4kguUcbwjFWGVB69Jyn57/t3/FPwt8QPHWiw6L8QvCKTeG9HtPHXg7RH8P6h4i1yfVIVvnh1F7SKXy7O1iWFRBdNbNJETeEPDgOcPxR/wUL+MOo/AH4D/FPxBqMPwt8K/EPRLzVfEXi+10b+07PS7mBYFtLR4nmmW0W8aZmzIZ2jaIwcv89fbvxd/Yo8YeK/2gtd+NPw68bnw5beNNGsvDviyxn0qPU3l02z8/y20mY3EX9n3MkdzNE8jRXSuRGTA2xcw+Cv2R/2gvg1+zR4N/Z3+CvxPsbCfwlDLpjXepeHIr22u9MInW1ha1W6tds8EckO+dLjy5THNi3TzkW2yqN9APrP9m3x7Z/Ej4SaT4o03xhp3j6C4iyNd0qNIra65+8qRySqrDowyuCD8or3qvmz9l39njwd+zH8N4/hj4He4msluby9MtyIg7y3lw1xKQkMMEUSBn2xxpEiqigfNgGvpOrg9ACiiiqAKKKKACiiigAooooAKKKKACiiigAooooAKKKKACiiigAooooAKKKKACiiigAooooAKKKKACiiigAooooAKKKKACiiigAooooAKKKKACiiigAooooAKKKKACiiigAooooAKKKKACiiigAooooAKKKKACiiigAooooAKKKKACiiigAooooA/9L+/iiiigAooooAKKKKACiiigAooooAK5LXvEXhnw7ENR8QX9vYwvLDAJLiRY0824lWCGPcxADSyusaAnLSMqDLMAetr8j/AIg+F9c+M/8AwVZ8OaDrTT3Xhr4SeCW8WWmnyS7bUeItau7nS7O6MYHMsVpFeqrSCVFMgdI0kVXI2CP1eivbaKJyzZ8sBjtBbIPTGM7iccAZNcrrPjjwXZ2+oXV5q9lDHo8Xn37STxoLWLaZBJMWYeWhRS4ZsAqCwOBmvyA/Z4/aa+I3gn9kn4y/tF/EcN4pXwd4o8VeVbyam8rGPTr0pFYRvJalUhtgCsUhRj6xmvor4b+F/gt8Gf2s9X/Z38HeFFl1rxt4VuvFGteKNRurjUdQ1CO0v4rCOyvLi+a5ubuJFuv3ULzrBChdIokWQKmcasW7JmkqUlq0fpBp+oWN7apPZzJNGyh1dCGUqeQQRwQQQR7EVbNxCDtLAcZr8o/+CaaXPgHWfjJ+y/p10jeF/hl4znsfDNksUUaabo17ALuDS4mjRMwWcjSJBldyxBI2LFSzfUPj39oDxJp/7Qth+zj8OvD8GpapJodz4iv7y9v20+1tLVJhbW6kxQXEksk0m9tuEComSxJwLcrGZ9dfarf+8KeZogu4sMeufWvh/Wf2o9bk+PFv+zJ4O0a0vfGVr4aHijWI77U5LSy060luXs7YLcR2kjXInlhuWUlFIjgZnCsVjPnGofts+KYfgj4a+INl4YsV8Wax4vl8EXeiS6yIre11aK8uLGT/AE42M7PGJbbKN5C7oZQ4BJVaE7gfpI11bpIImcBicAfn/hTvMDwebFyCuR+XHX+tfkj4s/b/APjh4X1H406HH8L9MmHwJ0yLVdcli8Sz+VdRz2D6lFDp4XSBLLcLDGA8cyQRhpY/3jBiV+wtA/bJ+AF3oXguPxf4p0Twzr3jnStM1LTNC1PUrSK/mXVgFtY4oGkVpmllJijCD94ysF5BFS6iQH0vLbwCYSSNs55xgAjnjpnHc84zzWn9qtxJ5JcbgM4z2r8zvF/7f6aa/wAWdW8BaBp+q6P8I5ZYL2abWjBcajPZWaX2oR6dBFbXKyvbxl4gruim4jeORoQrOvfeOP2r4vD37Qtt+zxoNnoo1y58P22v6dFrOtLpDaitzPcQmHT4fsly83km3H2v5laJpoBsZXDCY1oN2TA++FYN07U6srRUVLEBRjkgjGMMp2kcqhIyOGKjI5rVrUAoqKaYQRmRhkAZNVINRgneSPIVozhgSMjkgZ7DIGQM5x1AoAuPLGhwx564708EEZFfP3x3+Mll8ENIs/Hmu2ZudAjuI11i5SdQ+n2OT5moNExAa2tWZHvHBzFblpSCsbV7lY3PnW8bEffAbjphuR+lAFPW/Emg+HdHvdf129gsbLT4nnuLm5kWGGKOMEs8kjkIqKAdzEgDByRg1V8P+JdF17SYdc0q6iurS7jWeCaFg8csTqGSSNlyHR1IZGXIYHK5FfkB/wAFKvHUmsfHP9n79jnXbaK40D4oeIrvUddW4IS3u9L0P7MzaVcxlGWSG5kvIfMQghktsMDvOPR/FH/BQ/SPgtp3x0/4X3oEXh5/grBaX1tDDqa3C67Z6yZo9JMP2iG3WKa+vI/sfkszpDdN5XnFU3sNgfqys0b5CHO3riopbm3CNlwMcc+uM8ev4V+bOhfth/Ej4jfF3W/gj8KvCVjNr3hfQNK1XU/7U1K5toRe6vBLcW9hF5VpIXxFE7NPIFcAfPEpK7vGtS/4Kc6Pr/wh+DXxO8Lro/h+1+N4uo7LVvEd2w0fTLm0VQYpZU8t5vtRDLbIVjBOZJHQgRtPtEB+pVz8R/A2n+NIPhtfaxp8PiC/gN1a6a91Et5Pbxkq80cBbzHjQg7nVSq9yK9DWaNYtzHGPz/KvzA/bO8Xx6Z+yxYftF+IoLG81XwPreg+KNOe1C3Sqi6jbw3n2S4Zc4ubC4uLZpoioWOcowYZMn3P8ZvidpPwa+DHib4x68rtYeFtLu9XuFibczRWcLTOFzjOUXI/CmpXA9T/ALRsvLWVZAyt0K8/y6f48VMLq2J2iRc88Z5468e3evz5+Bf7Qvxh+IHwDH7U/wATNE0XSPCOseEo/E+n6bZ3k9zqtvC1mLyOO7uJIYoJ3lhYSfLHGYD8v73l68Psf2+fjNofgf4QfHL4g+BrGHwR8ar3R9MtUt9RuJtR0STWEaS0lu1Nrsu4XhAL7HiMcgwDJ5w8tgfrqLu2LmPeNw6juPr6e3rQLq3OAHB3Zx7464r8UPEf/BQ342zaX8evFXhjwhoNvpH7P+t3S3pvtTvDNqOlWFu8t35QjtG+z3ZRHkjkO9YgUj2yfM4+l/h9+0p8Z0/aX8NfCb4n6JpA07x94dvPEGlTaXPcSz2Eemi0EtrcSSwRrdNKbtXjZRHs2FSJCwYZe3he1zV0ZWvY/RS9S2lh23RGw8/N04BPNcb4T+I/w58V6hqnh7whrmnaleaDcC01C2s7qKeWznKq4hnjjZmhk2ureW4VsMDjBFfnP8WP+CpH7Jms/AbWfiF8HfFGjeLrawv9H0y88/U30Oytf7ZuBFDcXmozRq1nbLEJJxdKj4ELFAWAB+CvgB/wUk/Zt/Zl+Fvjz4K/CKP4eeNbf4f+Ebnx/aL8LbyI6M9l/aAt762uCkmoSQ3du9xDNdXMjubhJzKqoQY00btuZH9IouISM7u2cd8fTrU1fnd+wz+0r4k/aU+HMnjmTxD4J8W2Ekkbq3hOaYPYu0albK7imlnYzopT98zRB1ZWESiv0RoUrgFFFFMAooooAKKKKACiiigAooooAKKKKACiiigAooooAKKKKACiiigAooooAKKKKACiiigAooooAKKKKACiiigAooooAKKKKACiiigAooooAKKKKACiiigAooooAKKKKACiiigAooooAKKKKACiiigAooooAKKKKACiiigAooooAKKKKACiiigAooooA//T/v4ooooAKKKKACiiigAooooAKKKKACvyT+NMPjD4Cf8ABQfw3+1lc20U/gDxT4ci8B+I5lkjjOl351E3GkXdwJGjCwzSzGz3nO15Y2JQbg362VxviK+8N6daNceJGiigSRFDzbdm5nXaCX4Hz7cZ43AHqM0WBM/JTw1+xt8frb9m74y/su3D+GpNL8eX/iHVdJ1mHULxpzJrdyJ7eC4smsFjhRVJTzxeXDEgFUIfC95D4T/aC8LftFy/t1ftDWXhfw7oWg+BtX0LUrDR9Tv9SmtoI7mDU2uVmksbRbhma3kVoVhiaIKMST7z5P6lWtpA2+OZd/JHzdeQNwPY54+vfvmnq9tpdpbm9mCQpEoBJJVSBwoIHB2n7vHynpjmoUIp6FyqN7n56/8ABPT4UfE3QtF8f/Hz4pWU+g6h8XvE8/im30a9j8vUtK06SKGHT7TUVDOgu1iiLXCIxWNpDGCSpY9D8Wfgr8bNA/aaX9qP4FWmga9fXHhYeFtR0vXdTutIjSGK8a7tZlu7ex1Bj5ZlmMkbQqSSrKyktu/QO2hhjgjWJQqqgUAdAB0A7fSlNpbFlfYNyAhT3UHqFPUA47UTjcg/Mvxd+z78b/CX7SC/tc/CW20HXPEmp+E7Hwrreka1qN3pmnKLK8kvo761u0sL9w0c1zKpie2GVWP5wY9gu2f7IXxNvfhx4H0LXb3SF8Q6Z8RD481+Wx8+K0kaS/ur2a3h3o8kpjW5jhgacDKRKR5TKhH6TraWybQsYHl52f7ORj5fTj0oFrbKnlqihSNuMcYxjGPTnp0pxjZAfll4u/Yj+IXiXU/2qLiHUNMhX486Nbadoqzb1e0kj8Pto7i7KR7wnnEOBE77U3FcO7lvqb4c/srfCTQ/Afge78f+FdC1vxd4Q0LStOj1i4sYJLlH0yNWj8m4mhEsUaT75UACbHZnCq5NfVAtrcKFVAAOgHA49qlREjQRoAqqMADgACo9nrcD8kdb/Ye8Q+H/AI0eN/G+geA/AnjzTvH2prq0s/iiMxX+lXL2aWd0sIXTLtLu2k8mCYwedagt5+WYyZr1D9qX4BfE74vWVz4N0b4f/D7xRo9zpjWdnqPiR5o59IuJ9wkngt10++jnjj+V418y0ZWBXdtIav0XFnaKhjEagH2p4toFlM6oA7DBYDkj61aglsBwPwn8LN4F+HOi+BnuZL1tFsrexaeYgySm3iWMyNhnwXxuxnjOOBgV6JSAYz70tUAx41kGG6V826x+xn+yP4i1y88S+I/hf4S1G/1CaS5ubi60TT5ZZp5mLyzSO8BdpJCcuzEliATzX0rRQB+b/wAcf+Cdv7PvxDXRvCHgv4c+D9B0Rr+2utcurTSLO3vpLW2mWX7HaPFbDyxd7PJupvMWSO3Z1hHmSB0+8/BHhDw94H8K2HhbwtZW2nafYQrFBbWcK29vEg/hihTCxp6IvCjgcCumktreVg8saswKnJAJypyv5E8elTAY4FAH5j/t7fs5eLviF4q+Gv7S/wAL9KOu+L/g3rTarZ6Uk8cE2pafdrCmo2lrNM6QxzyRRB4jKQjvEVZ49wdOM+Nv7Gmgftr/ABP+Ev7REkrxeFbO0h1DW9IuYJra71e3tprfVdItZo5lSWNYLkEXNtcEIwaSF0UF1b9Ybm3tzCzOoO1TjIBA4PrxxmuZ8K3eia/p8OvaPJa3dnfQRTQTQFJFkj2jayyKzeYvPyt7mlJXQH55+Mf2W/j54S/aQ8c/tBfs4aloSXXxN0jT9M1aHV0mQWs+lBoLe8he2WRrg+QQhgkWIKclLhc4FX4efsceO/gJ+yr4C/Za+HVp4U8daP4b09rHU4/FtrdeXePmWT7QnlC6RCskzny3R/MBwJVIzX6hNBCy7WUFfQ8jj26UyWCE/vGUFh0J6j6HqKy9mwPxiPw28SaB4d8KfsHHw1c6jdazr8HjPxHqemWbW3hbRtNXxEdVk02KSYqkxmeNrGK1tw7ojCaZYU8sSfqH8bfhPonxn+CPiv4Na7K0On+K9HvdHuHAB2Q3sDW7sAcDKq2RyPrW0fFfhD/hLv8AhAjqNudaEH28WBmQ3Ag8zy/NEX3xHnI3dMk+pr0RAGjAPNXCNgPzP+A37PP7VHhL4Fp+y98bvE/h7WfDVh4Sk8MWmpadZ3MOrXWyCOyhu50lk8hHW3D+cscciyyMGV4lyh8b8O/sHftDalpfwg+GPxS8caVN8PPgdq+m6lpkOnaVctqes/2PiPSvtkkj+XAYIxiUQJKkmd2E2qw/Yu4ggYMjqpDglgwznGOv6VHbra6hGt26K56qSM44I4z04JH4mrA/HfQf+CePxI0P4aftR+F73XtNE3x5vdVudKlIeP7GmoRSxRJdvEsfmFDLjCNyoxlvvH6rh/Zk8VXX7Tvw3+NdzqduNO8G+EdS0C5tF/1k0189m0cyHHy7VtMOcjORjgV91LDEhygxwB+A6CuevdasNJnhXVJ1tlnl8mHedvmSMrSbRu+8dqs3y54BPQGp9nE09q9j46/aX/Yo8A/E34H6j8OvhCtj8OdYku9M1HT9Y0vTrXFnfaTcLcWk8lviKK4RCpQxTbo/LZlC84LfAHw3/ab8OeG9e1bxZJ4BsvEDRwxaVLo+kXaWaqHU3DXfm30cjRzLjy4EdBAR5hkuWYIn3NtSU4fkocg/1H4U7yk5469eaJRujM/Jv4F/sPfELwh+2BqH7a3xRv8AQdJ1KXw43hj+wvC1jJa6fPELuS8bUbi4mbebl2fb6eUqBmL7jX60VXNpakg+WuVYsDgcMepHoT61YpQjYAoooqwCiiigAooooAKKKKACiiigAooooAKKKKACiiigAooooAKKKKACiiigAooooAKKKKACiiigAooooAKKKKACiiigAooooAKKKKACiiigAooooAKKKKACiiigAooooAKKKKACiiigAooooAKKKKACiiigAooooAKKKKACiiigAooooAKKKKACiiigD//U/v4ooooAKKKKACiiigAooooAKKKKACvyO+LsHi34w/8ABTnw18GdUnupvA3gDwh/wnd1paMEtL/W59Ra20gXI4Dm2+yXNzD5mVSeKJ+GVSP1xr8kfjdqPiL9nz/gpD4W/aT8VA2vw38XeDn8Ha9qrlBZ6bqVvqRvdKe7dmUwRz/aZ4FkIKmR0U4B3CZrR2Gjxj9l39tX4/Wf7PvxY+Mfx18JTanZeBtW8Rzxy2+p20kifYL4wppEUcKKUS3hA/0ghtwQ8FsV9MeEPAPwy8CfG29/ZR1+DUPGuq/ELwVe6nrut+IdQa6k1K2sJ4NNFtPZi3SyVXjvmR1hihQRgqI3ZmavjnQvgD+1lJ8A/wBof9jLUPhsZbHxZN4r1zw/4rTWNPbSdSm1eWOaysTGsw1G3uSJZFumltEgR42EckqlS/c/DLxX+2t4j/az079sr9o34X6f8L/BOm+DtW8OavDf65b3mo6bCksOonUZ47MSQNb3E1ssUCRytIqCRpdmUB48PTmpXkazppK6Pof/AIJ/eMPiM/i341fBLxzrlzrlr4F8aPb6FJfPLPdW+jXdrHLbWk91cSzz3EkMnmHz5pZJXBCs2RgfR+jftCWOoftAeJvgR4jsDo8+iaRZa7Z38sv7nUNOuTJE88ZYBUEFwFSRGPykg55GfCf2AvBPxDkvvit+0H4/sZtMX4j+Mrq/0SyvIZba9TRLRRZ2TXtvNFDJb3E22WYwsu+ON41k2yB0Xx//AIKgfsqftF/HjSvDVx+zFcT2Gta7Fd+CfEt7aT2tu9t4Y8QXNpJqNwv2rAmMBtVJEWJjG8vlASMK65ysYnv3w4+MCeP9Z8F/Fmbwdq1l4o8U+C9X1Wy0qXUpxGtlbXWm7IntQ/2P7RcpdwSLO8fnxIDCzYJAr+CP209P8Y/Cv4SfEdfDl3ban8VdUh0qHR5eLiwmiS4k1ATZAcCwSyn8wEY34HUV7KfhZqumftB+BtZ0KxEfh3wx4U1vShKZV3RTXl3orW0aqd0jHybGZmcjHAXJDcfJ3wU/Zr+PWmftwa74n8fWdjD8NPB/9sXngt4JQbme+8W3CXuqSXcanO61mW5WFnUZju3UDGSHGV0B9afHf9qj4LfAX4Y+Kvij4u1aC5tPCen3F7fWttLHJMqQu8ZBjGWDSTr5B3fKsmQ2CCK+ZtB/bq8XeFPiNB8O/wBpH4eXfgO+1vwtd+KdIe1uX1RLi302JZruwuJTBZrBqUEb7mgXzIl2SKLghoWfp/i//wAE4/gp4q+G3xb8N/CLTrbwN4i+L6rc63rVhC01xc38E8l1bz3CySoJhHcSyvtDR5ErYKHlvzs/Yj/Yn+LfwY8X3njLwh+yl8L/AIP+I/D+lataR6tY+Iri6/trVWhEVpLBDbWO6HTLmQf6Q92TeRqQv2dmWqA/Qn9iH9sb4o/tk+HNM+K2m+B9O0LwVqn2sLMuvi+vrV7ZzGsVxZw2KxJJO2JUP2p18khupUN+kyurjKnqM/nX85v7JP7En7QiftiaF8Yj8DtH/ZmsvCi3C65e+GvECarbeMUceRFYiygS3ENlCUNwk11F5v8AqVECsWkj/ouhjaMbWO7AAyep/ICgCaiiigBruqLub2H58VVjv7STO1xwSDnsR1H1HcVNcRCeIxsA2cHBxjg57g/yr87vFX/BJ7/gn7498Uap408afDLTb/U9ZvZ9QvLiWe7Yy3FwwaSUqJlVWc9QoCjHAFAH0n8b/i3P8JW0jxNf6dNdeG5LhodX1O3y40eDyZXW9uY1y8lqJUjjlMeDFuEshESMR7npl0tzZxvnkjOMhjjtkgkE464JHpX4ufGr/giz+xf4j1LQPC/w3+Fuh6RpN/csPEOrpLcG/t7GJGcQ2SSOyCW5k2xmdjut03tEvnMkkf67fC74ceDPhF8O9E+GXw90yHRtE0GygsbGxt8+VbwQIEjiQnkhFGATyep5NAH5Tf8ABTD4kzar8VfgZ+xfOLg6H8YvENzB4jjhcIuoaJpggt77S5NmHWK7F4jTsjKfKieE8TEV6J4K/bR8K/C6w+L2hfHXw/afDLTfgyYjEv2yOW2vdCnkmXSru3AtbZYUvVi8mG2i+0eXM3keY04YBf8AgoT+z54k8TeJ/hV+1d8PNBvfEOv/AAa8SDUW0nTVVry80nUWig1ZbaN3jWW5EUSSxrvXftxndgHzX9q39g7S/wBv34pfDz4nWl5Zz/D/AFaytYfGlrdi5hn1XR9OvYtZ0aCKJoiDuvVf7RHKYZIo5WCsJo8MpOyuB6TL+2r8a/E3jS/+F/wN+Hdl4h8UeG/C1h4m8TWt7rb6dFZ3GqQPNbabBOumXDXF3KUwvmQ2qCPDmVchazrr/gpL4L1n4WfBz4l+AbLT9vxmuJYNLj8SaquhWVs8Ebb4JLwW98WuWnxBFHGhMzfdxkA5fxg+AP7XXwR/aQ8XftL/ALGHh/wz4v1T4p2Flp2uWniTUJ9Lh02XSlKWd5E8FrdNdRPFLJHcWxEJLJHIkqbjGPK/EX/BPv4ofCf9g74bfsieD/BHgb426T4Zs/sWt6b4uebSY5WKuwudOlhgvo4JFknnUs8RfyXChz84kiE7sD2T9tJJfBvwG0n9szx9oOnab8SPhhe2Fwt/pU815Jb2M+q2KapYRXMlrYSSwajZfupY5Y1CFgyo7wqT9u/tPfFXV/gL+zv41+Meh6GviS48JaTcaqNLMxtjcRWqNLJGJhHKUbykbb8jZIA75r8t9B+B3/CM/syeDf8Agnj4i0x7jWPEWr2mo61pvh9by90jwzok+qtqb2y6hOqLDaRw2j2FsGZZJZWV0hZd7L+2Gp6NHqOhy6ZJCkySRhDHKdyuFxgMSDxnrwa0A+C/iB+1loPijxT4A+HHwq0yHx3oHxF0LUfEF7rdtqRhstM0G2t4nW+Z44S0n2qS4WC2CFWLHzCyhGx8g/sXftnfDzwb4E/Zo+GXgX4ZReAPAXxh0nUpNLjt7+a9ttFv7aZrmOwkkkhUSm5+fZMdu+d8JnOT6j+wz/wTm8d/siWvj3w3qutw61pSWMvh3wFJLcyz3lnokk95qL/bpHgjC3U99fSGd4vNDRwwkEYEaZPh3/gn58aNE/4J4/Dr4I+Z4fX4u/ClrTV/D2oJcznTI9b0+5aSAteNZfaFtp7dmguT9kdmWRhsYLhguKjbU9Q+Ff8AwUO+GHi+y8fePvjRJpnw08FeFfGV74K0XXvEOrQW9vrd5ppkS5ngMxtkiVDDKqr5rlvJl5zGxHlHxT+Mnwo8a/8ABQDR/g14l8Dnx8nh74fQ/E7RtSbVJ7y2aeK9nt7M2ujbTY/aP9GaWG9VXly4MZJRa+y/DX7EXwT1r9nXwZ8Cvjv4O8OeLrXw3FbXU1re6fBc2R1byXW8vI45otpeeae5kZ3Tc5mk3AbzjxDUv2NfirpH/BSRf2q/AT6FY+C0+FcHgiC2drh7uDUbTUbi6tz9gWKOCSxSKfGFvIX3AqEx89BBhf8ABPz9tTx1+2Tap8STeeA73whqkUlxb2uhavJe65pY2oY4tUiCmJpJgxlJQQhEK5Ri24fqnppBthg7unPAB4BGADwMdB/k/iv+zr+wx+0ppX7YFl+1J8bfB3wx8G3ekJftJe/D+51Rr/xDPqCeXIdVS8s7aKGLcXudu+8kM7f6zc0ssn7XWcUkMASVtzdST3J6n8euO30oAs0UUUAFFFFABRRRQAUUUUAFFFFABRRRQAUUUUAFFFFABRRRQAUUUUAFFFFABRRRQAUUUUAFFFFABRRRQAUUUUAFFFFABRRRQAUUUUAFFFFABRRRQAUUUUAFFFFABRRRQAUUUUAFFFFABRRRQAUUUUAFFFFABRRRQAUUUUAFFFFABRRRQAUUUUAFFFFABRRRQB//1f7+KKKKACiiigAooooAKKKKACiiigArG1LQdM1eCS11GJJo5tu9XRHVth3JlXUg7WwV9CBWzRQBVSzijYshIJJPX1qvc6VZ3Z3TLuYI0YJwcK5BYfNkHJUdR2FaVFA3JsrR2sccaxAkhBgZ/wDrUPaxyHLlj7ZwPxA4NWaKTVxDDGCOT7UixKoCjoO1SUU0gGFA33jnnNRmAHdlm+Y5POf0PFT0UAV0to45PMXr+Hpj0449KsUUUAFFFFABRRRQA1l3d8UIuxduSfc06igCpJZW8sZhlG5cbcHBGOex46HHuOuaS1so7TiNmIxjBOe5OenJJPJPJ71cooAayBxtPQ0xYUUYUn/P6VLRSSAyn0iGS5FzJLKducJvIQZIY5UYBORnLAkc4IFaijaMClopgIVDdab5a/5//XT6KpSYnFAOOKKKKkYe9GMUUUAFFFFABRRRQAUUUUAFFFFABRRRQAUUUUAFFFFABRRRQAUUUUAFFFFABRRRQAUUUUAFFFFABRRRQAUUUUAFFFFABRRRQAUUUUAFFFFABRRRQAUUUUAFFFFABRRRQAUUUUAFFFFABRRRQAUUUUAFFFFABRRRQAUUUUAFFFFABRRRQAUUUUAFFFFABRRRQAUUUUAf/9k=;" vertex="1" parent="1">
          <mxGeometry y="10" width="887" height="364" as="geometry" />
        </mxCell>
        <mxCell id="46MEnAYg1BWNFpC2DYhj-2" value="" style="rounded=0;whiteSpace=wrap;html=1;strokeColor=#FF3333;strokeWidth=3;fillColor=none;" vertex="1" parent="1">
          <mxGeometry x="383.5" y="160" width="276.5" height="30" as="geometry" />
        </mxCell>
        <mxCell id="46MEnAYg1BWNFpC2DYhj-3" value="" style="ellipse;whiteSpace=wrap;html=1;aspect=fixed;strokeColor=#97D077;strokeWidth=3;fillColor=none;" vertex="1" parent="1">
          <mxGeometry x="720" y="162.5" width="35" height="35" as="geometry" />
        </mxCell>
        <mxCell id="46MEnAYg1BWNFpC2DYhj-4" value="Actor" style="shape=umlActor;verticalLabelPosition=bottom;verticalAlign=top;html=1;outlineConnect=0;strokeColor=#d79b00;strokeWidth=3;fillColor=#ffe6cc;" vertex="1" parent="1">
          <mxGeometry x="491.75" y="230" width="58.25" height="110" as="geometry" />
        </mxCell>
      </root>
    </mxGraphModel>
  </diagram>
</mxfile>
